<?xml version="1.0" encoding="UTF-8" standalone="no"?>
<!-- Created with Inkscape (http://www.inkscape.org/) -->
<svg id="svg4167" version="1.1" inkscape:version="1.1.2 (b8e25be833, 2022-02-05)" width="274.6875" height="135" viewBox="0 0 274.6875 135" sodipodi:docname="colander-est.svg" xmlns:inkscape="http://www.inkscape.org/namespaces/inkscape" xmlns:sodipodi="http://sodipodi.sourceforge.net/DTD/sodipodi-0.dtd" xmlns="http://www.w3.org/2000/svg" xmlns:svg="http://www.w3.org/2000/svg" xmlns:rdf="http://www.w3.org/1999/02/22-rdf-syntax-ns#" xmlns:cc="http://creativecommons.org/ns#" xmlns:dc="http://purl.org/dc/elements/1.1/">
  <metadata id="metadata4173">
    <rdf:RDF>
      <cc:Work rdf:about="">
        <dc:format>image/svg+xml</dc:format>
        <dc:type rdf:resource="http://purl.org/dc/dcmitype/StillImage"/>
      </cc:Work>
    </rdf:RDF>
  </metadata>
  <defs id="defs4171"/>
  <sodipodi:namedview pagecolor="#ffffff" bordercolor="#666666" borderopacity="1" objecttolerance="10" gridtolerance="10" guidetolerance="10" inkscape:pageopacity="0" inkscape:pageshadow="2" inkscape:window-width="1920" inkscape:window-height="1001" id="namedview4169" showgrid="false" inkscape:zoom="1.8101934" inkscape:cx="327.86553" inkscape:cy="74.853882" inkscape:window-x="-9" inkscape:window-y="-9" inkscape:window-maximized="1" inkscape:current-layer="svg4167" inkscape:pagecheckerboard="0"/>
  <path style="fill:#000000;stroke-width:0.364357" d="m 25.211211,44.263398 c 0.760423,-1.72177 1.519418,-1.65433 2.009642,0.17856 0.344175,1.28684 4.115516,3.60625 4.713465,2.89883 0.675616,-0.79931 0.463597,-1.70152 -0.483902,-2.05917 -1.208346,-0.45609 -1.41404,-0.84398 -1.64115,-3.09471 -0.20416,-2.02335 0.08636,-3.30521 0.749092,-3.30521 0.543412,0 1.050681,1.45486 0.703259,2.01699 -0.196865,0.31855 2.454453,1.94164 2.726795,1.6693 0.06534,-0.0653 0.934291,-1.37144 1.931007,-2.90244 5.789724,-8.89327 14.386642,-15.53983 24.414513,-18.87563 4.14331,-1.37829 5.80847,-2.306 6.89733,-3.84269 1.92012,-2.70986 4.22619,-2.37415 5.31121,0.77318 0.84423,2.44888 0.57702,3.61847 -0.97484,4.26687 -1.49292,0.62379 -1.55029,0.87954 -0.79676,3.55196 4.42394,15.6898 3.74313,63.25469 -1.13044,78.977582 l -1.02164,3.29594 0.86708,1.27772 c 0.94906,1.39852 1.13652,3.29153 0.47066,4.75294 -1.19229,2.6168 -5.7521,-0.18819 -5.7521,-3.53844 0,-1.09396 -1.61765,-2.38497 -3.97093,-3.16913 C 49.299387,103.49241 39.852818,95.535168 34.090509,85.114508 l -1.162007,-2.1014 -1.014278,0.46116 c -1.762576,0.8014 -2.209828,1.34641 -2.209828,2.6929 0,1.95585 -1.439952,1.65745 -1.532655,-0.31761 -0.114099,-2.43082 0.103539,-2.82415 2.079985,-3.75916 2.052899,-0.97118 2.048421,-0.96214 1.329647,-2.68241 -2.479247,-5.93368 -3.358561,-16.0008 -2.035392,-23.30289 0.74542,-4.11366 0.783899,-3.98848 -1.464113,-4.76248 -3.062852,-1.05456 -4.244497,-3.96856 -2.870657,-7.07922 z m 0.702377,3.99358 c 0.240975,0.61578 0.276693,0.60317 0.483702,-0.17079 0.495234,-1.85156 0.130068,-3.86408 -0.573472,-3.16055 -0.293792,0.2938 -0.234252,2.50335 0.08977,3.33134 z m 3.251859,2.49289 c 2.466382,0.7997 2.669183,0.78677 2.804447,-0.17879 0.04529,-0.32334 0.158386,-0.97704 0.251315,-1.45268 0.283492,-1.45101 -4.975051,-3.19869 -5.363252,-1.78249 -0.558092,2.036 -0.169589,2.61079 2.30749,3.41396 z m -0.105448,35.95365 c 0.232969,0 0.318677,-0.42022 0.221186,-1.08448 -0.12508,-0.85221 0.02492,-1.24285 0.700458,-1.82391 0.492876,-0.42395 0.712048,-0.83063 0.513717,-0.95321 -0.703558,-0.43482 -1.815717,1.10173 -1.815717,2.50857 0,0.76625 0.164955,1.35303 0.380356,1.35303 z m 0.81519,-17.88591 c 0.281808,0.10814 0.512376,0.41981 0.512376,0.6926 0,0.2728 -0.153714,0.401 -0.341584,0.28488 -0.556296,-0.34381 -0.39094,1.41252 0.177394,1.8842 0.361861,0.30032 0.456474,0.7639 0.31252,1.53126 -0.156936,0.83655 -0.07123,1.15243 0.357317,1.31688 0.44241,0.16977 0.517249,0.0697 0.347633,-0.46468 -0.123768,-0.38996 -0.06032,-0.68102 0.148454,-0.68102 0.466391,0 0.459672,0.4574 -0.03079,2.09434 -0.340255,1.13568 -0.311784,1.412 0.204254,1.98221 0.329798,0.36442 0.509404,0.80857 0.399135,0.98699 -0.110269,0.17842 0.01807,0.50579 0.285178,0.72747 0.267121,0.22169 0.464625,0.68245 0.438901,1.02392 -0.06078,0.80689 1.135944,3.46147 1.467975,3.25626 0.140361,-0.0867 0.464755,0.0962 0.720884,0.40645 0.347009,0.42039 0.361766,0.59915 0.05789,0.70147 -0.224287,0.0755 -0.326846,0.34825 -0.227916,0.60606 0.254886,0.66422 1.148084,0.22844 1.148084,-0.56015 0,-0.36154 -0.230569,-0.74582 -0.512376,-0.85396 -0.569555,-0.21856 -0.707836,-1.14828 -0.170785,-1.14828 0.18787,0 0.359416,-0.65328 0.381208,-1.45174 0.02179,-0.79845 0.115228,-1.15517 0.207632,-0.79272 0.0924,0.36246 0.391884,0.88289 0.665505,1.15651 0.351695,0.3517 0.390955,0.60404 0.133952,0.86104 -0.525184,0.52518 -0.446851,1.59325 0.116853,1.59325 0.31272,0 0.430626,-0.26826 0.337795,-0.76857 -0.07843,-0.42271 -0.05411,-0.58506 0.05405,-0.36077 0.292659,0.60689 1.169859,0.14116 0.926855,-0.4921 -0.129678,-0.33793 -0.06859,-0.45443 0.163184,-0.31118 0.203752,0.12592 0.442548,0.0359 0.530657,-0.20015 0.104625,-0.28025 0.254561,-0.19922 0.432214,0.23357 0.173358,0.42232 0.125831,0.71141 -0.131022,0.79703 -0.581393,0.1938 -0.496473,1.67639 0.109336,1.90887 0.549508,0.21086 0.717878,1.24281 0.202783,1.24281 -0.170282,0 -0.229214,0.30742 -0.130954,0.68316 0.09826,0.37575 0.32665,0.68317 0.507538,0.68317 0.187724,0 0.232281,0.43985 0.103813,1.02476 -0.141607,0.64473 -0.08834,1.02475 0.143651,1.02475 0.202801,0 0.368726,0.3165 0.368726,0.70333 0,1.15025 -0.654746,0.39524 -1.062891,-1.22565 -0.208638,-0.82859 -0.615013,-1.70211 -0.903047,-1.94116 -0.451275,-0.37453 -0.490082,-0.32872 -0.280613,0.33125 0.182644,0.57546 0.107295,0.76589 -0.303036,0.76589 -0.624548,0 -1.171148,-1.09391 -0.635773,-1.27237 0.194366,-0.0648 0.27941,-0.50481 0.188988,-0.97782 l -0.164405,-0.86002 -0.660273,0.70871 c -0.363151,0.3898 -0.811539,0.61524 -0.996413,0.50098 -0.184882,-0.11426 0.144889,0.57404 0.732826,1.52956 0.587934,0.95551 1.286362,1.7373 1.552051,1.7373 0.265696,0 0.483079,0.2895 0.483079,0.64333 0,0.36913 0.310089,0.72442 0.727536,0.83358 0.473843,0.12392 0.658593,0.36991 0.529822,0.70548 -0.278149,0.72485 2.841568,4.17738 3.220572,3.56414 0.225486,-0.36484 0.356304,-0.36109 0.71701,0.0206 0.360826,0.38178 0.35836,0.49703 -0.01355,0.63264 -0.326606,0.11909 -0.195233,0.43669 0.466198,1.12708 0.506522,0.52869 1.131733,0.88037 1.389358,0.78151 0.285711,-0.10964 0.600198,0.16688 0.806289,0.70894 0.210376,0.55334 0.598868,0.88869 1.029501,0.88869 0.387053,0 0.691622,0.22563 0.691622,0.51237 0,0.459272 0.40017,0.661632 1.099953,0.556232 0.135293,-0.0204 0.413654,0.27623 0.618576,0.65913 0.257505,0.48115 0.577094,0.63128 1.034686,0.48605 0.489233,-0.15528 0.742701,0.002 0.970807,0.60181 0.46818,1.23143 7.20668,4.31289 7.20668,3.29557 0,-0.3741 1.0703,-0.29742 3.18273,0.22802 l 0.96242,0.23939 -0.577,-1.32517 c -1.77525,-4.07717 -3.70085,-11.903222 -4.06614,-16.525682 -0.1262,-1.5969 -0.39102,-4.21003 -0.58849,-5.80693 -2.44678,-19.78659 0.55335,-50.4985 5.86991,-60.08957 1.23989,-2.23677 1.33938,-2.13445 -1.36758,-1.40654 -4.02349,1.08193 -6.8772,2.40367 -6.66091,3.08512 0.11938,0.37613 -0.0234,0.68465 -0.38028,0.82159 -0.800901,0.30733 -0.998936,-0.0149 -0.436952,-0.71106 0.660772,-0.81849 -3.766411,1.65195 -6.773801,3.77989 -1.420073,1.0048 -2.434942,1.96324 -2.391091,2.25814 0.04513,0.30353 -0.168359,0.49289 -0.523749,0.46458 -0.351393,-0.028 -1.860617,1.28428 -3.642973,3.16759 -2.972846,3.14122 -4.775468,5.59061 -4.114394,5.59061 0.181537,0 0.330064,0.23057 0.330064,0.51238 0,0.28181 -0.239641,0.51238 -0.532537,0.51238 -0.315955,0 -0.442821,-0.17365 -0.31194,-0.42698 0.121327,-0.23484 -0.09571,-0.0427 -0.482296,0.42698 -0.838803,1.01909 -2.58977,4.22349 -3.084993,5.64577 -0.29408,0.8446 -0.283156,0.9054 0.06505,0.36193 0.230175,-0.35926 0.687497,-0.93568 1.016275,-1.28094 0.328773,-0.34526 0.597771,-0.93518 0.597771,-1.31092 0,-0.37574 0.14889,-0.68317 0.330865,-0.68317 0.181974,0 0.242384,0.23057 0.134247,0.51238 -0.108141,0.28181 -0.02649,0.51238 0.181512,0.51238 0.20797,0 0.378128,-0.15372 0.378128,-0.34159 0,-0.18787 0.239641,-0.34158 0.532537,-0.34158 0.292895,0 0.437538,0.15371 0.321425,0.34158 -0.116114,0.18787 -0.05014,0.34159 0.146599,0.34159 0.196738,0 0.456568,-0.61826 0.577399,-1.37391 0.120836,-0.75565 0.369691,-1.46661 0.553014,-1.57991 0.190912,-0.11799 0.25827,0.0677 0.157672,0.43455 -0.572518,2.08795 -0.560312,2.59451 0.09519,3.95124 0.689895,1.42792 0.689895,1.42803 0.007,2.15493 -0.78129,0.83164 -0.873953,1.23349 -0.255938,1.10988 0.234838,-0.047 0.426978,0.14518 0.426978,0.42698 0,0.28181 -0.264304,0.49181 -0.58735,0.46668 -0.323042,-0.0251 -0.672158,0.22148 -0.775803,0.54805 -0.404556,1.27464 -0.756984,5.32342 -0.492476,5.65763 0.153682,0.19417 0.153715,0.55643 7.3e-5,0.80503 -0.186641,0.30199 -0.353827,0.33148 -0.503778,0.0889 -0.382979,-0.61968 -1.180948,-0.0403 -1.117116,0.81106 0.07794,1.03949 -0.587278,1.26468 -0.731716,0.2477 -0.127875,-0.90038 -1.769561,-1.13805 -1.769561,-0.25619 0,0.28181 -0.148891,0.51238 -0.330865,0.51238 -0.181971,0 -0.244039,-0.22626 -0.13792,-0.5028 0.283051,-0.73759 -0.631634,-2.57146 -1.282569,-2.57146 -1.158771,0 -1.943898,13.44652 -0.810522,13.88144 z m 0.170792,-8.75767 c 0.18787,0 0.341584,0.30742 0.341584,0.68317 0,0.37574 -0.153714,0.68316 -0.341584,0.68316 -0.187873,0 -0.341585,-0.30742 -0.341585,-0.68316 0,-0.37575 0.153712,-0.68317 0.341585,-0.68317 z m 0,3.07426 c 0.18787,0 0.341584,0.3165 0.341584,0.70333 0,0.38683 -0.153714,0.60833 -0.341584,0.49221 -0.187873,-0.11611 -0.341585,-0.43261 -0.341585,-0.70333 0,-0.27072 0.153712,-0.49221 0.341585,-0.49221 z m 0,2.90346 c 0.18787,0.11612 0.341584,0.43261 0.341584,0.70333 0,0.27072 -0.153714,0.49222 -0.341584,0.49222 -0.187873,0 -0.341585,-0.3165 -0.341585,-0.70333 0,-0.38683 0.153712,-0.60833 0.341585,-0.49222 z m 0.341584,-9.05198 c 0.18787,0 0.341585,0.30742 0.341585,0.68317 0,0.37574 -0.153715,0.68316 -0.341585,0.68316 -0.187873,0 -0.341584,-0.30742 -0.341584,-0.68316 0,-0.37575 0.153711,-0.68317 0.341584,-0.68317 z m 0.668253,4.60217 c 0.179668,0.11104 0.240074,0.42753 0.134247,0.70333 -0.270958,0.70609 -0.460915,0.62288 -0.460915,-0.2019 0,-0.38683 0.147,-0.61248 0.326668,-0.50143 z m -0.192421,5.98695 c 0.324037,0 0.487346,1.02249 0.192421,1.20476 -0.179668,0.11104 -0.326668,-0.11461 -0.326668,-0.50144 0,-0.38683 0.06041,-0.70332 0.134247,-0.70332 z m 0.207337,2.73267 c 0.18787,0 0.341585,0.23057 0.341585,0.51238 0,0.28181 -0.153715,0.51237 -0.341585,0.51237 -0.187873,0 -0.341584,-0.23056 -0.341584,-0.51237 0,-0.28181 0.153711,-0.51238 0.341584,-0.51238 z m 0.683169,-10.41833 c 0.18787,-0.11611 0.341585,0.10539 0.341585,0.49222 0,0.38683 -0.153715,0.70333 -0.341585,0.70333 -0.187873,0 -0.341584,-0.2215 -0.341584,-0.49222 0,-0.27071 0.153711,-0.58721 0.341584,-0.70333 z m 0,3.24506 c 0.18787,0 0.341585,0.23057 0.341585,0.51237 0,0.28181 -0.153715,0.51238 -0.341585,0.51238 -0.187873,0 -0.341584,-0.23057 -0.341584,-0.51238 0,-0.2818 0.153711,-0.51237 0.341584,-0.51237 z m 0,2.73267 c 0.18787,0 0.341585,0.30743 0.341585,0.68317 0,0.37574 -0.153715,0.68317 -0.341585,0.68317 -0.187873,0 -0.341584,-0.30743 -0.341584,-0.68317 0,-0.37574 0.153711,-0.68317 0.341584,-0.68317 z m -0.0042,3.42257 c 0.262074,-0.42405 0.344113,-0.40841 0.540348,0.10298 0.273493,0.71271 -0.06821,1.17808 -0.527669,0.71863 -0.194027,-0.19403 -0.199059,-0.52005 -0.01268,-0.82161 z m 0.309207,2.38437 c 0.416132,0 0.771948,1.00547 0.507331,1.43363 -0.134619,0.21782 -0.324041,0.17451 -0.508252,-0.11622 -0.384718,-0.60716 -0.384218,-1.31741 0.0011,-1.31741 z m 0.7197,3.75743 c 0.427977,0.66225 0.427977,1.02475 0,1.02475 -0.187874,0 -0.339231,-0.34585 -0.336356,-0.76857 0.0042,-0.62149 0.0686,-0.67051 0.336356,-0.25618 z m 0.305793,-16.88631 c 0.168184,-0.10395 0.392041,0.0358 0.497457,0.31048 0.204834,0.53379 -0.221092,0.98966 -0.584815,0.62594 -0.308796,-0.3088 -0.270903,-0.71501 0.08736,-0.93642 z m 0.08857,2.95587 c 0.53188,0.17729 0.625028,0.94149 0.118018,0.96827 -0.187873,0.01 -0.394693,-0.23835 -0.459603,-0.55172 -0.07378,-0.35617 0.05427,-0.51232 0.341585,-0.41655 z m 0.01126,3.07802 c 0.633373,0.21112 0.738424,0.94647 0.135209,0.94647 -0.29746,0 -0.54084,-0.24338 -0.54084,-0.54084 0,-0.29747 0.182532,-0.48 0.405631,-0.40563 z m -0.06405,2.99598 c 0.187869,0 0.341584,0.31649 0.341584,0.70332 0,0.38683 -0.153715,0.60833 -0.341584,0.49222 -0.187874,-0.11611 -0.341585,-0.43261 -0.341585,-0.70333 0,-0.27072 0.153711,-0.49221 0.341585,-0.49221 z m -0.123149,2.96968 c 0.318779,-0.31878 0.806318,0.0665 0.806318,0.63711 0,0.27072 -0.230569,0.49222 -0.512377,0.49222 -0.514505,0 -0.702189,-0.72108 -0.293941,-1.12933 z m 0.610479,3.52042 c 0.316867,0 0.537423,0.29205 0.537423,0.71163 0,0.83246 -0.798204,0.71479 -0.964401,-0.14217 -0.06537,-0.33705 0.108884,-0.56946 0.426978,-0.56946 z m -0.145746,3.92822 c 0.18787,0.11611 0.341585,0.43261 0.341585,0.70333 0,0.27072 -0.153715,0.49222 -0.341585,0.49222 -0.187873,0 -0.341584,-0.3165 -0.341584,-0.70333 0,-0.38683 0.153711,-0.60833 0.341584,-0.49222 z m 0.341585,3.07426 c 0.187869,0.11611 0.341584,0.44168 0.341584,0.72349 0,0.2818 -0.153715,0.41738 -0.341584,0.30126 -0.187874,-0.11611 -0.341585,-0.44168 -0.341585,-0.72348 0,-0.28181 0.153711,-0.41738 0.341585,-0.30127 z m 0.341599,-4.2698 c 0.187869,0 0.341584,0.23056 0.341584,0.51237 0,0.28181 -0.153715,0.51238 -0.341584,0.51238 -0.187874,0 -0.341585,-0.23057 -0.341585,-0.51238 0,-0.28181 0.153711,-0.51237 0.341585,-0.51237 z m 0.483913,-16.73764 c 0.297461,0 0.54084,0.24338 0.54084,0.54084 0,0.60321 -0.735348,0.49816 -0.946471,-0.13521 -0.07437,-0.2231 0.108166,-0.40563 0.405631,-0.40563 z m -0.08956,3.14878 c 0.53188,0.17729 0.625028,0.94149 0.118018,0.96827 -0.187873,0.01 -0.394693,-0.23834 -0.459603,-0.55171 -0.07378,-0.35618 0.05427,-0.51233 0.341585,-0.41656 z m 0.118018,2.99974 c 0.281808,0 0.512377,0.15371 0.512377,0.34158 0,0.18787 -0.230569,0.34159 -0.512377,0.34159 -0.281808,0 -0.512376,-0.15372 -0.512376,-0.34159 0,-0.18787 0.230568,-0.34158 0.512376,-0.34158 z m -0.255636,2.98468 c 0.0751,-0.33108 0.278627,-0.51415 0.45228,-0.40682 0.414022,0.25588 0.409285,1.52115 -0.0057,1.52115 -0.445889,0 -0.607747,-0.40387 -0.446585,-1.11433 z m 0.08484,10.67869 c 0.18787,0 0.341585,0.23965 0.341585,0.53254 0,0.2929 -0.153715,0.43754 -0.341585,0.32143 -0.187873,-0.11612 -0.341584,-0.35576 -0.341584,-0.53254 0,-0.17679 0.153711,-0.32143 0.341584,-0.32143 z m 0.394358,-7.78191 c 0.531881,0.17729 0.625029,0.94149 0.118019,0.96827 -0.187873,0.01 -0.394693,-0.23835 -0.459603,-0.55172 -0.07378,-0.35617 0.05427,-0.51233 0.341584,-0.41655 z m 0.374205,3.42655 c 0.646343,0.21521 0.738234,1.28111 0.110444,1.28111 -0.316866,0 -0.537422,-0.29206 -0.537422,-0.71164 0,-0.41741 0.176538,-0.65285 0.426978,-0.56947 z m 0.308964,2.7218 c 0.252779,0.0842 0.512711,0.42701 0.577621,0.76185 0.07549,0.38942 -0.04761,0.55366 -0.341584,0.45577 -0.252779,-0.0842 -0.512711,-0.42701 -0.577621,-0.76185 -0.07549,-0.38941 0.04761,-0.55366 0.341584,-0.45577 z m 0.167833,-19.65142 c 0.445459,-0.44546 0.804146,-0.23278 0.804146,0.4768 0,0.39752 -0.179048,0.65195 -0.405631,0.57642 -0.499172,-0.16639 -0.714984,-0.73675 -0.398515,-1.05322 z m 0.526608,2.91771 c 0.632484,0.21082 0.704193,0.84073 0.121182,1.06445 -0.369217,0.14169 -0.526813,-0.007 -0.526813,-0.49875 0,-0.38924 0.180371,-0.64079 0.405631,-0.5657 z m 0.106746,2.99597 c 0.351819,0 0.519354,0.22388 0.44735,0.59778 -0.13866,0.72 -0.744887,0.6746 -0.899375,-0.0674 -0.06444,-0.30947 0.123856,-0.53042 0.452025,-0.53042 z m 0,2.73268 c 0.281808,0 0.512377,0.23057 0.512377,0.51238 0,0.28181 -0.230569,0.51237 -0.512377,0.51237 -0.281808,0 -0.512377,-0.23056 -0.512377,-0.51237 0,-0.28181 0.230569,-0.51238 0.512377,-0.51238 z m -0.207337,3.07426 c 0.383952,0 0.742103,0.8885 0.468453,1.16215 -0.411184,0.41119 -0.773493,0.18683 -0.773493,-0.47898 0,-0.37574 0.137268,-0.68317 0.30504,-0.68317 z m 0.400854,-28.87793 c 0.200371,-0.12384 0.446334,-0.14314 0.546583,-0.0429 0.244684,0.24468 -0.186445,0.91089 -0.589468,0.91089 -0.436535,0 -0.407398,-0.58971 0.04288,-0.868 z m 0.148068,32.29378 c 0.281808,0 0.512376,0.22149 0.512376,0.49221 0,0.72266 -0.578205,0.95718 -0.81817,0.33185 -0.292145,-0.76132 -0.268863,-0.82406 0.305794,-0.82406 z m 0.341584,3.41584 c 0.281808,0 0.512377,0.23057 0.512377,0.51238 0,0.2818 -0.230569,0.51237 -0.512377,0.51237 -0.281808,0 -0.512377,-0.23057 -0.512377,-0.51237 0,-0.28181 0.230569,-0.51238 0.512377,-0.51238 z m -0.148067,2.88942 c 0.508671,-0.31437 0.785232,0.0501 0.534263,0.70413 -0.115818,0.30182 -0.365377,0.45309 -0.554576,0.33616 -0.448002,-0.27688 -0.438631,-0.75664 0.02033,-1.04029 z m 0.698636,-25.96997 c 0.551669,-0.34096 1.020734,0.59559 0.570196,1.13846 -0.307954,0.37106 -0.428954,0.37316 -0.658404,0.0114 -0.381503,-0.60142 -0.360716,-0.87247 0.0882,-1.14992 z m -0.142766,3.1455 c 0.384688,-0.38468 0.787743,-0.23429 0.787743,0.29394 0,0.28181 -0.144639,0.51238 -0.321425,0.51238 -0.430728,0 -0.739222,-0.53342 -0.466318,-0.80632 z m -0.0211,2.41219 c 0.467069,-0.46707 0.854832,-0.22982 0.747198,0.45717 -0.06003,0.38318 -0.262865,0.69873 -0.450739,0.70121 -0.415742,0.006 -0.628603,-0.82624 -0.296459,-1.15838 z m 0.275163,3.22909 c 0.313368,0.0649 0.561641,0.27173 0.551716,0.4596 -0.02678,0.50701 -0.790979,0.41386 -0.968271,-0.11802 -0.09578,-0.28731 0.06038,-0.41536 0.416555,-0.34158 z m -0.153646,6.10246 c 0.262075,-0.42404 0.344113,-0.40841 0.540348,0.10298 0.273494,0.71271 -0.06821,1.17809 -0.527668,0.71864 -0.194028,-0.19403 -0.199059,-0.52006 -0.01268,-0.82162 z m 0.516545,-17.42753 c 0.281808,0 0.512377,0.23057 0.512377,0.51238 0,0.28181 -0.230569,0.51238 -0.512377,0.51238 -0.281804,0 -0.512377,-0.23057 -0.512377,-0.51238 0,-0.28181 0.230573,-0.51238 0.512377,-0.51238 z m -0.08539,14.09036 c 0.234839,0.0783 0.426978,0.34728 0.426978,0.59778 0,0.25049 -0.192139,0.51949 -0.426978,0.59777 -0.254001,0.0847 -0.426983,-0.15751 -0.426983,-0.59777 0,-0.44027 0.172982,-0.68244 0.426983,-0.59778 z m 0,6.14836 c 0.646343,0.21521 0.73823,1.28111 0.11044,1.28111 -0.316863,0 -0.537423,-0.29206 -0.537423,-0.71164 0,-0.41741 0.176538,-0.65285 0.426983,-0.56947 z m 0.308963,3.40498 c 0.252776,0.0842 0.512712,0.427 0.577619,0.76184 0.07549,0.38942 -0.04761,0.55366 -0.341585,0.45577 -0.25278,-0.0842 -0.512712,-0.427 -0.577618,-0.76185 -0.07549,-0.38941 0.04761,-0.55366 0.341584,-0.45576 z m -0.01993,3.15039 c 0.479253,-0.29619 0.794338,0.86688 0.354104,1.30712 -0.212821,0.21282 -0.398701,0.31777 -0.413075,0.23322 -0.01439,-0.0845 -0.07754,-0.42209 -0.140369,-0.75012 -0.06283,-0.32803 0.02689,-0.68363 0.19934,-0.79022 z m 0.351725,-35.67528 c 0.300856,-1.54648 0.515863,-2.68515 0.596608,-3.15966 0.02397,-0.1409 0.197307,-0.25619 0.385176,-0.25619 0.457162,0 0.438158,1.26634 -0.02328,1.55153 -0.20068,0.12402 -0.274885,0.46 -0.164901,0.74662 0.109985,0.28662 0.01938,0.73872 -0.201343,1.00468 -0.287244,0.3461 -0.296503,0.58837 -0.03257,0.85229 0.464708,0.46469 0.162438,1.31023 -0.468377,1.31023 -0.261706,0 -0.456593,-0.11528 -0.433074,-0.25618 0.0235,-0.14091 0.177321,-0.9479 0.341796,-1.79332 z m -0.043,45.77232 c 0.187873,0 0.341585,0.15371 0.341585,0.34158 0,0.18787 -0.153712,0.34159 -0.341585,0.34159 -0.18787,0 -0.341584,-0.15372 -0.341584,-0.34159 0,-0.18787 0.153714,-0.34158 0.341584,-0.34158 z m 0.36431,-51.42251 c 0.20037,-0.12384 0.446333,-0.14314 0.546586,-0.0429 0.24468,0.24468 -0.186449,0.9109 -0.589471,0.9109 -0.436536,0 -0.407398,-0.58972 0.04288,-0.86801 z m 0.228535,16.10191 c 0.366528,-0.36653 0.773493,-0.21498 0.773493,0.28803 0,0.27072 -0.137607,0.57726 -0.30579,0.68121 -0.351633,0.21732 -0.775621,-0.66132 -0.467703,-0.96924 z m 0.143101,2.60301 c 0.531881,0.1773 0.625025,0.94149 0.118015,0.96827 -0.187869,0.01 -0.394693,-0.23834 -0.459599,-0.55171 -0.07378,-0.35617 0.05427,-0.51233 0.341584,-0.41656 z m 0.118015,2.99974 c 0.313121,0 0.514228,0.16524 0.446906,0.3672 -0.06732,0.20196 -0.268425,0.3672 -0.446906,0.3672 -0.178476,0 -0.379583,-0.16524 -0.446905,-0.3672 -0.06732,-0.20196 0.133784,-0.3672 0.446905,-0.3672 z m -0.170792,2.73267 c 0.187873,0 0.341585,0.23057 0.341585,0.51238 0,0.28181 -0.153712,0.51238 -0.341585,0.51238 -0.18787,0 -0.341584,-0.23057 -0.341584,-0.51238 0,-0.28181 0.153714,-0.51238 0.341584,-0.51238 z m -0.113858,2.9604 c 0.393036,-0.39304 0.797027,-0.24875 0.797027,0.28466 0,0.28181 -0.230569,0.51237 -0.512377,0.51237 -0.533407,0 -0.677692,-0.40399 -0.28465,-0.79703 z m 0.199256,2.93193 c 0.234839,0.0783 0.426979,0.34728 0.426979,0.59778 0,0.25049 -0.19214,0.51949 -0.426979,0.59777 -0.254,0.0847 -0.426982,-0.15751 -0.426982,-0.59777 0,-0.44026 0.172982,-0.68244 0.426982,-0.59778 z m 0.135209,-20.00403 c 0.445459,-0.44546 0.804147,-0.23279 0.804147,0.47679 0,0.39752 -0.179045,0.65195 -0.405632,0.57642 -0.499172,-0.16639 -0.714984,-0.73675 -0.398515,-1.05321 z m 0.09737,2.68321 c 0.174891,-0.10809 0.414532,-0.0403 0.532536,0.15064 0.251935,0.40763 -0.06783,1.03032 -0.529093,1.03032 -0.41564,0 -0.418337,-0.92454 -0.0036,-1.18096 z m 0.02361,20.48048 c 0.187873,0.11612 0.341584,0.43261 0.341584,0.70333 0,0.27072 -0.153711,0.49222 -0.341584,0.49222 -0.18787,0 -0.341585,-0.3165 -0.341585,-0.70333 0,-0.38683 0.153715,-0.60833 0.341585,-0.49222 z m 0,2.90347 c 0.187873,0 0.341584,0.3165 0.341584,0.70333 0,0.38683 -0.153711,0.60833 -0.341584,0.49222 -0.18787,-0.11612 -0.341585,-0.43261 -0.341585,-0.70333 0,-0.27072 0.153715,-0.49222 0.341585,-0.49222 z m 0.170792,3.41585 c 0.351819,0 0.519358,0.22387 0.44735,0.59777 -0.13866,0.72 -0.744887,0.6746 -0.899375,-0.0674 -0.06444,-0.30947 0.123856,-0.53041 0.452025,-0.53041 z m 0.05692,-39.39608 c 0.393039,-0.39304 0.79703,-0.24876 0.79703,0.28465 0,0.28181 -0.230569,0.51238 -0.512377,0.51238 -0.533407,0 -0.677692,-0.40399 -0.284653,-0.79703 z m 0.31312,42.81192 c 0.603211,0 0.498164,0.73535 -0.135212,0.94647 -0.223096,0.0744 -0.405631,-0.10817 -0.405631,-0.40563 0,-0.29746 0.243379,-0.54084 0.540843,-0.54084 z m 0.271519,-39.69447 c 0.408324,-2.07728 0.975912,-3.01945 1.402847,-2.32866 0.133544,0.21608 0.0029,0.65785 -0.29009,0.98172 -0.317905,0.35128 -0.45314,0.89383 -0.335209,1.34481 0.120275,0.45992 0.04226,0.75597 -0.199212,0.75597 -0.271598,0 -0.323169,0.39303 -0.163352,1.24493 0.157064,0.83721 0.115753,1.17212 -0.12614,1.02262 -0.197828,-0.12226 -0.437538,-0.0292 -0.532686,0.20681 -0.301512,0.74786 -0.154094,-1.20377 0.243842,-3.2282 z m -0.129193,4.51127 c 0.187873,0 0.341584,0.23057 0.341584,0.51238 0,0.2818 -0.153711,0.51237 -0.341584,0.51237 -0.18787,0 -0.341585,-0.23057 -0.341585,-0.51237 0,-0.28181 0.153715,-0.51238 0.341585,-0.51238 z m 0.25619,38.39601 c 0.437818,0.45889 0.483519,0.66889 0.170792,0.78483 -0.508755,0.18862 -0.580726,2.15088 -0.07889,2.15088 0.20259,0 0.256672,0.36425 0.129384,0.87142 -0.157687,0.62826 -0.04396,0.99921 0.407576,1.32938 0.548871,0.40134 0.566142,0.53043 0.139702,1.04425 -0.42648,0.51388 -0.409045,0.64301 0.141134,1.04531 0.425503,0.31113 0.545675,0.65686 0.373039,1.07319 -0.572758,1.38122 -1.874328,-3.62825 -1.878532,-7.23007 -0.0018,-1.6259 0.02263,-1.66992 0.595796,-1.06919 z m -0.02995,-48.21656 c 0.168358,-0.41724 1.140112,-0.61646 1.140112,-0.23374 0,0.53683 -0.75901,1.50812 -1.041889,1.33329 -0.348905,-0.21563 -0.368117,-0.43069 -0.09822,-1.09955 z m 0.117771,25.01956 c 0.189199,-0.11692 0.438758,0.0344 0.554576,0.33617 0.250969,0.65401 -0.02558,1.0185 -0.53426,0.70413 -0.458947,-0.28365 -0.468315,-0.76341 -0.02033,-1.0403 z m -0.0026,5.80843 c 0.40303,-0.24908 1.024754,0.074 1.024754,0.53254 0,0.17678 -0.307426,0.32143 -0.683169,0.32143 -0.720428,0 -0.919214,-0.49697 -0.341585,-0.85397 z m 0,25.44805 c 0.187866,0 0.341577,0.23057 0.341577,0.51237 0,0.28181 -0.153711,0.51238 -0.341584,0.51238 -0.18787,0 -0.341585,-0.23057 -0.341585,-0.51238 0,-0.2818 0.153715,-0.51237 0.341585,-0.51237 z m 0.537415,-37.23271 c 0.318098,0 0.492352,0.23241 0.426983,0.56946 -0.166198,0.85696 -0.964405,0.97463 -0.964405,0.14217 0,-0.41958 0.22056,-0.71163 0.537422,-0.71163 z m -0.318983,2.96968 c 0.35613,-0.35613 0.806314,0.0949 0.806314,0.80791 0,0.36466 -0.230568,0.66301 -0.512376,0.66301 -0.506653,0 -0.716209,-1.04865 -0.293938,-1.47092 z m 0.08132,5.56993 c 0.672551,0 1.087995,0.92333 0.598306,1.32974 -0.371097,0.30798 -0.523369,0.274 -0.68738,-0.15341 -0.293843,-0.76574 -0.262753,-1.17633 0.08907,-1.17633 z m 0.04424,5.97624 c 0.417131,-0.2578 0.829925,0.67933 0.520076,1.18068 -0.121673,0.19687 -0.365862,0.35794 -0.542648,0.35794 -0.430786,0 -0.412156,-1.26994 0.02255,-1.53862 z m 0.05036,3.3209 c 0.252783,0.0842 0.512712,0.42701 0.577622,0.76185 0.07549,0.38942 -0.04761,0.55366 -0.341585,0.45577 -0.252779,-0.0842 -0.512712,-0.427 -0.577622,-0.76185 -0.07549,-0.38941 0.04761,-0.55366 0.341585,-0.45577 z m 0.01749,3.12728 c 0.381959,-0.23607 1.003471,0.53646 0.8422,1.04682 -0.05566,0.17613 -0.264155,0.37456 -0.463335,0.44095 -0.478247,0.15942 -0.827151,-1.21072 -0.378865,-1.48778 z m 0.30109,-26.61857 c 0.20424,-0.12623 0.529017,-0.0718 0.721721,0.12087 0.430954,0.43096 0.06699,1.09307 -0.600853,1.09307 -0.575097,0 -0.66263,-0.87911 -0.120868,-1.21394 z m 0.05563,2.66552 c 0.646344,0.21521 0.738231,1.2811 0.110441,1.2811 -0.316863,0 -0.537423,-0.29206 -0.537423,-0.71163 0,-0.41742 0.176538,-0.65286 0.426982,-0.56947 z m -0.0854,27.41231 c 0.403026,-0.24909 1.024754,0.074 1.024754,0.53254 0,0.17678 -0.307426,0.32142 -0.683169,0.32142 -0.720428,0 -0.919214,-0.49696 -0.341585,-0.85396 z m 0.371349,-32.46892 c 0.20424,-0.12623 0.505265,-0.0956 0.668945,0.0681 0.403984,0.40399 -0.184084,1.29311 -0.660517,0.99866 -0.482806,-0.29839 -0.48654,-0.77126 -0.0084,-1.06675 z m -0.152909,35.26781 c 0.318779,-0.31878 0.806314,0.0665 0.806314,0.63711 0,0.27072 -0.230569,0.49222 -0.512377,0.49222 -0.514504,0 -0.702185,-0.72108 -0.293937,-1.12933 z m -0.08947,11.71845 c 0.07093,0 0.320324,0.23057 0.554201,0.51238 0.348271,0.41964 0.32493,0.51237 -0.128967,0.51237 -0.30481,0 -0.554202,-0.23057 -0.554202,-0.51237 0,-0.28181 0.05803,-0.51238 0.128968,-0.51238 z m 0.714274,-57.38619 c 0.305579,0 0.424807,0.20027 0.30504,0.51238 -0.108141,0.2818 -0.333886,0.51237 -0.501658,0.51237 -0.167771,0 -0.305039,-0.23057 -0.305039,-0.51237 0,-0.28181 0.225744,-0.51238 0.501657,-0.51238 z m -0.154316,4.18071 c 0.295592,-2.02657 1.185297,-3.6379 1.864727,-3.37718 0.264119,0.10136 0.532959,-0.13071 0.644194,-0.55606 0.104997,-0.40151 0.286308,-0.63461 0.402917,-0.518 0.116608,0.11661 0.05513,0.50517 -0.136623,0.86346 -0.191754,0.35829 -0.53238,1.71645 -0.756944,3.01812 -0.407395,2.36143 -0.78962,3.01131 -1.597045,2.71539 -0.27024,-0.099 -0.426983,0.16047 -0.426983,0.70692 0,0.48862 0.148275,0.77176 0.341585,0.65229 0.187873,-0.11611 0.341584,0.10539 0.341584,0.49222 0,0.94167 -0.551526,0.89722 -0.809455,-0.0652 -0.241725,-0.90199 -0.221335,-1.50919 0.132043,-3.93192 z m 0.848205,1.17078 c 0.281808,0 0.512376,-0.28181 0.512376,-0.62624 0,-0.34443 -0.230568,-0.62624 -0.512376,-0.62624 -0.281805,0 -0.512377,0.28181 -0.512377,0.62624 0,0.34443 0.230572,0.62624 0.512377,0.62624 z m 0.341584,-2.15371 c 0.348515,0.13374 0.512377,-0.0184 0.512377,-0.47583 0,-0.67123 -0.366197,-0.87556 -0.797031,-0.44472 -0.368904,0.3689 -0.263346,0.71027 0.284654,0.92055 z m -1.142645,45.38173 c 0.531885,0.1773 0.625029,0.9415 0.118019,0.96828 -0.187869,0.01 -0.394693,-0.23835 -0.459603,-0.55172 -0.07377,-0.35617 0.05427,-0.51233 0.341584,-0.41656 z m 0.459604,2.87622 c 0.598376,0.22962 0.666346,0.85767 0.148832,1.37519 -0.256999,0.257 -0.18192,0.54601 0.25619,0.98617 0.599531,0.60234 0.623141,0.59942 0.724323,-0.0896 0.143433,-0.97676 1.432538,-1.31131 1.432538,-0.37178 0,0.47099 -0.161483,0.62577 -0.512376,0.49112 -0.348515,-0.13374 -0.512377,0.0184 -0.512377,0.47583 0,0.36985 -0.115283,0.65424 -0.256187,0.632 -0.755501,-0.11929 -1.028433,0.10836 -0.867541,0.72362 0.21993,0.841 1.111183,0.90677 1.157263,0.0854 0.01844,-0.32877 0.228095,0.0939 0.465885,0.93936 0.345498,1.22833 0.486005,1.41012 0.699412,0.90488 0.169,-0.4001 0.106385,-0.73154 -0.170537,-0.90269 -0.292065,-0.18051 -0.356527,-0.59342 -0.193838,-1.24164 0.250922,-0.99975 1.001799,-0.42778 0.839063,0.63914 -0.11204,0.73456 0.450141,3.3385 0.762442,3.53151 0.163191,0.10086 0.296714,0.46292 0.296714,0.80456 0,0.34166 0.230572,0.81254 0.512376,1.04642 0.666584,0.55322 0.653485,1.02476 -0.02846,1.02476 -0.297461,0 -0.47413,-0.19214 -0.392591,-0.42699 0.08154,-0.23483 -0.136225,-0.79356 -0.483913,-1.24161 -0.347687,-0.44804 -0.632163,-1.17818 -0.632163,-1.62252 0,-0.44435 -0.171637,-0.8079 -0.381423,-0.8079 -0.209782,0 -0.307655,0.2821 -0.217492,0.62688 0.130491,0.499 0.0056,0.5966 -0.612356,0.47847 -0.426957,-0.0816 -0.855673,-0.45197 -0.952702,-0.82301 -0.09703,-0.37104 -0.495248,-0.758 -0.884935,-0.8599 -0.389687,-0.10191 -0.708521,-0.33752 -0.708521,-0.52357 0,-0.18607 0.230572,-0.24982 0.512377,-0.14168 0.281808,0.10814 0.510555,0.16301 0.508325,0.12195 -0.0022,-0.0411 -0.230977,-0.9201 -0.508325,-1.9534 -0.679143,-2.53023 -0.679143,-4.14156 0,-3.88095 z m 1.573675,6.95521 c 0.167772,0 0.305039,-0.23057 0.305039,-0.51237 0,-0.28181 -0.225744,-0.51238 -0.501653,-0.51238 -0.305579,0 -0.424808,0.20027 -0.30504,0.51238 0.108138,0.2818 0.333886,0.51237 0.501654,0.51237 z m -1.24281,-60.80203 c 0.305578,0 0.424807,0.20026 0.305039,0.51237 -0.108141,0.28181 -0.333885,0.51238 -0.501657,0.51238 -0.167772,0 -0.30504,-0.23057 -0.30504,-0.51238 0,-0.2818 0.225745,-0.51237 0.501658,-0.51237 z m -0.164223,22.55129 c 0.262074,-0.42404 0.344113,-0.40841 0.540352,0.10298 0.273493,0.71271 -0.06822,1.17809 -0.527669,0.71864 -0.194027,-0.19403 -0.199059,-0.52006 -0.01268,-0.82162 z m 0.05692,2.45874 c 0.252784,0.0842 0.512712,0.427 0.577622,0.76184 0.07549,0.38942 -0.04761,0.55366 -0.341584,0.45577 -0.25278,-0.0842 -0.512712,-0.427 -0.577622,-0.76185 -0.07549,-0.38941 0.04761,-0.55365 0.341584,-0.45576 z m 0.132459,2.54032 c 0.583007,0.22373 0.511298,0.85364 -0.121185,1.06446 -0.22526,0.0751 -0.405632,-0.17646 -0.405632,-0.5657 0,-0.49124 0.157599,-0.64044 0.526817,-0.49876 z m -0.09983,3.61923 c 0.234839,0.0783 0.426979,0.34728 0.426979,0.59777 0,0.2505 -0.19214,0.5195 -0.426979,0.59777 -0.254001,0.0847 -0.426983,-0.1575 -0.426983,-0.59777 0,-0.44026 0.172982,-0.68243 0.426983,-0.59777 z m -0.206375,3.2237 c 0.445458,-0.44546 0.804146,-0.23278 0.804146,0.4768 0,0.39752 -0.179045,0.65195 -0.405631,0.57642 -0.499173,-0.16639 -0.714985,-0.73675 -0.398515,-1.05322 z m -0.0022,2.73485 c 0.364266,-0.36425 0.806333,0.10162 0.806333,0.84973 0,0.58779 -0.08509,0.63422 -0.512377,0.2796 -0.553276,-0.45918 -0.63812,-0.78515 -0.293937,-1.12933 z m 0.293956,3.17884 c 0.281808,0 0.512377,0.23056 0.512377,0.51237 0,0.28181 -0.230569,0.51238 -0.512377,0.51238 -0.281804,0 -0.512377,-0.23057 -0.512377,-0.51238 0,-0.28181 0.230573,-0.51237 0.512377,-0.51237 z m 0.341585,-20.83666 c 0.281808,0 0.512376,0.2215 0.512376,0.49222 0,0.72266 -0.578205,0.95718 -0.818166,0.33184 -0.292145,-0.76132 -0.268863,-0.82406 0.30579,-0.82406 z m 0.170792,-3.07426 c 0.187873,0 0.341584,0.30743 0.341584,0.68317 0,0.37574 -0.153711,0.68317 -0.341584,0.68317 -0.18787,0 -0.341585,-0.30743 -0.341585,-0.68317 0,-0.37574 0.153715,-0.68317 0.341585,-0.68317 z m 0,26.98518 c 0.187873,0 0.341584,0.23056 0.341584,0.51237 0,0.28181 -0.153711,0.51238 -0.341584,0.51238 -0.18787,0 -0.341585,-0.23057 -0.341585,-0.51238 0,-0.28181 0.153715,-0.51237 0.341585,-0.51237 z m 0.06405,3.15254 c 0.633376,0.21112 0.738424,0.94647 0.135213,0.94647 -0.297464,0 -0.540844,-0.24338 -0.540844,-0.54084 0,-0.29747 0.182536,-0.48 0.405631,-0.40563 z m 0.277538,-32.52881 c 0.187874,0 0.341585,0.23057 0.341585,0.51238 0,0.2818 -0.153711,0.51237 -0.341585,0.51237 -0.187869,0 -0.341584,-0.23057 -0.341584,-0.51237 0,-0.28181 0.153715,-0.51238 0.341584,-0.51238 z m 0.145747,35.52479 c 0.316866,0 0.537422,0.29205 0.537422,0.71163 0,0.83246 -0.798203,0.71479 -0.964401,-0.14217 -0.06537,-0.33706 0.108881,-0.56946 0.426979,-0.56946 z m -0.259608,3.30198 c 0.393039,-0.39304 0.79703,-0.24876 0.79703,0.28465 0,0.28181 -0.143021,0.51238 -0.317824,0.51238 -0.174808,0 -0.384444,0.34585 -0.46586,0.76856 -0.113092,0.58716 -0.159012,0.51998 -0.194552,-0.28465 -0.02558,-0.57927 0.05596,-1.15569 0.181206,-1.28094 z m 0.431843,-52.30477 c 0.174891,-0.10809 0.414532,-0.0403 0.532536,0.15063 0.251935,0.40764 -0.06783,1.03033 -0.529093,1.03033 -0.41564,0 -0.418336,-0.92454 -0.0036,-1.18096 z m 0.208339,8.08458 c 0.422115,-0.37301 0.498433,-0.30328 0.498433,0.45544 0,0.53976 -0.16125,0.84215 -0.405631,0.76069 -0.611274,-0.20376 -0.650895,-0.72296 -0.0928,-1.21613 z m -0.184736,2.31916 c 0.187873,0 0.341584,0.30743 0.341584,0.68317 0,0.37574 -0.153711,0.68317 -0.341584,0.68317 -0.18787,0 -0.341585,-0.30743 -0.341585,-0.68317 0,-0.37574 0.153715,-0.68317 0.341585,-0.68317 z m 0.245354,-12.21164 c 0.241798,-0.67408 0.779399,-0.49737 0.779399,0.25618 0,0.37575 -0.144638,0.68317 -0.321424,0.68317 -0.437243,0 -0.643312,-0.42267 -0.457975,-0.93935 z m -0.02474,24.74352 c 0.445459,-0.44546 0.804147,-0.23279 0.804147,0.47679 0,0.39752 -0.179045,0.65196 -0.405632,0.57643 -0.499172,-0.16639 -0.714984,-0.73675 -0.398515,-1.05322 z m 0.0071,2.72556 c 0.125248,-0.12525 0.432674,-0.22772 0.683169,-0.22772 0.604654,0 0.585966,0.90158 -0.02354,1.13546 -0.719222,0.27599 -1.192321,-0.37505 -0.659632,-0.90774 z m 0.19926,2.93177 c 0.646343,0.21521 0.73823,1.28111 0.11044,1.28111 -0.316863,0 -0.537423,-0.29206 -0.537423,-0.71164 0,-0.41741 0.176538,-0.65285 0.426983,-0.56947 z m -0.08299,3.15833 c 0.419651,-0.25936 0.829068,0.68072 0.516632,1.18625 -0.123568,0.19993 -0.367756,0.27508 -0.542647,0.16699 -0.421838,-0.26071 -0.405967,-1.08626 0.02602,-1.35324 z m -0.116274,3.81585 c 0.43306,-0.43306 0.797031,-0.22507 0.797031,0.45545 0,0.37954 -0.227723,0.68317 -0.512377,0.68317 -0.520032,0 -0.70068,-0.72259 -0.284654,-1.13862 z m 0.19926,2.59019 c 0.646343,0.21521 0.73823,1.2811 0.11044,1.2811 -0.316863,0 -0.537423,-0.29205 -0.537423,-0.71163 0,-0.41741 0.176538,-0.65286 0.426983,-0.56947 z M 44.772,39.906448 c 0.246859,0 0.303247,-0.40699 0.16125,-1.1639 -0.133737,-0.71287 -0.0764,-1.21121 0.147954,-1.286 0.201468,-0.0671 0.388069,-0.50411 0.414667,-0.971 0.05637,-0.98934 0.946035,-2.54955 0.946035,-1.65905 0,0.29558 -0.13713,0.98306 -0.30473,1.52774 -0.167604,0.54468 -0.498306,1.86887 -0.734893,2.94263 -0.236588,1.07377 -0.5606,1.87169 -0.720024,1.77316 -0.423827,-0.26194 -0.35429,-1.16358 0.08974,-1.16358 z m 0.09911,14.37449 c 0.240961,-0.19998 0.522532,-0.27917 0.625714,-0.17599 0.256817,0.25682 -0.09574,1.51439 -0.424552,1.51439 -0.495216,0 -0.641454,-0.97299 -0.201162,-1.3384 z m -0.1144,21.30704 c 0.508667,-0.31437 0.785229,0.0501 0.53426,0.70413 -0.115818,0.30182 -0.365377,0.45309 -0.554577,0.33617 -0.447998,-0.27688 -0.438631,-0.75665 0.02033,-1.0403 z m 0.155398,20.82577 c 0.531083,0.70198 0.446668,1.09425 -0.155398,0.72215 -0.200371,-0.12384 -0.359424,-0.48509 -0.353448,-0.80278 0.0095,-0.50713 0.07163,-0.49729 0.508846,0.0806 z m 0.139855,-45.04963 c 0.174891,-0.10809 0.414532,-0.0403 0.532536,0.15063 0.251935,0.40764 -0.06783,1.03033 -0.529093,1.03033 -0.41564,0 -0.418336,-0.92454 -0.0036,-1.18096 z m -0.09737,27.37622 c 0.445459,-0.44546 0.804147,-0.23279 0.804147,0.47679 0,0.39752 -0.179045,0.65195 -0.405632,0.57642 -0.499172,-0.16638 -0.714984,-0.73674 -0.398515,-1.05321 z m 0.348701,-32.79923 c 0.393039,-0.39304 0.79703,-0.24875 0.79703,0.28466 0,0.2818 -0.230569,0.51237 -0.512377,0.51237 -0.533407,0 -0.677692,-0.40399 -0.284653,-0.79703 z m 0.199259,2.59035 c 0.234839,0.0783 0.426979,0.34728 0.426979,0.59777 0,0.2505 -0.19214,0.5195 -0.426979,0.59778 -0.254,0.0847 -0.426982,-0.15751 -0.426982,-0.59778 0,-0.44026 0.172982,-0.68244 0.426982,-0.59777 z m -0.02135,32.78499 c 0.633372,0.21113 0.738423,0.94648 0.135209,0.94648 -0.297461,0 -0.54084,-0.24338 -0.54084,-0.54084 0,-0.29747 0.182531,-0.48 0.405631,-0.40564 z m 0.154396,-38.09873 c 0.318779,-0.31878 0.806314,0.0665 0.806314,0.63711 0,0.27072 -0.230568,0.49222 -0.512377,0.49222 -0.514504,0 -0.702184,-0.72108 -0.293937,-1.12933 z m 0.08735,40.60446 c 0.168184,-0.10395 0.398752,0.0533 0.512377,0.34936 0.327236,0.85277 0.245158,1.16565 -0.305794,1.16565 -0.549938,0 -0.713778,-1.20155 -0.206583,-1.51501 z m 0.400104,-50.93226 c 0.200371,-0.12383 0.44633,-0.14313 0.546579,-0.0429 0.244684,0.24468 -0.186445,0.91089 -0.589467,0.91089 -0.436532,0 -0.407398,-0.58971 0.04289,-0.86801 z m 0.437239,4.10452 c 0.939727,-3.75717 1.156032,-4.17597 1.742566,-3.37383 0.390459,0.53398 0.448793,0.50796 0.648952,-0.28954 0.167222,-0.66627 0.38299,-0.83362 0.900369,-0.69832 0.805764,0.21071 1.377542,-0.84021 0.688744,-1.26591 -0.273505,-0.16904 -0.344317,-0.51288 -0.186354,-0.90488 0.506868,-1.25781 0.933996,0.86822 0.541817,2.69689 -0.461261,2.15079 -0.451216,2.307 0.148373,2.307 0.377641,0 0.452506,-0.25667 0.298889,-1.02475 -0.132181,-0.6609 -0.06619,-1.02475 0.18584,-1.02475 0.238392,0 0.313085,-0.30961 0.191532,-0.79391 -0.250423,-0.99776 0.729318,-2.01813 1.074375,-1.11893 0.117177,0.30536 0.02102,0.78658 -0.213684,1.06938 -0.234701,0.2828 -0.456805,0.78041 -0.493558,1.1058 -0.330333,2.92448 -1.448606,4.70603 -1.581279,2.51918 -0.01989,-0.32808 -0.147659,-0.20647 -0.307536,0.29274 -0.304999,0.95236 -0.400916,2.15942 -0.115359,1.45173 0.26801,-0.66419 1.207144,-0.51501 1.075192,0.17079 -0.173798,0.90329 -1.63601,0.86245 -1.669968,-0.0466 -0.01483,-0.39706 -0.104818,-0.52883 -0.199966,-0.29282 -0.09515,0.23601 -0.33077,0.3316 -0.523602,0.21242 -0.43423,-0.26837 -0.946927,0.49395 -0.946927,1.40798 0,0.56753 0.05693,0.59644 0.336356,0.17079 0.292717,-0.44591 0.377743,-0.44802 0.655397,-0.0163 0.436227,0.67826 0.159224,1.01284 -0.660968,0.79836 -0.521501,-0.13637 -0.68283,-0.0103 -0.68283,0.53372 0,0.49281 0.157883,0.65171 0.512376,0.51567 0.567533,-0.21778 0.734245,0.72379 0.187932,1.06143 -0.498116,0.30786 -1.125659,-1.14628 -0.893636,-2.07073 0.151514,-0.60368 0.06562,-0.82214 -0.323261,-0.82214 -0.64728,0 -1.133791,1.10086 -0.569617,1.28892 0.221671,0.0739 0.403037,0.36492 0.403037,0.64672 0,0.84549 -0.848303,0.2987 -0.924111,-0.59565 -0.03858,-0.45519 0.276827,-2.21488 0.700909,-3.91042 z m 0.735578,1.54567 c 0.281932,0 0.512377,-0.30243 0.512377,-0.67244 0,-0.4574 -0.163862,-0.60957 -0.512377,-0.47583 -0.281804,0.10813 -0.512376,0.41074 -0.512376,0.67244 0,0.26171 0.230572,0.47583 0.512376,0.47583 z m 0.341585,-2.0495 c 0.318812,0 0.512377,-0.32261 0.512377,-0.85396 0,-0.97469 -0.554493,-1.15467 -0.789288,-0.25619 -0.268899,1.02896 -0.248648,1.11015 0.276911,1.11015 z m 1.53713,0.44056 c 0.49625,0.12977 0.683169,0.0105 0.683169,-0.436 0,-0.62367 -0.788581,-1.15162 -1.162149,-0.77806 -0.423397,0.4234 -0.179384,1.04189 0.47898,1.21406 z m 0.341584,-1.95329 c 0.42812,0 0.683169,-0.22773 0.683169,-0.60998 0,-0.69218 -0.877797,-0.83307 -1.140112,-0.18299 -0.290848,0.7208 -0.24926,0.79297 0.456943,0.79297 z m -3.371163,26.24999 c 0.471077,-0.29115 1.120798,0.37753 0.827676,0.85181 -0.126228,0.20424 -0.357703,0.37135 -0.514384,0.37135 -0.454393,0 -0.705584,-0.98071 -0.313292,-1.22316 z m 0.101065,6.34693 c 0.316867,0 0.537423,0.29205 0.537423,0.71163 0,0.83246 -0.798204,0.71479 -0.964402,-0.14217 -0.06537,-0.33706 0.108881,-0.56946 0.426979,-0.56946 z m -0.01986,3.11151 c 0.366936,-0.30453 0.558988,-0.31081 0.736201,-0.0241 0.344302,0.5571 -0.420497,1.24824 -0.876584,0.79215 -0.247023,-0.24702 -0.204037,-0.48223 0.140383,-0.76807 z m 0.02357,16.41157 c 0.313369,0.0649 0.561642,0.27173 0.551717,0.45961 -0.02678,0.50701 -0.790979,0.41386 -0.968275,-0.11802 -0.09577,-0.28732 0.06038,-0.41537 0.416558,-0.34159 z m 0.06894,-29.19203 c 0.318783,-0.31878 0.806318,0.0665 0.806318,0.63712 0,0.27072 -0.230569,0.49221 -0.512377,0.49221 -0.514504,0 -0.702188,-0.72108 -0.293941,-1.12933 z m 0.175922,6.66921 c 0.531885,0.17729 0.625029,0.94149 0.118019,0.96827 -0.187873,0.01 -0.394693,-0.23835 -0.459603,-0.55172 -0.07378,-0.35617 0.05427,-0.51232 0.341584,-0.41655 z m 0.118019,9.48984 c 0.281808,0 0.512377,0.23057 0.512377,0.51238 0,0.28181 -0.230569,0.51237 -0.512377,0.51237 -0.281804,0 -0.512376,-0.23056 -0.512376,-0.51237 0,-0.28181 0.230572,-0.51238 0.512376,-0.51238 z m -0.176235,14.94432 c 0.178757,0.42271 0.490646,0.76856 0.693083,0.76856 0.235651,0 0.287379,0.43012 0.143786,1.19555 -0.156736,0.83546 -0.0988,1.19555 0.192344,1.19555 0.261947,0 0.344747,0.2864 0.223019,0.7714 -0.195066,0.77721 0.258336,1.93635 0.617085,1.5776 0.106203,-0.10621 0.01042,-1.36821 -0.212882,-2.80445 -0.431133,-2.77314 -0.337005,-3.18605 0.639974,-2.80741 0.58202,0.22557 0.582752,0.2593 0.01472,0.67763 -0.328777,0.24214 -0.597775,0.69229 -0.597775,1.00035 0,0.65726 0.556359,0.75201 0.781732,0.13314 0.08552,-0.23484 0.260442,0.18787 0.38871,0.93936 0.128272,0.75149 0.383744,1.64159 0.567715,1.978 0.183971,0.33642 0.245322,0.75596 0.136335,0.9323 -0.10899,0.17635 -0.0058,0.66967 0.229206,1.09626 0.235054,0.42659 0.390201,1.02109 0.344769,1.3211 -0.04543,0.30002 0.151951,0.74014 0.438627,0.97807 0.286676,0.23791 0.431009,0.57856 0.320736,0.75698 -0.110272,0.17842 0.06896,0.62215 0.398286,0.98605 0.520801,0.575482 0.528838,0.661642 0.06172,0.661642 -0.532449,0 -0.909325,-0.827562 -2.177834,-4.782182 -0.331444,-1.03329 -0.656337,-1.62792 -0.721983,-1.32139 -0.06565,0.30653 0.20009,1.5056 0.590527,2.66459 0.688762,2.04455 0.679263,2.75581 -0.03681,2.75581 -0.190231,0 -0.296444,-0.4093 -0.23603,-0.90955 0.06167,-0.51064 -0.07753,-0.9726 -0.31737,-1.0533 -0.279738,-0.0941 -0.359274,0.0725 -0.230397,0.48258 0.187665,0.59719 0.178542,0.5978 -0.19621,0.013 -0.415706,-0.64867 -1.848837,-6.30201 -2.182523,-8.6095 -0.151783,-1.04962 -0.122245,-1.18819 0.127431,-0.59778 z m 2.05495,7.60025 c 0.187873,0 0.341584,-0.31649 0.341584,-0.70332 0,-0.38683 -0.153711,-0.60833 -0.341584,-0.49222 -0.18787,0.11611 -0.341585,0.43261 -0.341585,0.70333 0,0.27072 0.153715,0.49221 0.341585,0.49221 z m 0.341584,-3.24505 c 0.187874,0.11612 0.341585,-0.0963 0.341585,-0.47206 0,-0.37574 -0.153711,-0.77816 -0.341585,-0.89428 -0.187869,-0.11611 -0.341584,0.0963 -0.341584,0.47206 0,0.37575 0.153715,0.77817 0.341584,0.89428 z m -2.026778,-62.86559 c 0.506649,-0.31312 0.717087,-0.0186 0.461895,0.64637 -0.118044,0.30761 -0.352231,0.47426 -0.520414,0.37031 -0.413673,-0.25566 -0.385672,-0.74215 0.05852,-1.01668 z m 0.176531,22.04625 c 0.603211,0 0.498163,0.73535 -0.135213,0.94647 -0.223096,0.0744 -0.405631,-0.10817 -0.405631,-0.40563 0,-0.29746 0.243379,-0.54084 0.540844,-0.54084 z m -0.219419,2.73267 c 0.591784,0 0.701273,0.60123 0.187192,1.02788 -0.423259,0.35128 -0.508617,0.30044 -0.508617,-0.30288 0,-0.39875 0.144642,-0.725 0.321425,-0.725 z m 0.190952,21.86141 c 0.281808,0 0.512376,0.23057 0.512376,0.51238 0,0.2818 -0.230568,0.51237 -0.512376,0.51237 -0.281805,0 -0.512377,-0.23057 -0.512377,-0.51237 0,-0.28181 0.230572,-0.51238 0.512377,-0.51238 z m 0.193521,-30.24427 c 0.508667,-0.31438 0.785228,0.0501 0.53426,0.70413 -0.115819,0.30182 -0.365377,0.45309 -0.554577,0.33616 -0.447999,-0.27688 -0.438631,-0.75665 0.02033,-1.04029 z m -0.07966,2.91751 c 0.48129,0 0.702094,0.38476 0.509229,0.88736 -0.273556,0.71287 -0.793883,0.57904 -0.793883,-0.20419 0,-0.37574 0.128097,-0.68317 0.284654,-0.68317 z m 0.25619,30.40102 c 0.603211,0 0.498164,0.73535 -0.135212,0.94647 -0.223096,0.0744 -0.405632,-0.10817 -0.405632,-0.40563 0,-0.29746 0.24338,-0.54084 0.540844,-0.54084 z m 0.01917,2.96968 c 0.318779,-0.31878 0.806314,0.0665 0.806314,0.63712 0,0.27072 -0.230569,0.49221 -0.512377,0.49221 -0.514504,0 -0.702185,-0.72108 -0.293937,-1.12933 z m 0.464729,-54.89052 c 0.187874,0 0.341585,0.15371 0.341585,0.34158 0,0.18788 -0.153711,0.34159 -0.341585,0.34159 -0.187869,0 -0.341584,-0.15371 -0.341584,-0.34159 0,-0.18787 0.153715,-0.34158 0.341584,-0.34158 z m 0.05277,15.78741 c 0.531884,0.17729 0.625028,0.94149 0.118019,0.96827 -0.18787,0.01 -0.394694,-0.23835 -0.459604,-0.55171 -0.07377,-0.35618 0.05427,-0.51233 0.341585,-0.41656 z m -0.02303,15.79076 c 0.204244,-0.12623 0.505269,-0.0956 0.668949,0.0681 0.403984,0.40399 -0.184088,1.29311 -0.660521,0.99866 -0.482802,-0.29839 -0.48654,-0.77126 -0.0084,-1.06675 z m -0.150738,3.49829 c 0.48352,-0.48352 1.145731,-0.20992 1.145731,0.47337 0,0.47752 -0.185497,0.67224 -0.569468,0.59777 -0.628679,-0.12192 -0.942379,-0.70503 -0.576263,-1.07114 z m 0,6.14852 c 0.48352,-0.48352 1.145731,-0.20992 1.145731,0.47337 0,0.47752 -0.185497,0.67224 -0.569468,0.59777 -0.628679,-0.12192 -0.942379,-0.70503 -0.576263,-1.07114 z m 0.100818,16.5028 c 0.492213,0 0.833947,0.73143 0.456725,0.97754 -0.183771,0.1199 -0.421896,0.44857 -0.52917,0.73038 -0.107274,0.28181 -0.207181,0.0128 -0.22201,-0.59778 -0.01483,-0.61058 0.117673,-1.11014 0.294455,-1.11014 z m 0.226535,-54.06286 c 0.136987,-0.13699 0.484766,-0.24908 0.772834,-0.24908 0.384487,0 0.422712,0.10106 0.143749,0.38002 -0.209006,0.209 -0.556781,0.32109 -0.772833,0.24907 -0.216053,-0.072 -0.280741,-0.24302 -0.14375,-0.38001 z m 0.02135,24.57273 c 0.529567,-0.52957 1.138615,-0.17504 1.138615,0.66278 0,0.67169 -0.132768,0.83957 -0.540312,0.68317 -0.297173,-0.11403 -0.604599,-0.20733 -0.683169,-0.20733 -0.230229,0 -0.163902,-0.88985 0.08487,-1.13862 z m 0.19926,9.76346 c 0.646343,0.21521 0.73823,1.28111 0.11044,1.28111 -0.316863,0 -0.537423,-0.29206 -0.537423,-0.71164 0,-0.41741 0.176539,-0.65286 0.426983,-0.56947 z m 0.08539,6.06329 c 0.284654,0 0.512377,0.30363 0.512377,0.68317 0,0.37954 -0.227723,0.68317 -0.512377,0.68317 -0.284654,0 -0.512377,-0.30363 -0.512377,-0.68317 0,-0.37954 0.227723,-0.68317 0.512377,-0.68317 z m 0.181024,-21.69694 c 0.60246,-0.37234 1.234852,0.43463 0.836053,1.06685 -0.183647,0.29115 -0.487619,0.55592 -0.675492,0.58838 -0.488144,0.0843 -0.628815,-1.36583 -0.160561,-1.65523 z m 0.160561,2.90979 c 0.281808,0 0.512376,0.23057 0.512376,0.51238 0,0.28181 -0.230568,0.51237 -0.512376,0.51237 -0.281805,0 -0.512377,-0.23056 -0.512377,-0.51237 0,-0.28181 0.230572,-0.51238 0.512377,-0.51238 z m 0,21.86141 c 0.284653,0 0.512376,0.30363 0.512376,0.68317 0,0.37954 -0.227723,0.68317 -0.512376,0.68317 -0.284654,0 -0.512377,-0.30363 -0.512377,-0.68317 0,-0.37954 0.227723,-0.68317 0.512377,-0.68317 z m 0,3.41584 c 0.284653,0 0.512376,0.30363 0.512376,0.68317 0,0.37954 -0.227723,0.68317 -0.512376,0.68317 -0.284654,0 -0.512377,-0.30363 -0.512377,-0.68317 0,-0.37954 0.227723,-0.68317 0.512377,-0.68317 z m 0.287619,-49.48496 c 0.252124,-0.20924 0.548958,-0.28989 0.659632,-0.17922 0.33006,0.33006 -0.129296,1.15919 -0.642212,1.15919 -0.603684,0 -0.612331,-0.48624 -0.01742,-0.97997 z m 0.104418,52.61752 c 0.343679,0.0662 0.679026,0.40153 0.745211,0.74521 0.08691,0.45126 -0.05327,0.59144 -0.504532,0.50453 -0.343679,-0.0662 -0.679022,-0.40153 -0.745208,-0.74521 -0.08691,-0.45126 0.05327,-0.59144 0.504529,-0.50453 z m 0.184386,-36.87683 c 0.645381,-0.64538 0.960707,-0.49281 0.960707,0.46483 0,0.63695 -0.156819,0.8486 -0.569468,0.76857 -0.736762,-0.14289 -0.916168,-0.70847 -0.391239,-1.2334 z m 0.106746,2.66009 c 0.284653,0 0.512376,0.30363 0.512376,0.68316 0,0.37954 -0.227723,0.68317 -0.512376,0.68317 -0.284654,0 -0.512377,-0.30363 -0.512377,-0.68317 0,-0.37953 0.227723,-0.68316 0.512377,-0.68316 z m 0,37.2327 c 0.281808,0 0.512376,0.23057 0.512376,0.51238 0,0.28181 -0.230568,0.51238 -0.512376,0.51238 -0.281805,0 -0.512377,-0.23057 -0.512377,-0.51238 0,-0.28181 0.230572,-0.51238 0.512377,-0.51238 z m 0.390477,-57.87006 c 0.308694,-0.11846 0.631514,-0.14513 0.717371,-0.0593 0.271472,0.27147 -0.273646,0.88473 -0.786424,0.88473 -0.670026,0 -0.623196,-0.55982 0.06905,-0.82546 z m -0.189921,15.3244 c 0.20424,-0.12623 0.529017,-0.0718 0.721722,0.12087 0.430954,0.43095 0.06699,1.09307 -0.600854,1.09307 -0.575097,0 -0.66263,-0.87911 -0.120868,-1.21394 z m 0.16399,45.05147 c 0.704247,-0.27025 1.439614,0.43806 0.956436,0.92123 -0.391184,0.39119 -1.491775,0.096 -1.491775,-0.40004 0,-0.17367 0.240902,-0.40821 0.535339,-0.52119 z m 0.177595,-47.44256 c 0.20424,-0.12623 0.535896,-0.065 0.73701,0.13616 0.426261,0.42626 -0.303076,1.53515 -0.805477,1.22465 -0.420675,-0.25999 -0.379211,-1.08413 0.06847,-1.36081 z m 0.482612,50.06052 c 0.281932,0 0.512377,0.30244 0.512377,0.67245 0,0.45739 -0.163862,0.60957 -0.512377,0.47583 -0.281804,-0.10814 -0.512377,-0.41074 -0.512377,-0.67245 0,-0.26171 0.230573,-0.47583 0.512377,-0.47583 z m -0.149441,9.970002 c 0.246579,0.0822 0.51558,0.35118 0.597771,0.59777 0.0854,0.25619 -0.0427,0.38428 -0.298885,0.29889 -0.246582,-0.0822 -0.51558,-0.3512 -0.597775,-0.59778 -0.08539,-0.25619 0.0427,-0.38428 0.298889,-0.29888 z m 0.570787,-46.937492 c 0.07216,0.80342 0.07114,2.03312 -0.0022,2.73267 -0.0734,0.69956 -0.13244,0.0422 -0.131198,-1.46076 0.0011,-1.50297 0.06129,-2.07533 0.133453,-1.27191 z m -0.01829,39.08429 c 0.297822,-0.74334 1.121093,0.67539 0.905055,1.55967 -0.103867,0.42515 -0.0153,0.98209 0.196771,1.23765 0.212092,0.25555 0.28747,0.72042 0.167509,1.03303 -0.1234,0.32158 0.02594,0.83808 0.343928,1.18945 0.314057,0.34703 0.466923,0.86891 0.346466,1.18282 -0.124631,0.32478 -0.04634,0.56178 0.185575,0.56178 0.237287,0 0.317821,0.26253 0.197157,0.64271 -0.130957,0.412622 -0.0089,0.717582 0.340903,0.851822 0.402399,0.15441 0.496687,0.0533 0.36056,-0.38653 -0.451085,-1.457572 -1.194201,-5.568862 -1.373359,-7.598112 -0.120449,-1.36428 0.11345,-0.49605 0.606665,2.25194 0.44148,2.45974 1.0448,4.95758 1.340716,5.550752 0.496381,0.99502 0.493781,1.0781 -0.03356,1.07328 -1.339977,-0.0123 -2.531868,-2.311022 -2.990378,-5.767432 -0.128228,-0.96665 -0.366598,-1.84001 -0.529706,-1.94082 -0.32173,-0.19884 -0.345832,-0.73933 -0.0643,-1.44201 z m 0.337045,-64.05745 c 0.393039,-0.39304 0.79703,-0.24876 0.79703,0.28465 0,0.28181 -0.230568,0.51238 -0.512377,0.51238 -0.533407,0 -0.677692,-0.40399 -0.284653,-0.79703 z m 0.120263,19.58418 c 0.173875,-0.53051 0.207698,-0.0777 0.0893,1.19554 -0.104825,1.12723 -0.246097,2.11355 -0.313937,2.19184 -0.238803,0.27554 -0.05183,-2.54386 0.224637,-3.38738 z m 0.533914,-21.99566 c 0.771449,-0.29603 0.827775,-0.26777 0.607966,0.30504 -0.108142,0.28181 -0.410744,0.51238 -0.67245,0.51238 -0.647149,0 -0.602865,-0.56133 0.06448,-0.81742 z m 0.379568,29.944 c 0.08661,0.33235 0.08091,0.79349 -0.01264,1.02475 -0.09357,0.23126 -0.164427,-0.0407 -0.157467,-0.60427 0.007,-0.56362 0.08352,-0.75284 0.170125,-0.42048 z m -0.0015,32.44402 c 0.08592,0.32877 0.08592,0.86677 0,1.19554 -0.08592,0.32878 -0.156214,0.0598 -0.156214,-0.59777 0,-0.65755 0.0703,-0.92655 0.156214,-0.59777 z m 0.08598,12.894812 c 0.176786,0 0.416427,0.15371 0.532536,0.34159 0.116113,0.18787 -0.02853,0.34158 -0.321424,0.34158 -0.292896,0 -0.532537,-0.15371 -0.532537,-0.34158 0,-0.18788 0.144642,-0.34159 0.321425,-0.34159 z m 0.547271,-71.614862 c 0.289908,-0.11125 0.612724,-0.11665 0.717371,-0.012 0.29913,0.29913 -0.208248,0.91889 -0.752266,0.91889 -0.655448,0 -0.630381,-0.65159 0.03491,-0.90688 z m -0.29377,9.38244 c 0.09868,0.24658 0.08654,0.5412 -0.02696,0.65471 -0.113504,0.1135 -0.194238,-0.0883 -0.179405,-0.44833 0.0164,-0.39793 0.09733,-0.47887 0.206371,-0.20638 z m 0.01377,11.93411 c 0.07577,0.61058 0.07577,1.60971 0,2.2203 -0.07577,0.61058 -0.137767,0.11101 -0.137767,-1.11015 0,-1.22117 0.06199,-1.72073 0.137767,-1.11015 z m 0.446147,-4.01362 c 0.238432,-0.35805 0.273982,-0.0494 0.11803,1.02476 -0.277797,1.91333 -0.471325,2.18613 -0.46446,0.6547 0.0029,-0.6419 0.158772,-1.39765 0.34643,-1.67946 z m -0.01009,55.849062 c 0.187874,0.11612 0.341585,0.2789 0.341585,0.36175 0,0.0828 -0.153711,0.15063 -0.341585,0.15063 -0.187869,0 -0.341584,-0.16279 -0.341584,-0.36174 0,-0.19897 0.153715,-0.26675 0.341584,-0.15064 z M 53.44409,24.876738 c 0.281808,0 0.512377,0.0604 0.512377,0.13424 0,0.0738 -0.230569,0.22273 -0.512377,0.33087 -0.281804,0.10814 -0.512377,0.0477 -0.512377,-0.13425 0,-0.18198 0.230573,-0.33086 0.512377,-0.33086 z m 0.01472,2.50896 c 0.289912,-0.11125 0.612728,-0.11665 0.717375,-0.012 0.29913,0.29913 -0.208248,0.91889 -0.752266,0.91889 -0.655452,0 -0.630381,-0.65159 0.03491,-0.90688 z m 0.180648,4.6856 c 0.357587,-1.5852 0.823042,-3.04547 1.034347,-3.24505 0.282127,-0.26648 0.312387,-0.13602 0.113897,0.49108 -0.148653,0.46968 -0.612399,2.23738 -1.030542,3.92822 -0.928126,3.75308 -1.020753,2.82901 -0.117705,-1.17425 z m -0.47104,56.43204 c 0.08661,0.33235 0.08091,0.79349 -0.01264,1.02476 -0.09357,0.23126 -0.164427,-0.0407 -0.157468,-0.60428 0.007,-0.56361 0.08352,-0.75283 0.170125,-0.42048 z m 0.349983,-35.185 c 0.07852,0.51923 0.07642,1.28779 -0.0047,1.70792 -0.08108,0.42013 -0.145316,-0.005 -0.142751,-0.94405 0.0025,-0.93936 0.0689,-1.2831 0.147415,-0.76387 z m -0.01887,37.3988 c 0.09476,0.23484 0.09476,0.61912 0,0.85396 -0.09476,0.23484 -0.17229,0.0427 -0.17229,-0.42698 0,-0.46968 0.07753,-0.66182 0.17229,-0.42698 z m 0.449562,11.109472 c 0.379802,0.0286 0.69055,0.17302 0.69055,0.32091 0,0.37771 -0.942805,0.33625 -1.182767,-0.052 -0.109085,-0.1765 0.112415,-0.2975 0.492217,-0.26889 z m 0.206641,-76.266712 c 0.603208,0 0.498163,0.73535 -0.135213,0.94648 -0.223096,0.0744 -0.405631,-0.10817 -0.405631,-0.40563 0,-0.29747 0.243379,-0.54085 0.540844,-0.54085 z m -0.03625,22.0322 c 0.583328,-2.26938 0.592178,-1.65633 0.02711,1.87872 -0.348588,2.18078 -0.464359,2.52087 -0.465113,1.36634 -3.64e-4,-0.84543 0.196549,-2.3057 0.438001,-3.24506 z m -0.414291,44.91836 c 0.09259,0.0939 0.427379,1.47735 0.743976,3.07426 0.316603,1.59691 0.796403,3.56212 1.066223,4.36714 0.5655,1.687142 0.63566,2.414482 0.18667,1.935102 -0.48797,-0.521 -2.477784,-9.864412 -1.996869,-9.376502 z m 0.59287,-58.41094 c 0.367676,-1.14807 0.367676,0.0922 0,1.53713 -0.234219,0.92047 -0.261404,0.93785 -0.267121,0.17079 -0.0036,-0.46968 0.116704,-1.23825 0.267121,-1.70792 z m 0.08651,55.62814 c 0.172107,0.1721 0.255727,0.6765 0.185822,1.12087 -0.107559,0.68375 -0.155668,0.63564 -0.312921,-0.31291 -0.112532,-0.67881 -0.0624,-0.99747 0.127099,-0.80796 z m -0.02128,13.382782 c 0.317686,-0.006 0.678939,0.15308 0.802769,0.35345 0.3721,0.60207 -0.0202,0.68648 -0.722148,0.1554 -0.577917,-0.43722 -0.587754,-0.49931 -0.08062,-0.50885 z m 0.959519,-73.451522 c 0.82154,-2.50483 0.83112,-1.44421 0.0123,1.36634 -0.35576,1.22116 -0.642713,1.83601 -0.637677,1.36633 0.005,-0.46968 0.286437,-1.69938 0.625347,-2.73267 z m -0.44646,6.92358 c 0.0866,0.33236 0.0809,0.79349 -0.0126,1.02476 -0.0936,0.23126 -0.164431,-0.0407 -0.15747,-0.60428 0.007,-0.56361 0.0835,-0.75283 0.17013,-0.42048 z m -0.0105,19.63461 c 0.0948,0.23484 0.0948,0.61912 0,0.85396 -0.0948,0.23484 -0.17229,0.0427 -0.17229,-0.42698 0,-0.46968 0.07753,-0.66182 0.17229,-0.42698 z m 0.007,26.66494 c 0.0987,0.24658 0.0865,0.5412 -0.027,0.6547 -0.1135,0.11351 -0.194237,-0.0882 -0.179404,-0.44833 0.0164,-0.39792 0.09734,-0.47886 0.206374,-0.20637 z m 0.003,9.72031 c 0.0866,0.33235 0.0809,0.79349 -0.0126,1.02475 -0.0936,0.23126 -0.164427,-0.0407 -0.15746,-0.60427 0.007,-0.56362 0.0835,-0.75283 0.17012,-0.42048 z m 0.95205,-61.13834 c 0.44748,-1.73133 0.98952,-3.42218 1.20454,-3.75743 0.35642,-0.55573 0.37038,-0.54923 0.15808,0.0736 -0.12808,0.37575 -0.66644,2.37402 -1.19636,4.4406 -0.52992,2.06659 -0.96718,3.45 -0.97168,3.07426 -0.005,-0.37574 0.35794,-2.09971 0.80542,-3.83104 z m -0.60253,20.1417 c 0.0783,0.51665 0.0783,1.36207 0,1.87872 -0.0783,0.51664 -0.1423,0.0939 -0.1423,-0.93936 0,-1.0333 0.064,-1.45601 0.1423,-0.93936 z m -0.0113,33.32584 c 0.0987,0.24657 0.0865,0.54119 -0.027,0.6547 -0.11351,0.11351 -0.19424,-0.0883 -0.17941,-0.44833 0.0164,-0.39793 0.0973,-0.47887 0.20637,-0.20637 z m -0.007,3.73607 c 0.0948,0.23485 0.0948,0.61913 0,0.85396 -0.0948,0.23485 -0.17229,0.0427 -0.17229,-0.42697 0,-0.46968 0.0775,-0.66183 0.17229,-0.42699 z m 0,5.80694 c 0.0948,0.23484 0.0948,0.61912 0,0.85396 -0.0948,0.23484 -0.17229,0.0427 -0.17229,-0.42698 0,-0.46968 0.0775,-0.66182 0.17229,-0.42698 z m 0.34159,-56.01985 c 0.0948,0.23484 0.0948,0.61912 0,0.85396 -0.0948,0.23484 -0.17229,0.0427 -0.17229,-0.42698 0,-0.46968 0.0775,-0.66182 0.17229,-0.42698 z m 0.0148,9.90595 c 0.0814,0.42271 0.0814,1.11442 0,1.53713 -0.0814,0.42271 -0.14803,0.0769 -0.14803,-0.76857 0,-0.84542 0.0666,-1.19127 0.14803,-0.76856 z m -0.0148,42.01489 c 0.0948,0.23484 0.0948,0.61912 0,0.85396 -0.0948,0.23484 -0.17229,0.0427 -0.17229,-0.42698 0,-0.46968 0.0775,-0.66182 0.17229,-0.42698 z m 0,5.80693 c 0.0948,0.23484 0.0948,0.61912 0,0.85396 -0.0948,0.23485 -0.17229,0.0427 -0.17229,-0.42698 0,-0.46967 0.0775,-0.66182 0.17229,-0.42698 z m 0.3487,-59.07276 c 0.0987,0.24658 0.0865,0.5412 -0.027,0.6547 -0.11351,0.11351 -0.19424,-0.0882 -0.17941,-0.44833 0.0164,-0.39792 0.0973,-0.47886 0.20637,-0.20637 z m -0.007,9.20143 c 0.0948,0.23484 0.0948,0.61912 0,0.85396 -0.0948,0.23484 -0.17229,0.0427 -0.17229,-0.42698 0,-0.46968 0.0775,-0.66182 0.17229,-0.42698 z m 0,42.01489 c 0.0948,0.23484 0.0948,0.61912 0,0.85396 -0.0948,0.23484 -0.17229,0.0427 -0.17229,-0.42698 0,-0.46968 0.0775,-0.66182 0.17229,-0.42698 z m 0.0105,3.93472 c 0.0866,0.33235 0.0809,0.79349 -0.0126,1.02476 -0.0936,0.23126 -0.16442,-0.0407 -0.15746,-0.60428 0.007,-0.56361 0.0835,-0.75283 0.17012,-0.42048 z m 0.45979,7.25217 c 0.7269,2.258062 0.82783,2.879052 0.38583,2.374012 -0.37387,-0.42719 -1.08732,-2.961882 -1.06397,-3.779982 0.0101,-0.35394 0.31526,0.27874 0.67814,1.40597 z m -0.11351,-45.68692 c 0.0814,0.42271 0.0814,1.11442 0,1.53713 -0.0814,0.42271 -0.14803,0.0769 -0.14803,-0.76857 0,-0.84542 0.0666,-1.19127 0.14803,-0.76856 z m -0.0148,40.30697 c 0.0948,0.23484 0.0948,0.61912 0,0.85396 -0.0948,0.23484 -0.17228,0.0427 -0.17228,-0.42698 0,-0.46968 0.0775,-0.66182 0.17228,-0.42698 z m 0.34871,-60.09752 c 0.0987,0.24658 0.0865,0.5412 -0.027,0.6547 -0.1135,0.11351 -0.19424,-0.0882 -0.1794,-0.44833 0.0164,-0.39792 0.0973,-0.47886 0.20637,-0.20637 z m 0.10824,3.47989 c 0.2253,-0.70351 0.27856,-0.7336 0.30231,-0.17079 0.0158,0.37574 -0.12019,0.91374 -0.30231,1.19554 -0.38678,0.59851 -0.38678,0.18298 0,-1.02475 z m -0.0905,10.41833 c 0.0749,-0.75149 0.25406,-1.48679 0.39812,-1.63402 0.22938,-0.23441 0.15012,0.73454 -0.41307,5.04986 -0.17726,1.35827 -0.16424,-1.61824 0.0149,-3.41584 z m -0.0177,37.33945 c 0.0987,0.24658 0.0865,0.5412 -0.027,0.65471 -0.11351,0.1135 -0.19424,-0.0883 -0.17941,-0.44833 0.0164,-0.39793 0.0973,-0.47887 0.20637,-0.20638 z m 0.58239,13.21847 c 0.4128,1.692722 0.88182,3.306712 1.04227,3.586632 0.2283,0.39831 0.1978,0.42222 -0.14027,0.11 -0.42831,-0.39556 -1.73999,-5.277452 -1.68247,-6.261932 0.0165,-0.28181 0.36768,0.87258 0.78047,2.5653 z m -0.24081,-11.16896 c 0.0987,0.24658 0.0865,0.54119 -0.027,0.6547 -0.11351,0.11351 -0.19424,-0.0883 -0.17941,-0.44833 0.0164,-0.39793 0.0973,-0.47886 0.20638,-0.20637 z m -0.007,5.78558 c 0.0948,0.23484 0.0948,0.61912 0,0.85396 -0.0948,0.23485 -0.17229,0.0427 -0.17229,-0.42698 0,-0.46967 0.0775,-0.66182 0.17229,-0.42698 z m 0.3487,-62.14702 c 0.0987,0.24658 0.0865,0.5412 -0.027,0.6547 -0.1135,0.11351 -0.19424,-0.0882 -0.1794,-0.44833 0.0164,-0.39792 0.0973,-0.47886 0.20637,-0.20637 z m -0.0989,63.62722 c 0.0739,0.0783 0.52312,1.6026 0.99817,3.38738 0.47504,1.78478 0.97516,3.552482 1.11138,3.928222 0.17842,0.49219 0.14114,0.58594 -0.13335,0.33537 -0.20955,-0.1913 -0.77017,-1.84564 -1.24582,-3.676312 -0.82245,-3.16542 -1.0293,-4.29112 -0.73038,-3.97466 z m 0.45879,-65.78347 c 0.29719,-1.17777 0.78636,-2.32091 0.93118,-2.17609 0.0764,0.0764 -0.14766,0.98159 -0.49797,2.01148 -0.58199,1.71099 -0.84903,1.81245 -0.43321,0.16461 z m -0.0183,5.23051 c 0.0987,0.24658 0.0865,0.5412 -0.027,0.6547 -0.1135,0.11351 -0.19423,-0.0882 -0.17941,-0.44833 0.0164,-0.39792 0.0973,-0.47886 0.20638,-0.20637 z m 0,57.04461 c 0.0987,0.24657 0.0865,0.54119 -0.027,0.6547 -0.1135,0.11351 -0.19423,-0.0883 -0.17941,-0.44833 0.0164,-0.39793 0.0973,-0.47887 0.20638,-0.20637 z m 0.23372,1.11726 c 0.069,0.0783 0.2191,0.75718 0.33352,1.50867 0.145,0.95226 0.11425,1.1593 -0.10147,0.68317 -0.29709,-0.65575 -0.49079,-2.48532 -0.23205,-2.19184 z m 1.05712,-63.34377 c 0.70565,-1.99968 1.2217,-3.10677 1.20357,-2.58203 -0.0171,0.49519 -2.00044,5.85006 -2.01372,5.43688 -0.009,-0.2818 0.35552,-1.56649 0.81015,-2.85485 z m 0.3675,2.68406 c 0.45668,-1.50297 1.00469,-3.38595 1.21779,-4.18441 0.21311,-0.79845 0.51319,-1.45173 0.66684,-1.45173 0.15366,0 -0.17482,1.34368 -0.72994,2.98596 -0.55513,1.64228 -1.22456,3.9864 -1.48762,5.20916 -0.27856,1.29476 -0.4823,1.79525 -0.48785,1.19845 -0.005,-0.56361 0.3641,-2.25446 0.82078,-3.75743 z m -0.63359,63.98304 c 0.0987,0.24658 0.0865,0.5412 -0.027,0.65471 -0.1135,0.1135 -0.19424,-0.0882 -0.1794,-0.44833 0.0164,-0.39793 0.0973,-0.47887 0.20637,-0.20638 z m 0.31368,1.2596 c 0.64891,1.46304 2.00464,5.977722 1.79507,5.977722 -0.27845,0 -2.01942,-5.213502 -1.97354,-5.909962 0.0148,-0.22514 0.0951,-0.25564 0.17847,-0.0678 z M 30.611299,42.014458 c 0.310924,0.34357 0.806267,0.62467 1.100758,0.62467 0.390383,0 0.329772,-0.14406 -0.223733,-0.53175 -0.512231,-0.35878 -0.760876,-0.88655 -0.764403,-1.62252 -0.004,-0.82991 -0.08443,-0.96824 -0.336356,-0.57841 -0.484419,0.74959 -0.415173,1.40203 0.223734,2.10801 z m 0.43671,11.74021 c 0.447256,-0.27642 0.48411,-1.20959 0.04777,-1.20959 -0.174097,0 -0.376373,0.269 -0.449503,0.59777 -0.165808,0.74544 -0.06439,0.89989 0.401732,0.61182 z m 1.039026,1.67164 c 0.919746,2.41912 3.509837,0.77251 3.913668,-2.48806 0.124464,-1.00492 0.609777,-3.04105 1.078478,-4.52475 1.016074,-3.21645 0.534792,-4.47909 -1.456903,-3.82215 -2.125831,0.70118 -4.55616,8.14975 -3.535243,10.83496 z m 1.443108,-1.44658 c 0.225445,-0.22544 0.563616,-0.4099 0.751485,-0.4099 0.189772,0 0.159407,0.18218 -0.06832,0.4099 -0.568991,0.56899 -0.51272,0.97445 0.102475,0.73838 0.655576,-0.25157 0.66568,0.34877 0.01498,0.88881 -0.977307,0.8111 -1.723102,-0.70469 -0.800605,-1.62719 z m 1.80839,-8.60626 c 0.704978,-0.58508 1.296683,-0.0307 1.141073,1.06909 -0.0767,0.54213 -0.339081,0.80796 -0.797482,0.80796 -0.865051,0 -1.09456,-1.2538 -0.343591,-1.87705 z m 0.323431,1.02309 c 0.08285,0 0.245631,-0.15372 0.361745,-0.34159 0.116113,-0.18787 0.04833,-0.34158 -0.150633,-0.34158 -0.198957,0 -0.361743,0.15371 -0.361743,0.34158 0,0.18787 0.06778,0.34159 0.150631,0.34159 z m -2.541723,-3.07426 c 0.375743,0.20109 0.683169,0.28876 0.683169,0.19483 0,-0.0939 -0.307426,-0.33533 -0.683169,-0.53642 -0.375743,-0.20109 -0.683169,-0.28876 -0.683169,-0.19483 0,0.0939 0.307426,0.33533 0.683169,0.53642 z m 5.009636,42.74163 c 0.515419,0.42463 0.545329,0.37224 0.317413,-0.55595 -0.347462,-1.41506 -0.886451,-1.89742 -0.886451,-0.79331 0,0.48425 0.256066,1.09141 0.569038,1.34926 z m 20.065045,-4.14259 c 0.92922,7.13406 1.98062,13.79544 2.29133,14.51734 0.38315,0.89022 0.11087,-1.54044 -0.76375,-6.81781 -1.46213,-8.82247 -1.94407,-27.43423 -0.97331,-37.58817 0.61489,-6.43161 1.36618,-12.57258 1.73428,-14.17575 0.48625,-2.11778 0.86404,-3.90959 1.33237,-6.31932 0.48769,-2.50931 1.95541,-7.48951 2.61739,-8.88119 0.44403,-0.9335 0.44057,-0.96602 -0.0389,-0.36525 -1.93102,2.41971 -4.98159,14.17222 -5.85797,22.56824 -1.0078,9.655 -1.1132,11.95656 -1.00895,22.0322 0.0762,7.36452 0.28683,12.10728 0.66749,15.02971 z m 0.75121,-8.48384 c 0.18652,4.00806 0.32561,4.97323 0.69618,4.83103 0.27135,-0.10413 0.4631,0.0496 0.4631,0.37121 0,0.30191 -0.15921,0.54893 -0.35381,0.54893 -0.41272,0 -0.15236,6.17329 0.39618,9.39357 0.192,1.12723 0.41206,2.51064 0.48901,3.07426 0.30824,2.25756 0.48403,2.61089 1.18792,2.38748 0.38159,-0.12111 0.67179,-0.0557 0.67179,0.15138 0,0.34482 -0.49151,0.51168 -1.15205,0.39109 -0.16395,-0.0299 -0.18336,0.22086 -0.0431,0.55732 0.14022,0.33646 0.35797,1.07288 0.48388,1.6365 0.28516,1.2765 0.45251,0.93197 1.57624,-3.24506 0.42961,-1.5969 0.78707,-2.51918 0.79435,-2.0495 0.0128,0.82817 -1.26216,5.96258 -1.82371,7.34406 -0.19253,0.47364 -0.16753,0.57841 0.0815,0.34159 0.19755,-0.18787 0.75096,-1.57129 1.2298,-3.07426 0.98875,-3.10351 1.17187,-2.20798 0.26192,1.28094 -0.33075,1.26813 -0.55452,2.30569 -0.49727,2.30569 0.28416,0 1.28276,-2.85953 1.82809,-5.23479 0.33751,-1.47011 0.72369,-2.77667 0.85818,-2.90347 0.13449,-0.1268 0.15916,0.0769 0.0548,0.45261 -0.10434,0.37575 -0.37273,1.60545 -0.59643,2.73268 -0.2237,1.12723 -0.84655,3.19213 -1.38411,4.58867 -0.53757,1.396542 -0.90499,2.611582 -0.81649,2.700072 0.2699,0.2699 1.6244,-3.030342 2.43071,-5.922402 0.41904,-1.50297 0.77321,-2.50211 0.78706,-2.2203 0.0374,0.76 -1.67873,6.857982 -2.23021,7.924882 -0.56708,1.09707 -0.68036,2.48197 -0.13411,1.63948 0.53346,-0.82274 1.96827,-4.782142 2.51863,-6.950252 0.56692,-2.23329 1.0172,-3.02791 0.69296,-1.22287 -0.36226,2.01668 -1.54153,5.845692 -2.39413,7.773572 -0.92354,2.08829 -0.92831,2.10748 -0.5245,2.10748 0.71685,0 3.16194,-6.368762 3.97236,-10.346912 0.10682,-0.52432 0.31128,-0.88097 0.45435,-0.79255 0.89317,0.55201 -0.26729,7.023242 -1.81382,10.114702 -0.99446,1.98789 -1.32392,3.07426 -0.93233,3.07426 0.34431,0 0.99274,-1.38668 2.25186,-4.81565 0.71171,-1.93819 1.05463,-3.301332 2.12853,-8.461052 0.0926,-0.44488 0.23953,-0.73769 0.32652,-0.6507 0.33003,0.33002 -1.25464,7.070202 -2.45332,10.434852 -0.68773,1.93046 -1.16209,3.59827 -1.05412,3.70624 1.47136,1.47135 4.04827,-10.650842 4.83791,-22.758262 0.0919,-1.40904 0.32802,-4.63701 0.52473,-7.17328 0.62447,-8.05153 0.62034,-27.40392 -0.007,-34.84161 -0.15064,-1.78478 -0.37873,-4.55162 -0.50686,-6.14852 -0.47161,-5.87782 -2.21391,-13.10863 -3.64174,-15.11384 -1.13713,-1.59695 -1.25312,-1.04215 -0.23085,1.10415 0.53566,1.12463 0.9618,2.23905 0.94698,2.47649 -0.0148,0.23743 -0.36607,-0.26001 -0.78055,-1.10543 -1.19387,-2.43513 -1.62667,-3.14505 -1.80725,-2.96447 -0.0926,0.0926 0.0928,0.67319 0.41187,1.29026 0.81626,1.57847 2.54827,6.45265 2.52534,7.10674 -0.0105,0.29986 -0.44785,-0.60765 -0.97187,-2.01668 -1.1895,-3.19849 -2.34606,-5.80694 -2.57474,-5.80694 -0.53271,0 -1.10932,1.94435 -0.81039,2.73268 0.46713,1.23189 1.9884,7.59226 1.96079,8.19802 -0.0262,0.5754 -0.58295,-1.19399 -1.70042,-5.40428 -0.44116,-1.66217 -0.88073,-2.71609 -1.05862,-2.53819 -0.1779,0.1779 -0.10224,0.8767 0.18222,1.68295 0.62181,1.76239 1.66416,6.8499 1.50269,7.33431 -0.0677,0.20317 -0.56064,-1.53111 -1.09538,-3.85394 -0.6792,-2.95034 -1.04671,-4.01741 -1.21928,-3.54016 -0.13587,0.37574 -0.11882,0.9906 0.0379,1.36634 0.48973,1.1743 1.7104,6.39 1.53625,6.56414 -0.0911,0.0911 -0.32247,-0.42622 -0.51407,-1.14971 -0.19159,-0.72348 -0.541,-2.04555 -0.77646,-2.93794 -0.23546,-0.89239 -0.56639,-1.62253 -0.7354,-1.62253 -0.169,0 -0.19613,0.269 -0.0603,0.59777 0.23418,0.56677 1.51574,5.20743 1.52816,5.53367 0.0295,0.77387 -0.71033,-0.96633 -1.20158,-2.82643 -0.43624,-1.65176 -0.69985,-2.18069 -0.90454,-1.81492 -0.17706,0.31639 -0.0132,1.52114 0.42339,3.11244 0.39174,1.42793 0.63664,2.78264 0.54422,3.01047 -0.0992,0.24462 -0.17908,0.18256 -0.19501,-0.15156 -0.0193,-0.40538 -0.23362,-0.51175 -0.75587,-0.37518 -0.52872,0.13826 -0.68116,0.0591 -0.55507,-0.28817 0.0956,-0.26333 0.35993,-0.43596 0.58739,-0.38362 0.29516,0.0679 0.34478,-0.22549 0.17332,-1.02475 -0.37164,-1.7324 -0.63392,-1.91227 -0.8859,-0.60754 -0.12699,0.65755 -0.48487,2.42525 -0.79529,3.92822 -0.31042,1.50298 -0.48541,3.14458 -0.38886,3.64802 0.0965,0.50344 0.0147,0.96896 -0.18191,1.03449 -0.72755,0.24252 -1.58554,11.15996 -0.91203,11.60508 0.35068,0.23176 0.32673,0.38103 -0.11572,0.72125 -0.96044,0.73852 -1.27431,8.63475 -0.77215,19.42568 z m 0.87047,-17.06047 c 0.53189,0.1773 0.62503,0.94149 0.11802,0.96827 -0.18787,0.01 -0.39469,-0.23834 -0.4596,-0.55171 -0.0738,-0.35618 0.0543,-0.51233 0.34158,-0.41656 z m -0.0504,3.16904 c 0.1892,-0.11693 0.43876,0.0344 0.55458,0.33616 0.25097,0.65401 -0.0256,1.0185 -0.53426,0.70413 -0.45895,-0.28365 -0.46832,-0.76341 -0.0203,-1.04029 z m 0.16838,3.58813 c 0.35182,0 0.51936,0.22387 0.44735,0.59777 -0.13866,0.72 -0.74489,0.6746 -0.89937,-0.0674 -0.0644,-0.30947 0.12385,-0.53042 0.45202,-0.53042 z m 0,6.4901 c 0.28181,0 0.51238,0.23057 0.51238,0.51238 0,0.28181 -0.23057,0.51238 -0.51238,0.51238 -0.2818,0 -0.51238,-0.23057 -0.51238,-0.51238 0,-0.28181 0.23058,-0.51238 0.51238,-0.51238 z m 0.0285,5.80694 c 0.60321,0 0.49816,0.73535 -0.13521,0.94647 -0.2231,0.0744 -0.40563,-0.10817 -0.40563,-0.40563 0,-0.29746 0.24338,-0.54084 0.54084,-0.54084 z m 0.11872,-8.69582 c 0.17489,-0.10809 0.41453,-0.0403 0.53254,0.15064 0.25193,0.40763 -0.0678,1.03032 -0.52909,1.03032 -0.41565,0 -0.41834,-0.92454 -0.003,-1.18096 z m 0.0492,6.02861 c 0.20197,0.0673 0.36721,0.26843 0.36721,0.44691 0,0.17848 -0.16524,0.37959 -0.36721,0.4469 -0.20196,0.0673 -0.3672,-0.13378 -0.3672,-0.4469 0,-0.31312 0.16524,-0.51423 0.3672,-0.44691 z m 0.55298,-29.56488 c 0.38469,-0.38469 0.78774,-0.23429 0.78774,0.29394 0,0.28181 -0.14464,0.51238 -0.32142,0.51238 -0.43073,0 -0.73922,-0.53342 -0.46632,-0.80632 z m 0.10458,45.89547 c 0.18787,0 0.34159,0.15371 0.34159,0.34158 0,0.18787 -0.15372,0.34158 -0.34159,0.34158 -0.18787,0 -0.34158,-0.15371 -0.34158,-0.34158 0,-0.18787 0.15371,-0.34158 0.34158,-0.34158 z m 0.24536,-43.29584 c 0.17283,-0.48181 1.12098,-0.58942 1.12098,-0.12722 0,0.44751 -0.93987,1.14208 -1.11904,0.82698 -0.0853,-0.15003 -0.0862,-0.46492 -0.002,-0.69976 z m 0.0429,39.05902 c 0.19126,-0.11821 0.45062,-0.0485 0.57635,0.15496 0.32458,0.52518 -0.12002,0.86402 -0.55844,0.4256 -0.24532,-0.24532 -0.25121,-0.43638 -0.0179,-0.58056 z m 0.079,1.9112 c 0.20196,0.0673 0.3672,0.26842 0.3672,0.4469 0,0.17848 -0.16524,0.37959 -0.3672,0.44691 -0.20197,0.0673 -0.36721,-0.13379 -0.36721,-0.44691 0,-0.31312 0.16524,-0.51423 0.36721,-0.4469 z m 0.2021,-38.09521 c 0.39304,-0.39304 0.79703,-0.24876 0.79703,0.28465 0,0.28181 -0.23057,0.51238 -0.51238,0.51238 -0.5334,0 -0.67769,-0.40399 -0.28465,-0.79703 z m 0,31.08418 c 0.39304,-0.39304 0.79703,-0.24875 0.79703,0.28466 0,0.28181 -0.23057,0.51237 -0.51238,0.51237 -0.5334,0 -0.67769,-0.40399 -0.28465,-0.79703 z m 0.28465,2.50496 c 0.28181,0 0.51238,0.23056 0.51238,0.51237 0,0.28181 -0.23057,0.51238 -0.51238,0.51238 -0.2818,0 -0.51237,-0.23057 -0.51237,-0.51238 0,-0.28181 0.23057,-0.51237 0.51237,-0.51237 z m 0.34159,-30.74261 c 0.28181,0 0.51237,0.21413 0.51237,0.47584 0,0.2617 -0.23056,0.5643 -0.51237,0.67245 -0.34852,0.13373 -0.51238,-0.0184 -0.51238,-0.47584 0,-0.37001 0.23045,-0.67245 0.51238,-0.67245 z m -0.0854,3.15966 c 0.23484,0.0783 0.42698,0.34728 0.42698,0.59777 0,0.2505 -0.19214,0.5195 -0.42698,0.59778 -0.254,0.0847 -0.42698,-0.15751 -0.42698,-0.59778 0,-0.44026 0.17298,-0.68243 0.42698,-0.59777 z m 0.0641,3.38322 c 0.31337,0.0649 0.56164,0.27174 0.55172,0.45961 -0.0268,0.50701 -0.79098,0.41386 -0.96828,-0.11802 -0.0958,-0.28732 0.0604,-0.41537 0.41656,-0.34159 z m -0.12677,3.51982 c 0.50867,-0.31437 0.78523,0.0501 0.53426,0.70413 -0.11581,0.30182 -0.36537,0.45309 -0.55457,0.33616 -0.448,-0.27688 -0.43863,-0.75664 0.0203,-1.04029 z m -0.13362,6.8997 c 0.12361,-0.12361 0.42971,-0.22476 0.6802,-0.22476 0.50886,0 0.62353,0.88056 0.15257,1.17163 -0.37614,0.23246 -1.14168,-0.63796 -0.83277,-0.94687 z m 0.2393,2.98929 c 0.75415,-0.28939 1.13916,0.0956 0.61739,0.6174 -0.30808,0.30807 -0.49903,0.30938 -0.80291,0.006 -0.30389,-0.30388 -0.25976,-0.45202 0.18552,-0.6229 z m -0.0644,5.40385 c 0.63338,0.21112 0.73843,0.94647 0.13521,0.94647 -0.29746,0 -0.54084,-0.24338 -0.54084,-0.54084 0,-0.29747 0.18254,-0.48 0.40563,-0.40563 z m 0.46277,-11.81014 c 0.58301,0.22372 0.5113,0.85363 -0.12118,1.06446 -0.22526,0.0751 -0.40564,-0.17647 -0.40564,-0.56571 0,-0.49123 0.1576,-0.64044 0.52682,-0.49875 z m -0.13246,9.0737 c 0.53189,0.17729 0.62503,0.9415 0.11802,0.96828 -0.18787,0.01 -0.39469,-0.23835 -0.4596,-0.55172 -0.0738,-0.35617 0.0543,-0.51233 0.34158,-0.41656 z m -0.17592,17.92488 c 0.2729,-0.2729 0.80632,0.0356 0.80632,0.46632 0,0.17678 -0.23057,0.32143 -0.51238,0.32143 -0.52823,0 -0.67862,-0.40306 -0.29394,-0.78775 z m 0.60706,-1.94493 c 0.29746,0 0.54084,0.24338 0.54084,0.54084 0,0.29746 -0.18253,0.48 -0.40563,0.40563 -0.63337,-0.21112 -0.73842,-0.94647 -0.13521,-0.94647 z m 0.60489,-53.2089 c 0.63338,0.21113 0.73842,0.94648 0.13521,0.94648 -0.29746,0 -0.54084,-0.24338 -0.54084,-0.54085 0,-0.29746 0.18253,-0.47999 0.40563,-0.40563 z m 0.10674,2.6544 c 0.28181,0 0.51238,0.15371 0.51238,0.34158 0,0.18787 -0.23057,0.34159 -0.51238,0.34159 -0.2818,0 -0.51237,-0.15372 -0.51237,-0.34159 0,-0.18787 0.23057,-0.34158 0.51237,-0.34158 z m -0.16698,2.38493 c 0.24635,-0.39861 0.39568,-0.41416 0.73345,-0.0764 0.50943,0.50942 -0.0258,1.2054 -0.63668,0.82786 -0.2622,-0.16204 -0.29648,-0.42834 -0.0968,-0.75148 z m 0.33778,41.67946 c 0.44026,0 0.68244,0.17299 0.59777,0.42698 -0.0783,0.23485 -0.34728,0.42699 -0.59777,0.42699 -0.2505,0 -0.5195,-0.19214 -0.59777,-0.42699 -0.0847,-0.25399 0.1575,-0.42698 0.59777,-0.42698 z m -0.1708,2.04951 c 0.28181,0 0.51238,0.23057 0.51238,0.51238 0,0.28181 -0.23057,0.51237 -0.51238,0.51237 -0.2818,0 -0.51237,-0.23056 -0.51237,-0.51237 0,-0.28181 0.23057,-0.51238 0.51237,-0.51238 z m -0.17079,2.39109 c 0.18788,0 0.34159,0.23057 0.34159,0.51238 0,0.28181 -0.15371,0.51238 -0.34159,0.51238 -0.18787,0 -0.34158,-0.23057 -0.34158,-0.51238 0,-0.28181 0.15371,-0.51238 0.34158,-0.51238 z m 0.51238,-43.72281 c 0.28181,0 0.51238,0.22575 0.51238,0.50166 0,0.30558 -0.20027,0.4248 -0.51238,0.30504 -0.28181,-0.10814 -0.51238,-0.33389 -0.51238,-0.50166 0,-0.16777 0.23057,-0.30504 0.51238,-0.30504 z m -0.29177,36.78438 c 0.44546,-0.44546 0.80415,-0.23279 0.80415,0.47679 0,0.39752 -0.17905,0.65195 -0.40564,0.57642 -0.49917,-0.16638 -0.71498,-0.73674 -0.39851,-1.05321 z m 0.54796,-33.96631 c 0.23484,0.0783 0.42698,0.34728 0.42698,0.59778 0,0.25049 -0.19214,0.51949 -0.42698,0.59777 -0.254,0.0847 -0.42698,-0.15751 -0.42698,-0.59777 0,-0.44027 0.17298,-0.68244 0.42698,-0.59778 z m -0.18997,6.28156 c 0.40824,-0.40824 1.12933,-0.22056 1.12933,0.29394 0,0.28181 -0.2215,0.51238 -0.49222,0.51238 -0.57067,0 -0.95589,-0.48754 -0.63711,-0.80632 z m 0.0355,2.72773 c 0.53171,-0.32861 1.29299,0.40717 0.86456,0.8356 -0.21691,0.2169 -0.56147,0.29108 -0.76571,0.16485 -0.43645,-0.26973 -0.48506,-0.76176 -0.0989,-1.00045 z m 0.19309,6.99862 c 0.5329,-0.44227 0.90075,-0.16412 0.90075,0.68111 0,0.89556 -0.59678,1.10449 -1.00044,0.35025 -0.2572,-0.48058 -0.23044,-0.75738 0.0997,-1.03136 z m -0.23716,12.34147 c 0.24619,-0.61598 0.79632,-0.16795 0.79632,0.64853 0,0.38196 -0.18157,0.63095 -0.40563,0.55626 -0.48105,-0.16035 -0.62755,-0.61213 -0.39069,-1.20479 z m 0.28394,2.64941 c 0.35182,0 0.51936,0.22388 0.44735,0.59777 -0.13866,0.72001 -0.74488,0.67461 -0.89937,-0.0674 -0.0644,-0.30947 0.12385,-0.53042 0.45202,-0.53042 z m 0.0476,-28.1145 c 0.31878,-0.31878 0.80632,0.0665 0.80632,0.63711 0,0.27072 -0.23057,0.49222 -0.51238,0.49222 -0.51451,0 -0.70219,-0.72108 -0.29394,-1.12933 z m 0.29394,9.66894 c 0.35182,0 0.51936,0.22388 0.44735,0.59778 -0.13866,0.72 -0.74489,0.6746 -0.89938,-0.0674 -0.0644,-0.30947 0.12386,-0.53042 0.45203,-0.53042 z m -0.28466,7.05941 c 0.43306,-0.43305 0.79704,-0.22507 0.79704,0.45545 0,0.37954 -0.22773,0.68317 -0.51238,0.68317 -0.52003,0 -0.70068,-0.72259 -0.28466,-1.13862 z m 0.11387,2.67575 c 0.19373,-0.11973 0.34158,0.16725 0.34158,0.66301 0,0.48076 -0.15371,0.87412 -0.34158,0.87412 -0.18787,0 -0.34159,-0.29835 -0.34159,-0.66301 0,-0.36465 0.15372,-0.75801 0.34159,-0.87412 z m 0.17079,3.24505 c 0.28181,0 0.51238,0.23057 0.51238,0.51238 0,0.28181 -0.23057,0.51238 -0.51238,0.51238 -0.28181,0 -0.51238,-0.23057 -0.51238,-0.51238 0,-0.28181 0.23057,-0.51238 0.51238,-0.51238 z m 0.85396,6.49011 0.23023,-1.87872 0.0304,1.70792 c 0.0167,0.93936 -0.0927,2.39964 -0.24315,3.24506 l -0.27351,1.53713 0.0129,-1.36634 c 0.007,-0.75149 0.11653,-2.21176 0.24316,-3.24505 z m 0.47125,-56.70303 c 0.45546,0 2.95615,7.13565 2.92953,8.35935 -0.008,0.38095 -0.6079,-1.07506 -1.33247,-3.23558 -0.72457,-2.16052 -1.42595,-4.19722 -1.55861,-4.52599 -0.13266,-0.32878 -0.14997,-0.59778 -0.0384,-0.59778 z m 0.10705,53.37908 c 0.0866,0.33235 0.0809,0.79349 -0.0126,1.02475 -0.0936,0.23126 -0.16443,-0.0407 -0.15747,-0.60427 0.007,-0.56362 0.0835,-0.75283 0.17012,-0.42048 z m 0.6736,3.15315 c 0.38728,-2.19997 0.40891,-2.24092 0.27065,-0.51237 -0.0827,1.03329 -0.15161,2.53199 -0.15324,3.33044 -0.002,0.79846 -0.15912,1.45174 -0.34998,1.45174 -0.40299,0 -0.35098,-0.95487 0.23257,-4.26981 z m 0.68545,1.02476 c 0.30427,-2.45377 0.87454,-5.67079 0.98557,-5.55976 0.16877,0.16877 -0.82608,8.52976 -1.04045,8.74412 -0.18528,0.18529 -0.1566,-1.47884 0.0549,-3.18436 z m 0.86596,1.87871 c 0.16092,-0.84542 0.41992,-2.9974 0.57556,-4.78218 0.2616,-3.00004 0.28578,-3.07742 0.32021,-1.02475 0.0381,2.26823 -0.48048,7.14279 -0.79308,7.45539 -0.35527,0.35527 -0.38704,-0.15465 -0.10269,-1.64846 z m 1.13166,0.27791 c 0.0976,-0.0976 0.31895,-2.0831 0.49179,-4.41213 l 0.31425,-4.2346 -0.14559,4.65455 c -0.13212,4.22385 -0.75496,8.20876 -0.81634,5.22294 -0.0119,-0.57927 0.0582,-1.13311 0.15589,-1.23076 z m 0.29697,-56.63935 c 0.18536,0 1.58042,4.10934 1.55902,4.59232 -0.0189,0.42716 -1.16311,-2.43341 -1.48279,-3.70711 -0.1222,-0.48686 -0.1565,-0.88521 -0.0762,-0.88521 z m 0.89183,51.75005 0.20211,-4.4406 0.0357,4.95298 c 0.0196,2.72413 -0.0874,5.33726 -0.2378,5.80693 -0.31858,0.99476 -0.31858,0.68033 0,-6.31931 z m 1.04855,2.04951 c 0.18198,-1.20439 0.22377,-0.66616 0.14176,1.82562 -0.064,1.94344 -0.20424,3.62148 -0.31172,3.72896 -0.26367,0.26367 -0.15055,-3.43334 0.16996,-5.55458 z m 0.5629,-4.86288 c 0.0785,0.51923 0.0764,1.28779 -0.005,1.70792 -0.0811,0.42013 -0.14532,-0.005 -0.14275,-0.94405 0.003,-0.93936 0.0689,-1.2831 0.14741,-0.76387 z m -11.5174,31.776232 c 0.37574,0.0983 0.68317,0.1216 0.68317,0.0519 0,-0.0697 -0.30743,-0.29132 -0.68317,-0.49241 -0.37743,-0.202 -0.68317,-0.2252 -0.68317,-0.0519 0,0.17257 0.30742,0.39415 0.68317,0.49241 z m 0.54796,-7.706342 c 0.1135,-0.11351 0.12564,-0.40813 0.027,-0.6547 -0.10904,-0.2725 -0.18998,-0.19156 -0.20638,0.20637 -0.0148,0.36008 0.0659,0.56184 0.17941,0.44833 z m 0.86916,2.825192 c 0.19209,0.32787 0.2204,0.14337 0.0786,-0.51238 -0.12187,-0.56362 -0.35667,-1.255322 -0.52177,-1.537132 -0.19209,-0.32787 -0.22039,-0.14337 -0.0786,0.51238 0.12187,0.563612 0.35667,1.255322 0.52176,1.537132 z m 0.97397,-0.51238 c 0.18787,-0.11611 0.33923,-0.39418 0.33635,-0.61793 -0.003,-0.24444 -0.13739,-0.20231 -0.33635,0.10555 -0.42409,0.65623 -0.42409,0.77448 0,0.51238 z m 1.73371,6.16445 c 0.20472,0.12653 0.13005,-0.23825 -0.16594,-0.81063 -0.29599,-0.57238 -0.70566,-1.14422 -0.91038,-1.27074 -0.20473,-0.12653 -0.13006,0.23826 0.16593,0.81064 0.29599,0.57238 0.70566,1.14421 0.91039,1.27073 z m 0.81146,-86.037402 c 0.26067,-0.34394 0.75535,-0.85198 1.09929,-1.12899 0.58258,-0.4692 0.57379,-0.47871 -0.12859,-0.13903 -0.41467,0.20054 -0.90956,0.63173 -1.09976,0.9582 -0.49965,0.8576 -0.4239,1.03944 0.12906,0.30982 z m -0.17364,85.326222 c 0.57427,0.35491 3.4381,-6.826052 3.43235,-8.606512 -0.002,-0.56929 -0.45276,0.35862 -1.1328,2.331082 -0.62136,1.80227 -1.45267,3.80053 -1.84736,4.44059 -0.83521,1.35445 -0.88732,1.56591 -0.45219,1.83484 z m 0.39262,5.67442 c 0.60055,2.40914 3.64242,2.84154 4.17088,0.59288 0.19347,-0.8232 0.16604,-1.47413 -0.0791,-1.87871 -0.31682,-0.5228 -0.34336,-0.47793 -0.17064,0.28846 0.67894,3.01259 -2.85306,3.53908 -3.61182,0.53839 -0.48193,-1.9059 -1.08847,-3.24474 -0.8098,-1.78751 0.10778,0.56361 0.33302,1.57453 0.50052,2.24649 z m 1.3429,0.15428 c 0.87289,1.05177 1.80926,0.62587 1.59031,-0.72333 -0.24921,-1.53575 -0.77938,-2.18982 -1.77499,-2.18982 -0.8518,0 -0.73757,1.80191 0.18468,2.91315 z m -0.19899,-3.59632 c 0.0828,0 0.24563,-0.15371 0.36174,-0.34158 0.11612,-0.18788 0.0483,-0.34159 -0.15063,-0.34159 -0.19896,0 -0.36174,0.15371 -0.36174,0.34159 0,0.18787 0.0678,0.34158 0.15063,0.34158 z m 1.48108,-90.779152 c 1.26157,-1.50985 2.34558,-1.48182 2.99711,0.0775 0.73105,1.74965 0.61618,2.42212 -0.6152,3.60148 l -1.11015,1.06326 1.27706,-0.78976 c 1.89731,-1.17332 2.02087,-3.14963 0.32166,-5.14495 -0.87998,-1.03332 -2.47896,-0.43488 -3.42255,1.28094 -0.61649,1.12103 -0.43412,1.0918 0.55207,-0.0885 z m 1.10096,3.32377 c 1.6156,-0.0514 2.13633,-3.04476 0.58175,-3.34415 -1.13414,-0.21841 -1.94,1.26165 -1.29981,2.3873 0.301,0.52926 0.62413,0.95984 0.71806,0.95685 z m -0.45911,75.25024 c 0.0936,-0.23127 0.0993,-0.69241 0.0127,-1.02476 -0.0866,-0.33235 -0.16317,-0.14313 -0.17013,0.42048 -0.007,0.56362 0.0639,0.83554 0.15747,0.60428 z" id="path4177" inkscape:connector-curvature="0"/>
</svg>