<?xml version="1.0" encoding="UTF-8" standalone="no"?>
<!-- Created with Inkscape (http://www.inkscape.org/) -->
<svg xmlns:dc="http://purl.org/dc/elements/1.1/" xmlns:cc="http://creativecommons.org/ns#" xmlns:rdf="http://www.w3.org/1999/02/22-rdf-syntax-ns#" xmlns:svg="http://www.w3.org/2000/svg" xmlns="http://www.w3.org/2000/svg" xmlns:sodipodi="http://sodipodi.sourceforge.net/DTD/sodipodi-0.dtd" xmlns:inkscape="http://www.inkscape.org/namespaces/inkscape" id="svg4167" version="1.1" inkscape:version="0.91 r13725" width="274.6875" height="135" viewBox="0 0 274.6875 135" sodipodi:docname="Colander.svg">
  <metadata id="metadata4173">
    <rdf:RDF>
      <cc:Work rdf:about="">
        <dc:format>image/svg+xml</dc:format>
        <dc:type rdf:resource="http://purl.org/dc/dcmitype/StillImage"/>
        <dc:title/>
      </cc:Work>
    </rdf:RDF>
  </metadata>
  <defs id="defs4171"/>
  <sodipodi:namedview pagecolor="#ffffff" bordercolor="#666666" borderopacity="1" objecttolerance="10" gridtolerance="10" guidetolerance="10" inkscape:pageopacity="0" inkscape:pageshadow="2" inkscape:window-width="1600" inkscape:window-height="837" id="namedview4169" showgrid="false" inkscape:zoom="4.0191126" inkscape:cx="137.34375" inkscape:cy="67.5" inkscape:window-x="-8" inkscape:window-y="-8" inkscape:window-maximized="1" inkscape:current-layer="svg4167"/>
  <path style="fill:#000000" d="m 80.395404,133.26933 c -4.725482,-2.08703 -4.540392,-4.17014 0.490072,-5.51559 3.53182,-0.94461 9.897592,-11.29529 7.956024,-12.9364 -2.193747,-1.85427 -4.669935,-1.27237 -5.651504,1.3281 -1.251792,3.31638 -2.316356,3.88092 -8.493629,4.50424 -5.553212,0.56033 -9.071367,-0.23702 -9.071367,-2.05593 0,-1.49143 3.992962,-2.88366 5.535771,-1.93014 0.87426,0.54031 5.328939,-6.7364 4.581482,-7.48386 -0.179327,-0.17933 -3.763991,-2.56422 -7.96592,-5.29977 C 43.368187,87.989727 25.126304,64.394939 15.970974,36.872834 12.188175,25.501249 9.6420234,20.931103 5.4244711,17.942675 -2.0128943,12.672784 -1.091523,6.3436084 7.5465146,3.3657218 14.267621,1.04868 17.477629,1.7820582 19.257221,6.0412226 20.969228,10.138631 21.671153,10.296084 29.005788,8.2279891 72.067432,-3.913801 202.61224,-2.0452534 245.7647,11.330558 l 9.04593,2.803939 3.50676,-2.379748 c 3.83835,-2.6047711 9.03383,-3.1192586 13.04475,-1.291766 7.18198,3.272329 -0.5165,15.787017 -9.71147,15.787017 -3.00243,0 -6.5457,4.439735 -8.69786,10.89845 -9.99965,30.009374 -31.8388,55.936074 -60.43897,71.75109 l -5.76741,3.1892 1.26569,2.78375 c 2.19947,4.8375 3.6953,6.06501 7.39081,6.06501 5.36796,0 4.549,3.95204 -0.87168,4.20647 -6.67154,0.31315 -7.75107,-0.28417 -10.31726,-5.70865 -2.66547,-5.63431 -2.64066,-5.62202 -7.36205,-3.6493 -16.28535,6.80445 -43.9152,9.21778 -63.95625,5.58626 -11.29019,-2.04585 -10.94661,-2.15146 -13.070915,4.01835 -2.894306,8.40619 -10.891957,11.64929 -19.429371,7.8787 z m 10.960641,-1.92772 c 1.690046,-0.66137 1.655432,-0.7594 -0.46875,-1.32755 -5.081707,-1.3592 -10.605213,-0.35698 -8.674308,1.57393 0.806335,0.80633 6.870576,0.64292 9.143058,-0.24638 z m 6.841886,-8.92493 c 2.194829,-6.76914 2.159349,-7.32574 -0.490687,-7.69698 -0.887419,-0.12431 -2.68156,-0.4347 -3.986976,-0.68975 -3.982384,-0.77806 -8.779016,13.65434 -4.892143,14.71978 5.587913,1.53172 7.165453,0.46545 9.369806,-6.33305 z m 98.677069,0.28941 c 0,-0.6394 -1.15334,-0.87463 -2.97643,-0.60706 -2.33896,0.34329 -3.41109,-0.0684 -5.00583,-1.92245 -1.16357,-1.35273 -2.27973,-1.95426 -2.61615,-1.40993 -1.1934,1.93096 3.02375,4.98335 6.88493,4.98335 2.103,0 3.71348,-0.45273 3.71348,-1.04391 z m -49.08903,-2.23734 c 0.2968,-0.77344 1.15221,-1.40625 1.90091,-1.40625 0.7487,0 1.10055,0.42188 0.78187,0.9375 -0.94361,1.52679 3.87674,1.07296 5.17129,-0.48687 0.82424,-0.99315 2.09658,-1.25282 4.20263,-0.85773 2.29598,0.43072 3.16293,0.1955 3.61427,-0.98068 0.46594,-1.21422 0.19139,-1.41962 -1.27534,-0.9541 -1.07026,0.33969 -1.8691,0.16555 -1.8691,-0.40744 0,-1.28004 1.25537,-1.2616 5.74804,0.0845 3.11694,0.93385 3.87532,0.85571 5.44032,-0.56059 1.00017,-0.90515 2.21915,-1.39809 2.70884,-1.09545 0.48969,0.30264 1.38817,-0.0496 1.9966,-0.78269 0.60844,-0.73313 1.87302,-1.27519 2.81019,-1.20459 2.21457,0.16681 9.50024,-3.11767 8.93703,-4.02895 -0.23808,-0.38523 0.2639,-1.27555 1.11551,-1.97851 1.1538,-0.95239 1.64442,-0.99289 1.92525,-0.15889 0.20727,0.61557 0.95578,0.89705 1.66335,0.62553 1.82301,-0.69955 0.62698,-3.15099 -1.53735,-3.15099 -0.99227,0 -2.04696,0.63281 -2.34375,1.40625 -0.59986,1.56318 -3.15153,1.9427 -3.15153,0.46873 0,-0.51562 -1.79297,-0.98644 -3.98438,-1.04625 -2.1914,-0.0598 -3.17045,-0.31625 -2.17567,-0.56986 0.99478,-0.25361 2.42313,-1.07555 3.1741,-1.82652 0.96526,-0.96525 1.65782,-1.073 2.36318,-0.36764 1.4414,1.4414 4.37277,1.22641 4.37277,-0.32071 0,-0.85828 -0.73626,-1.18188 -2.10938,-0.9271 -1.16015,0.21525 -1.60573,0.1485 -0.99016,-0.14835 1.66565,-0.803217 0.38743,-3.210745 -1.35059,-2.543807 -0.92748,0.355912 -1.24721,0.18824 -0.85407,-0.447872 0.34561,-0.55921 0.0984,-1.214597 -0.54933,-1.456416 -0.76916,-0.287156 -0.54677,-0.698662 0.64106,-1.186247 1.15909,-0.475781 1.95251,-0.345347 2.18749,0.359606 0.5319,1.595672 4.60097,1.3626 5.23901,-0.300084 C 192.16775,93.648119 195,93.186023 195,94.599731 c 0,0.467353 0.84375,0.629091 1.875,0.35941 1.03125,-0.269682 1.875,-0.896513 1.875,-1.392973 0,-0.515214 1.20718,-0.637506 2.8125,-0.284918 1.76952,0.388652 2.8125,0.242445 2.8125,-0.394261 0,-0.556594 0.86865,-1.011989 1.93033,-1.011989 3.15693,0 1.08476,1.79699 -3.36388,2.917172 -2.27411,0.572625 -4.67154,1.687941 -5.32763,2.478469 -1.02791,1.23855 -0.90218,1.345059 0.90915,0.770165 1.57938,-0.501281 2.10203,-0.294487 2.10203,0.831694 0,1.71411 -3.00232,3.21429 -3.49211,1.74492 -0.17782,-0.53345 -1.38548,-0.766854 -2.68369,-0.51869 l -2.36038,0.45122 1.94512,1.81216 c 1.06983,0.99669 1.68855,2.22732 1.37496,2.73472 -0.31359,0.50742 1.57549,-0.39766 4.19797,-2.01129 2.62246,-1.61362 4.76813,-3.530493 4.76813,-4.259699 0,-0.729216 0.79455,-1.325841 1.76566,-1.325841 1.01311,0 1.98821,-0.851053 2.28782,-1.996763 0.34009,-1.300499 1.01524,-1.807553 1.93622,-1.454137 1.9894,0.763406 11.4651,-7.798858 9.78201,-8.839061 -1.00132,-0.618854 -0.99103,-0.977894 0.0564,-1.967876 1.04782,-0.990311 1.36414,-0.983538 1.73632,0.03717 0.32685,0.896385 1.19852,0.535829 3.09333,-1.279512 1.45104,-1.390178 2.41625,-3.10611 2.14492,-3.813181 -0.30091,-0.78415 0.45801,-1.64728 1.94572,-2.21291 1.51867,-0.577392 2.43906,-1.643624 2.43906,-2.825528 0,-1.062292 0.61927,-1.898204 1.40625,-1.898204 1.2605,0 1.81588,-1.09829 1.5266,-3.018884 -0.0559,-0.371323 0.75813,-1.135299 1.80903,-1.697722 1.32055,-0.706735 1.73259,-1.583869 1.33398,-2.839763 -0.42617,-1.342728 0.005,-2.038387 1.65171,-2.664434 C 242.66976,59.744243 251.12702,41.25 248.33493,41.25 c -1.02674,0 -0.81629,-2.937486 0.62583,-8.735177 l 0.65702,-2.641427 -3.63702,1.583605 c -11.19004,4.872294 -32.66914,10.157225 -45.35576,11.159784 -4.38281,0.346351 -11.55469,1.073162 -15.9375,1.615133 C 130.38198,50.94726 46.091216,42.713235 19.767911,28.121588 13.628973,24.718626 13.909792,24.445583 15.907588,31.875 c 2.969426,11.04272 6.597024,18.874888 8.467284,18.28129 1.032315,-0.327644 1.879086,0.06429 2.254922,1.043704 0.843494,2.198108 -0.041,2.741627 -1.951548,1.199226 -2.246389,-1.813527 4.533875,10.33715 10.374133,18.591123 2.757737,3.897481 5.388235,6.682847 6.197621,6.5625 0.833038,-0.123863 1.352772,0.462072 1.275053,1.437463 -0.07685,0.964414 3.524793,5.106575 8.693648,9.998369 8.621272,8.159153 15.343799,13.106565 15.343799,11.292205 0,-0.498236 0.632812,-0.90588 1.40625,-0.90588 0.773437,0 1.40625,0.65771 1.40625,1.46158 0,0.86716 -0.476598,1.21535 -1.171875,0.85614 -0.644531,-0.33299 -0.117188,0.26267 1.171875,1.32369 2.796967,2.30215 11.591639,7.10779 15.495184,8.46696 2.318063,0.80712 2.484922,0.77714 0.993331,-0.17852 -0.986005,-0.63173 -2.568036,-1.88688 -3.515625,-2.78923 C 81.4003,107.61328 79.78125,106.875 78.75,106.875 c -1.03125,0 -1.875,-0.40864 -1.875,-0.90808 0,-0.49944 0.632812,-0.66524 1.40625,-0.36845 0.773437,0.2968 1.40625,0.0727 1.40625,-0.49817 0,-0.57079 -0.421875,-1.0378 -0.9375,-1.0378 -0.515625,0 -0.9375,-0.65771 -0.9375,-1.46158 0,-0.80387 0.421875,-1.20085 0.9375,-0.88217 0.515625,0.31868 0.9375,0.13762 0.9375,-0.40235 0,-0.53996 -1.69685,-1.25308 -3.770778,-1.584709 -2.073928,-0.331641 -4.025196,-1.014638 -4.336153,-1.517775 -0.323833,-0.523969 0.185697,-0.708844 1.192654,-0.432741 5.730502,1.571306 7.120781,1.537809 10.84443,-0.261253 3.919001,-1.893459 3.919307,-1.893459 5.914324,-0.01922 2.282505,2.144297 3.385385,2.398622 3.046148,0.702441 -0.128906,-0.644532 0.398437,-1.171875 1.171875,-1.171875 0.773437,0 1.349803,0.725409 1.280812,1.612022 -0.069,0.886612 0.607875,1.844779 1.504163,2.129239 3.498325,1.11033 14.610465,2.07759 15.527715,1.35163 0.53292,-0.42179 1.52718,-0.42188 2.20947,-2e-4 0.82883,0.51225 0.90976,0.9711 0.24388,1.38265 -1.70075,1.05111 -0.1107,3.24119 2.226,3.066 2.85296,-0.2139 3.47101,1.61182 0.67983,2.00824 -2.47115,0.35096 -3.12346,4.85667 -0.70312,4.85667 0.77344,0 1.40625,0.40864 1.40625,0.90808 0,0.49943 -0.62098,0.66978 -1.37996,0.37853 -2.02438,-0.77685 -7.05754,1.73356 -7.05754,3.52009 0,3.18032 36.90482,5.33515 38.09847,2.22453 z M 123.75,120 c 0,-0.51562 0.84375,-0.9375 1.875,-0.9375 1.03125,0 1.875,0.42188 1.875,0.9375 0,0.51563 -0.84375,0.9375 -1.875,0.9375 -1.03125,0 -1.875,-0.42187 -1.875,-0.9375 z m 8.4375,0 c 0,-0.51562 0.86865,-0.9375 1.93033,-0.9375 1.06168,0 1.6696,0.42188 1.35092,0.9375 -0.31868,0.51563 -1.18732,0.9375 -1.93033,0.9375 -0.74301,0 -1.35092,-0.42187 -1.35092,-0.9375 z m 7.96875,0 c 0.31868,-0.51562 1.18732,-0.9375 1.93033,-0.9375 0.74301,0 1.35092,0.42188 1.35092,0.9375 0,0.51563 -0.86865,0.9375 -1.93033,0.9375 -1.06168,0 -1.6696,-0.42187 -1.35092,-0.9375 z m -24.84375,-0.9375 c 0,-0.51562 0.84375,-0.9375 1.875,-0.9375 1.03125,0 1.875,0.42188 1.875,0.9375 0,0.51563 -0.84375,0.9375 -1.875,0.9375 -1.03125,0 -1.875,-0.42187 -1.875,-0.9375 z m 12.63095,-1.83406 c 0.30475,-0.49311 1.1734,-0.6589 1.93033,-0.36845 1.93791,0.74366 1.70955,1.26501 -0.55411,1.26501 -1.06168,0 -1.68099,-0.40345 -1.37622,-0.89656 z m 16.43155,0.52811 c 0,-0.88934 2.80629,-1.33755 3.30655,-0.52811 0.30477,0.49311 -0.31454,0.89656 -1.37622,0.89656 -1.06168,0 -1.93033,-0.16581 -1.93033,-0.36845 z m 7.5,-0.56905 c 0,-0.51562 0.63281,-0.9375 1.40625,-0.9375 0.77344,0 1.40625,0.42188 1.40625,0.9375 0,0.51563 -0.63281,0.9375 -1.40625,0.9375 -0.77344,0 -1.40625,-0.42187 -1.40625,-0.9375 z m -28.59375,-1.875 c -0.31868,-0.51562 0.28924,-0.9375 1.35092,-0.9375 1.06168,0 1.93033,0.42188 1.93033,0.9375 0,0.51563 -0.60791,0.9375 -1.35092,0.9375 -0.743,0 -1.61165,-0.42187 -1.93033,-0.9375 z m 8.90625,0 c 0,-0.51562 0.63281,-0.9375 1.40625,-0.9375 0.77344,0 1.40625,0.42188 1.40625,0.9375 0,0.51563 -0.63281,0.9375 -1.40625,0.9375 -0.77344,0 -1.40625,-0.42187 -1.40625,-0.9375 z m 7.5,0 c 0,-0.51562 0.84375,-0.9375 1.875,-0.9375 1.03125,0 1.875,0.42188 1.875,0.9375 0,0.51563 -0.84375,0.9375 -1.875,0.9375 -1.03125,0 -1.875,-0.42187 -1.875,-0.9375 z m 9.39344,0.0114 c -1.16382,-0.71928 -1.1209,-0.94444 0.28264,-1.48302 1.95608,-0.75062 3.23333,0.18721 1.97233,1.44822 -0.53252,0.53252 -1.42732,0.54633 -2.25497,0.0348 z m 6.54406,-0.84864 c 0,-1.1421 2.75959,-2.11866 3.93469,-1.3924 0.59782,0.36947 0.47895,0.88935 -0.31898,1.39493 -1.66639,1.05588 -3.61571,1.05451 -3.61571,-0.003 z M 165.9375,112.5 c 1.81759,-1.17461 2.8125,-1.17461 2.8125,0 0,0.51563 -0.94922,0.93104 -2.10938,0.92315 -1.70572,-0.0116 -1.84027,-0.18827 -0.70312,-0.92315 z m -46.34554,-0.83927 c -0.28528,-0.46159 0.0982,-1.07598 0.85215,-1.3653 1.46501,-0.56218 2.71617,0.6068 1.71791,1.60506 -0.84751,0.84751 -1.96237,0.74351 -2.57006,-0.23976 z m 8.11257,-0.24307 c 0.48659,-1.45978 2.58399,-1.71543 2.65749,-0.32391 0.0273,0.51563 -0.65416,1.08326 -1.51422,1.26141 -0.97754,0.20249 -1.40612,-0.14895 -1.14327,-0.9375 z m 8.44782,-0.0309 c 0.57944,-1.73833 2.59765,-2.02665 2.59765,-0.37109 0,0.8164 -0.66797,1.48437 -1.48437,1.48437 -0.81641,0 -1.31739,-0.50097 -1.11328,-1.11328 z m 8.22265,0.17578 c 0,-0.51562 0.86865,-0.9375 1.93033,-0.9375 1.06168,0 1.6696,0.42188 1.35092,0.9375 -0.31868,0.51563 -1.18732,0.9375 -1.93033,0.9375 -0.74301,0 -1.35092,-0.42187 -1.35092,-0.9375 z m 8.15048,0.33799 c -0.87491,-0.87491 0.18237,-2.21299 1.7486,-2.21299 0.74301,0 1.35092,0.63281 1.35092,1.40625 0,1.41209 -1.97905,1.9272 -3.09952,0.80674 z m 9.66202,-1.6755 c 0,-0.86966 0.80156,-1.47499 1.95312,-1.47499 2.28474,0 1.96179,2.19072 -0.39019,2.64686 -0.92508,0.17942 -1.56293,-0.29884 -1.56293,-1.17187 z m 10.78125,0.40001 c 0.31868,-0.51562 1.18732,-0.9375 1.93033,-0.9375 0.74301,0 1.35092,0.42188 1.35092,0.9375 0,0.51563 -0.86865,0.9375 -1.93033,0.9375 -1.06168,0 -1.6696,-0.42187 -1.35092,-0.9375 z m 8.4375,-0.9375 c 0.31868,-0.51562 1.21222,-0.9375 1.98565,-0.9375 0.77344,0 1.14553,0.42188 0.82685,0.9375 -0.31868,0.51563 -1.21222,0.9375 -1.98565,0.9375 -0.77344,0 -1.14553,-0.42187 -0.82685,-0.9375 z M 169.6875,108.75 c 0,-0.51562 0.63281,-0.9375 1.40625,-0.9375 0.77344,0 1.40625,0.42188 1.40625,0.9375 0,0.51563 -0.63281,0.9375 -1.40625,0.9375 -0.77344,0 -1.40625,-0.42187 -1.40625,-0.9375 z M 123.75,107.42187 c 0,-0.8164 0.66797,-1.48437 1.48437,-1.48437 1.65556,0 1.36724,2.01821 -0.37109,2.59765 -0.61231,0.20411 -1.11328,-0.29687 -1.11328,-1.11328 z m 8.64203,0.24579 c 0.48659,-1.45978 2.58399,-1.71543 2.65749,-0.32391 0.0273,0.51563 -0.65416,1.08326 -1.51422,1.26141 -0.97754,0.20249 -1.40612,-0.14895 -1.14327,-0.9375 z m 8.23297,-0.32391 c 0,-0.77344 0.42187,-1.40625 0.9375,-1.40625 0.51562,0 0.9375,0.63281 0.9375,1.40625 0,0.77344 -0.42188,1.40625 -0.9375,1.40625 -0.51563,0 -0.9375,-0.63281 -0.9375,-1.40625 z m 8.19165,0.70161 c -0.90866,-0.20612 -1.41111,-0.76471 -1.11655,-1.24131 0.70228,-1.13631 4.1749,-1.12331 4.1749,0.0157 0,1.22377 -1.10844,1.668 -3.05835,1.22568 z M 178.125,107.8125 c 0,-0.51562 0.65771,-0.9375 1.46158,-0.9375 0.80387,0 1.20085,0.42188 0.88217,0.9375 -0.31868,0.51563 -0.97639,0.9375 -1.46158,0.9375 -0.4852,0 -0.88217,-0.42187 -0.88217,-0.9375 z m -21.35797,-1.08234 c 0.48659,-1.45978 2.58399,-1.71543 2.65749,-0.32391 0.0273,0.51563 -0.65416,1.08326 -1.51422,1.26141 -0.97754,0.20249 -1.40612,-0.14895 -1.14327,-0.9375 z m 9.4044,-1.02703 c 0.59066,-1.77393 3.51607,-2.02613 3.51607,-0.30312 0,0.86966 -0.80156,1.47499 -1.95312,1.47499 -1.14561,0 -1.79181,-0.48452 -1.56295,-1.17187 z m 7.47016,-0.84797 c 0.23102,-0.69377 1.17194,-1.40717 2.09094,-1.58532 1.06877,-0.20718 1.51954,0.13066 1.25088,0.9375 -0.23102,0.69377 -1.17194,1.40717 -2.09094,1.58532 -1.06877,0.20718 -1.51955,-0.13066 -1.25088,-0.9375 z m -53.93456,-0.46063 c -1.22259,-1.22259 -0.6389,-2.20703 1.30859,-2.20703 1.09102,0 1.78932,0.49141 1.58203,1.11328 -0.45666,1.37001 -2.02205,1.96232 -2.89062,1.09375 z m 8.00782,-1.44531 c 0.57862,-1.73589 2.30745,-1.9327 2.92147,-0.33259 0.38886,1.01334 -0.0206,1.44587 -1.36887,1.44587 -1.06829,0 -1.75868,-0.49504 -1.5526,-1.11328 z m 8.22265,-0.29297 c 0,-0.96559 0.61444,-1.4254 1.64062,-1.22778 1.9761,0.38056 1.8515,2.04439 -0.18485,2.46839 -0.84936,0.17686 -1.45577,-0.33993 -1.45577,-1.24061 z m 7.5,0 c 0,-0.77344 0.63281,-1.40625 1.40625,-1.40625 0.77344,0 1.40625,0.63281 1.40625,1.40625 0,0.77344 -0.63281,1.40625 -1.40625,1.40625 -0.77344,0 -1.40625,-0.63281 -1.40625,-1.40625 z m 8.4375,0.56905 c 0,-1.05378 2.43855,-2.03675 3.18959,-1.2857 1.12853,1.12852 0.51278,2.1229 -1.31459,2.1229 -1.03125,0 -1.875,-0.37674 -1.875,-0.8372 z M 72.617701,102.12513 C 72.277826,101.5752 72.22486,100.90014 72.5,100.625 c 0.671543,-0.671544 2.5,0.51171 2.5,1.61783 0,1.1981 -1.61851,1.11813 -2.382299,-0.1177 z M 161.25,101.71875 c 0,-0.77344 0.60791,-1.40625 1.35092,-1.40625 1.98338,0 2.62703,1.58692 0.91077,2.24552 -2.08949,0.80181 -2.26169,0.73791 -2.26169,-0.83927 z m 9.375,-0.9375 c 0,-0.77344 0.63281,-1.40625 1.40625,-1.40625 0.77344,0 1.40625,0.63281 1.40625,1.40625 0,0.77344 -0.63281,1.40625 -1.40625,1.40625 -0.77344,0 -1.40625,-0.63281 -1.40625,-1.40625 z m 7.9302,0.40638 c -0.86282,-1.39608 0.13756,-2.155118 1.93253,-1.466318 0.82836,0.317868 1.24353,1.002798 0.92262,1.522068 -0.75992,1.22957 -2.07667,1.20385 -2.85515,-0.0558 z m -71.27623,-1.917443 c -0.93576,-1.51409 1.63465,-2.801475 3.12459,-1.56494 1.0184,0.845194 1.02417,1.177284 0.0314,1.807022 -1.65063,1.047061 -2.39455,0.990011 -3.15603,-0.242081 z m 8.63304,0.391829 C 114.85622,98.606212 115.26899,97.5 116.71875,97.5 c 0.77344,0 1.40625,0.396975 1.40625,0.882169 0,1.182168 -1.46399,2.028841 -2.21299,1.279847 z m 6.6204,0.05794 c -1.2819,-1.2819 -0.63076,-2.34614 1.25472,-2.050734 1.05168,0.164765 1.91772,0.721453 1.92452,1.237078 0.0151,1.141033 -2.26766,1.725243 -3.17924,0.813656 z m 8.86243,-0.755203 c 0.17815,-0.860062 0.74578,-1.541456 1.26141,-1.514222 1.39152,0.0735 1.13587,2.170894 -0.32391,2.657482 -0.78855,0.26286 -1.13999,-0.165719 -0.9375,-1.14326 z m 16.7486,0.421687 c -1.16382,-0.719278 -1.1209,-0.944437 0.28264,-1.483021 1.95608,-0.750619 3.23333,0.187218 1.97233,1.448222 -0.53252,0.532518 -1.42732,0.546328 -2.25497,0.03478 z M 100.3125,97.96875 c 0,-0.773438 0.63281,-1.40625 1.40625,-1.40625 0.77344,0 1.40625,0.632812 1.40625,1.40625 0,0.773437 -0.63281,1.40625 -1.40625,1.40625 -0.77344,0 -1.40625,-0.632813 -1.40625,-1.40625 z m 38.67187,0.234375 c 0.21485,-0.644531 0.95313,-1.171875 1.64063,-1.171875 0.6875,0 1.42578,0.527344 1.64062,1.171875 0.23237,0.697116 -0.43229,1.171875 -1.64062,1.171875 -1.20833,0 -1.87299,-0.474759 -1.64063,-1.171875 z m 16.87456,0 c 0.59066,-1.773928 3.51607,-2.026125 3.51607,-0.303112 0,0.869653 -0.80156,1.474987 -1.95312,1.474987 -1.14561,0 -1.79181,-0.484519 -1.56295,-1.171875 z m 9.34516,-0.847969 c 0.23102,-0.693768 1.17194,-1.407169 2.09094,-1.585312 1.06877,-0.207188 1.51954,0.130659 1.25088,0.9375 -0.23102,0.693768 -1.17194,1.407169 -2.09094,1.585312 -1.06877,0.207188 -1.51955,-0.130659 -1.25088,-0.9375 z m 8.64646,0.05475 c -0.81292,-1.31534 2.37922,-2.180109 3.58747,-0.971859 0.58409,0.584091 0.87214,1.094259 0.6401,1.133709 -0.23203,0.03947 -1.15847,0.212813 -2.05877,0.385247 -0.9003,0.172444 -1.87626,-0.07378 -2.1688,-0.547097 z M 75.9375,96.444572 C 71.693105,95.61885 68.567934,95.02875 67.265625,94.807144 66.878906,94.741341 66.5625,94.265625 66.5625,93.75 c 0,-1.254712 3.475535,-1.202547 4.258251,0.06394 0.340398,0.550781 1.262518,0.754443 2.049154,0.452578 0.786636,-0.301857 2.027468,-0.05316 2.757404,0.552609 0.94991,0.788353 1.614821,0.813769 2.339163,0.08944 1.275387,-1.275422 3.596028,-0.445829 3.596028,1.28549 0,0.718266 -0.316406,1.253147 -0.703125,1.1886 -0.386719,-0.0645 -2.601563,-0.486675 -4.921875,-0.938081 z m 125.625,0.117928 c 0,-0.515625 0.42187,-0.9375 0.9375,-0.9375 0.51562,0 0.9375,0.421875 0.9375,0.9375 0,0.515625 -0.42188,0.9375 -0.9375,0.9375 -0.51563,0 -0.9375,-0.421875 -0.9375,-0.9375 z M 60.430201,95.562628 C 60.090326,95.0127 60.03736,94.337644 60.3125,94.062497 c 0.671543,-0.67154 2.5,0.511716 2.5,1.617834 0,1.198097 -1.61851,1.118128 -2.382299,-0.117703 z m 44.192709,-0.627225 c -1.00597,-1.005956 -0.59004,-2.122903 0.79051,-2.122903 0.74301,0 1.58434,0.377669 1.86962,0.839264 0.59644,0.965077 -1.81504,2.128739 -2.66013,1.283639 z m 7.14412,-0.392747 c 0.4866,-1.459786 2.58399,-1.715427 2.65749,-0.323906 0.0272,0.515625 -0.65416,1.083263 -1.51422,1.261406 -0.97754,0.202491 -1.40612,-0.14895 -1.14327,-0.9375 z M 120,94.21875 c 0,-0.859375 0.45352,-1.411328 1.00781,-1.226562 0.5543,0.184765 1.00781,0.736718 1.00781,1.226562 0,0.489844 -0.45351,1.041797 -1.00781,1.226559 C 120.45352,95.630081 120,95.078128 120,94.21875 Z m 7.5,0.46875 c 0,-0.515625 0.63281,-0.9375 1.40625,-0.9375 0.77344,0 1.40625,0.421875 1.40625,0.9375 0,0.515625 -0.63281,0.9375 -1.40625,0.9375 -0.77344,0 -1.40625,-0.421875 -1.40625,-0.9375 z m 8.125,0.312497 c -1.07872,-1.078716 -0.68272,-2.187497 0.78125,-2.187497 0.77344,0 1.40625,0.632812 1.40625,1.40625 0,1.463972 -1.10878,1.859972 -2.1875,0.781247 z m 8.04687,-0.546872 c 0.21485,-0.644531 0.95313,-1.171875 1.64063,-1.171875 0.6875,0 1.42578,0.527344 1.64062,1.171875 0.23237,0.697116 -0.43229,1.171875 -1.64062,1.171875 -1.20833,0 -1.87299,-0.474759 -1.64063,-1.171875 z M 88.769531,94.082034 C 87.546938,92.859439 88.130632,91.875 90.078125,91.875 c 1.091009,0 1.789322,0.491407 1.582031,1.113281 -0.456669,1.370007 -2.022057,1.962319 -2.890625,1.093753 z m 7.36426,-0.267253 c -0.296663,-0.479998 -0.110616,-1.137708 0.413418,-1.46158 1.118785,-0.691449 2.827791,0.186157 2.827791,1.45213 0,1.14075 -2.537456,1.148147 -3.241209,0.0095 z M 152.34375,93.75 c 0.31868,-0.515625 1.18732,-0.9375 1.93033,-0.9375 0.74301,0 1.35092,0.421875 1.35092,0.9375 0,0.515625 -0.86865,0.9375 -1.93033,0.9375 -1.06168,0 -1.6696,-0.421875 -1.35092,-0.9375 z m 7.96875,0 c 0,-0.515625 0.86865,-0.9375 1.93033,-0.9375 1.06168,0 1.6696,0.421875 1.35092,0.9375 -0.31868,0.515625 -1.18732,0.9375 -1.93033,0.9375 -0.74301,0 -1.35092,-0.421875 -1.35092,-0.9375 z m 9.375,-0.46875 c 0,-0.965586 0.61444,-1.425403 1.64062,-1.227777 1.9761,0.380562 1.8515,2.044386 -0.18485,2.468389 -0.84936,0.17686 -1.45577,-0.339928 -1.45577,-1.240612 z M 61.5625,93.125 c -1.078719,-1.078719 -0.682726,-2.1875 0.78125,-2.1875 0.773437,0 1.40625,0.632812 1.40625,1.40625 0,1.463972 -1.108781,1.859972 -2.1875,0.78125 z m 117.5,-0.859375 c 0,-1.655556 2.01821,-1.36724 2.59765,0.371094 0.20411,0.612304 -0.29687,1.113281 -1.11328,1.113281 -0.8164,0 -1.48437,-0.667969 -1.48437,-1.484375 z M 70.118533,91.520423 c -5.701219,-1.120668 -8.287068,-2.678453 -6.391145,-3.850199 0.593044,-0.366521 1.805517,-0.0083 2.694384,0.796168 0.964112,0.87251 2.453182,1.243675 3.690924,0.919997 1.262287,-0.330094 2.074804,-0.115981 2.074804,0.54675 0,0.745422 1.078684,0.886961 3.416774,0.448333 2.2978,-0.43107 3.216966,-0.317693 2.806659,0.346196 -0.335564,0.542954 -0.08015,1.200852 0.5676,1.461996 2.052563,0.827514 -3.303816,0.422918 -8.86,-0.669241 z M 82.5,91.875 c 0,-0.515625 0.632812,-0.9375 1.40625,-0.9375 0.773437,0 1.40625,0.421875 1.40625,0.9375 0,0.515625 -0.632813,0.9375 -1.40625,0.9375 C 83.132812,92.8125 82.5,92.390625 82.5,91.875 Z m 105.38026,-0.703125 c 1.25944,-1.201627 1.8358,-1.327055 2.15402,-0.46875 0.51768,1.396311 5.90322,1.593838 5.90322,0.216514 0,-0.556021 0.99971,-0.704449 2.39167,-0.355092 1.72429,0.432771 2.74238,0.120632 3.64855,-1.118626 1.10151,-1.506413 1.4558,-1.55381 2.86603,-0.383421 1.41037,1.170506 1.76477,1.122657 2.86891,-0.387349 0.85393,-1.16782 1.80279,-1.497643 2.94543,-1.023825 3.79085,1.571963 -9.95796,5.14421 -19.84336,5.155744 -4.4624,0.0053 -4.58321,-0.06212 -2.93447,-1.635195 z M 55.546875,91.254112 C 54.401748,90.792043 53.854983,88.125 54.905382,88.125 c 1.473364,0 4.139131,2.083149 3.659297,2.859537 -0.591822,0.95759 -1.182058,1.010314 -3.017804,0.269575 z m 68.667775,-0.323234 c -0.32091,-0.519266 0.0943,-1.204197 0.92262,-1.522066 1.79497,-0.6888 2.79535,0.07024 1.93253,1.466315 -0.77848,1.259607 -2.09523,1.285318 -2.85515,0.05575 z m 15.9416,0.0066 c -0.68363,-1.106132 0.20313,-2.8125 1.46158,-2.8125 0.48519,0 0.88217,0.84375 0.88217,1.875 0,1.977267 -1.36395,2.522847 -2.34375,0.9375 z m 69.84375,0 C 210,90.421875 210.63281,90 211.40625,90 c 0.77344,0 1.40625,0.421875 1.40625,0.9375 0,0.515625 -0.63281,0.9375 -1.40625,0.9375 C 210.63281,91.875 210,91.453125 210,90.9375 Z M 107.8125,89.462509 c 0,-0.873037 0.63785,-1.351287 1.56293,-1.171875 2.35198,0.456141 2.67493,2.646866 0.39019,2.646866 -1.15156,0 -1.95312,-0.605333 -1.95312,-1.474991 z m 8.15048,0.875478 c -0.97742,-0.977427 0.26057,-2.212987 2.21735,-2.212987 1.00082,0 1.81967,0.632812 1.81967,1.40625 0,1.390544 -2.87807,1.965683 -4.03702,0.806737 z M 131.25,90.114792 c 0,-1.845859 2.53413,-2.986073 3.64954,-1.642086 0.84528,1.018499 0.75201,1.436419 -0.42103,1.88656 C 132.37688,91.165733 131.25,91.0804 131.25,90.114792 Z m 16.40215,-0.121414 c -0.70754,-1.144836 1.86447,-2.277776 3.24045,-1.427374 0.54032,0.333934 0.9824,1.00413 0.9824,1.489324 0,1.182323 -3.48544,1.131192 -4.22285,-0.06195 z m 9.11444,-0.138219 c 0.23102,-0.693774 1.17194,-1.407169 2.09094,-1.585318 1.06877,-0.207183 1.51955,0.130662 1.25088,0.9375 -0.23102,0.693774 -1.17194,1.407169 -2.09094,1.585318 -1.06877,0.207183 -1.51955,-0.130662 -1.25088,-0.9375 z m 8.58299,-0.04799 c -0.64789,-1.048304 1.47235,-2.754085 2.87308,-2.311463 0.48339,0.152751 1.02799,0.72499 1.21021,1.271643 0.43753,1.312579 -3.32289,2.270178 -4.0833,1.03982 z M 92.293265,88.980814 C 91.946825,88.420261 92.096106,87.528894 92.625,87 c 1.182778,-1.182778 3,-0.183864 3,1.649078 0,1.578394 -2.412784,1.81863 -3.331735,0.331736 z m 7.315669,-0.152689 C 100.19959,87.054197 103.125,86.802 103.125,88.525009 103.125,89.394667 102.32344,90 101.17188,90 100.02627,90 99.380072,89.515485 99.608934,88.828125 Z M 174.84375,89.0625 c -0.68363,-1.106132 0.20313,-2.8125 1.46158,-2.8125 0.48519,0 0.88217,0.84375 0.88217,1.875 0,1.977267 -1.36395,2.522847 -2.34375,0.9375 z M 85.730765,88.043314 c -0.34644,-0.560553 -0.262343,-1.386736 0.186884,-1.835963 1.108763,-1.108763 3.549021,0.505235 2.74088,1.812834 -0.818948,1.325086 -2.116773,1.335338 -2.927764,0.02313 z m 96.794715,0.419673 c -0.87491,-0.874915 0.18237,-2.212987 1.7486,-2.212987 0.74301,0 1.35092,0.632812 1.35092,1.40625 0,1.412091 -1.97905,1.927196 -3.09952,0.806737 z m 32.16202,0.245555 c 0,-0.194677 0.63281,-0.879146 1.40625,-1.521042 1.15173,-0.955848 1.40625,-0.891783 1.40625,0.353958 0,0.836573 -0.63281,1.521042 -1.40625,1.521042 -0.77344,0 -1.40625,-0.159281 -1.40625,-0.353958 z m -157.5,-1.960369 c 0,-0.838681 0.549646,-1.165907 1.40625,-0.837197 C 59.367187,86.207771 60,86.827343 60,87.287802 60,87.748261 59.367187,88.125 58.59375,88.125 c -0.773438,0 -1.40625,-0.619572 -1.40625,-1.376827 z m 11.474212,0.423531 c -5.562046,-0.811271 -9.984426,-3.253118 -9.268857,-5.117862 0.278168,-0.724893 -0.358744,-1.462744 -1.526161,-1.76803 -1.10196,-0.288169 -1.741711,-0.785794 -1.421672,-1.105834 0.32004,-0.32004 1.386458,-0.1513 2.369818,0.374978 0.983359,0.526278 4.710897,1.461142 8.283418,2.077475 6.481085,1.118121 8.26472,2.167157 7.452567,4.383194 -0.271822,0.741692 0.440397,1.171875 1.940177,1.171875 1.341041,0 2.118147,-0.406947 1.790248,-0.9375 -0.318674,-0.515625 0.289241,-0.9375 1.350922,-0.9375 2.584468,0 2.462473,1.513707 -0.179047,2.221607 -2.475566,0.663426 -4.142058,0.607461 -10.791413,-0.362403 z M 71.875,84.84375 c 0,-0.773438 -0.773437,-1.40625 -1.71875,-1.40625 -0.945313,0 -1.71875,0.632812 -1.71875,1.40625 0,0.773437 0.773437,1.40625 1.71875,1.40625 0.945313,0 1.71875,-0.632813 1.71875,-1.40625 z m -5.910976,-0.9375 C 66.331076,82.949729 65.913427,82.5 64.658077,82.5 c -1.842232,0 -2.403028,1.00505 -1.220577,2.1875 1.01248,1.01248 1.949377,0.722773 2.526524,-0.78125 z m 124.553006,3.136409 c 0.48659,-1.459789 2.58399,-1.71543 2.65749,-0.323909 0.0273,0.515625 -0.65416,1.08326 -1.51422,1.261409 -0.97754,0.202488 -1.40612,-0.148949 -1.14327,-0.9375 z m 7.89394,-1.261409 c 0.63021,-1.642274 2.35395,-1.828831 3.7743,-0.408482 0.70536,0.705357 1.49857,0.499296 2.70662,-0.703125 1.65315,-1.645449 1.64513,-1.71025 -0.24595,-1.987949 C 201.96516,82.288032 201.04696,78.75 203.62557,78.75 c 1.29265,0 1.71746,0.443206 1.3479,1.40625 -0.36705,0.956521 0.0506,1.40625 1.30595,1.40625 1.01507,0 1.79562,0.316406 1.73456,0.703125 -0.3274,2.073519 0.29741,2.822596 1.98602,2.381015 2.30819,-0.603605 2.48869,-3.049712 0.23437,-3.176179 -0.90234,-0.05062 0.25782,-0.626016 2.57813,-1.278653 3.37123,-0.948231 3.87015,-1.333861 2.48351,-1.919571 -1.09812,-0.463839 -2.00778,-0.291989 -2.4775,0.468041 -0.49541,0.801597 -1.62869,0.978518 -3.40776,0.532 -2.74387,-0.688667 -1.17406,-2.7495 1.75417,-2.30286 2.01604,0.307503 9.1627,-1.235437 9.69244,-2.092561 0.27681,-0.447897 1.2705,-0.814357 2.20817,-0.814357 0.93769,0 2.23007,-0.632813 2.87197,-1.40625 1.51833,-1.829475 2.8125,-1.793526 2.8125,0.07812 0,0.816407 -0.52734,1.30128 -1.17188,1.077496 -0.64453,-0.223783 -2.17799,0.373873 -3.40768,1.328125 -1.22969,0.954255 -3.23359,1.735007 -4.45312,1.735007 -1.21953,0 -2.21732,0.471079 -2.21732,1.046842 0,0.575763 0.77422,0.844379 1.72049,0.596923 1.36954,-0.358141 1.63742,-0.01531 1.31321,1.680647 -0.224,1.171811 -1.24047,2.348449 -2.25882,2.614753 -1.01834,0.266302 -2.08036,1.359244 -2.36004,2.42876 -0.27969,1.069516 -0.92633,1.944575 -1.43698,1.944575 -0.51066,0 -0.68564,-0.632813 -0.38883,-1.40625 0.29679,-0.773438 0.44739,-1.401243 0.33468,-1.395123 -0.11273,0.0061 -2.52527,0.633926 -5.36121,1.395123 -6.94439,1.863953 -11.36679,1.863953 -10.65153,0 z M 217.5,81.462198 c 0,-0.460459 -0.63281,-0.837198 -1.40625,-0.837198 -0.77344,0 -1.40625,0.619572 -1.40625,1.376827 0,0.83868 0.54965,1.165907 1.40625,0.837197 C 216.86719,82.542229 217.5,81.922657 217.5,81.462198 Z M 50.625,84.873173 c 0,-0.838681 0.549646,-1.165907 1.40625,-0.837197 0.773437,0.296795 1.40625,0.916367 1.40625,1.376826 0,0.460459 -0.632813,0.837198 -1.40625,0.837198 -0.773438,0 -1.40625,-0.619572 -1.40625,-1.376827 z m 61.89344,0.450721 c -1.16382,-0.719277 -1.1209,-0.944437 0.28264,-1.483029 1.95608,-0.750618 3.23333,0.187225 1.97233,1.448222 -0.53252,0.532518 -1.42732,0.54633 -2.25497,0.03481 z m 6.74815,-0.156235 c 0.23102,-0.693774 1.17194,-1.407169 2.09094,-1.585318 1.06877,-0.207183 1.51955,0.130662 1.25088,0.9375 -0.23102,0.693774 -1.17194,1.407169 -2.09094,1.585318 -1.06877,0.207183 -1.51954,-0.130662 -1.25088,-0.9375 z m 6.97209,-0.363532 c 0.61402,-1.600107 2.34285,-1.403291 2.92147,0.332592 0.20608,0.618243 -0.48431,1.113281 -1.5526,1.113281 -1.34823,0 -1.75773,-0.432536 -1.36887,-1.445873 z m 9.93319,0.273998 c 0.21485,-0.644531 0.95313,-1.171875 1.64063,-1.171875 0.6875,0 1.42578,0.527344 1.64062,1.171875 0.23237,0.697116 -0.43229,1.171875 -1.64062,1.171875 -1.20833,0 -1.87299,-0.474759 -1.64063,-1.171875 z m 8.84766,0.566407 c -1.22259,-1.222593 -0.6389,-2.207032 1.30859,-2.207032 1.09102,0 1.78932,0.491407 1.58203,1.113281 -0.45666,1.370009 -2.02205,1.962318 -2.89062,1.093751 z m 7.50595,0.006 c -0.9997,-0.999749 0.27891,-2.213032 2.33214,-2.213032 1.61323,0 1.74065,0.233522 0.76738,1.40625 -1.26024,1.5185 -2.15489,1.751358 -3.09952,0.806737 z M 161.25,84.84375 c 0,-0.773438 0.63281,-1.40625 1.40625,-1.40625 0.77344,0 1.40625,0.632812 1.40625,1.40625 0,0.773437 -0.63281,1.40625 -1.40625,1.40625 -0.77344,0 -1.40625,-0.632813 -1.40625,-1.40625 z m -57.1875,-0.9375 c 0,-0.773438 0.60791,-1.40625 1.35092,-1.40625 1.98338,0 2.62703,1.586923 0.91077,2.245514 -2.08949,0.801812 -2.26169,0.737911 -2.26169,-0.839264 z M 95.625,83.4375 c 0,-0.515625 0.84375,-0.9375 1.875,-0.9375 1.03125,0 1.875,0.421875 1.875,0.9375 0,0.515625 -0.84375,0.9375 -1.875,0.9375 -1.03125,0 -1.875,-0.421875 -1.875,-0.9375 z m 74.0625,0 c 0,-0.515625 0.63281,-0.9375 1.40625,-0.9375 0.77344,0 1.40625,0.421875 1.40625,0.9375 0,0.515625 -0.63281,0.9375 -1.40625,0.9375 -0.77344,0 -1.40625,-0.421875 -1.40625,-0.9375 z m 8.65235,-0.175781 c 0.57944,-1.738334 2.59765,-2.02665 2.59765,-0.371094 0,0.816406 -0.66797,1.484375 -1.48437,1.484375 -0.81641,0 -1.31739,-0.500977 -1.11328,-1.113281 z M 89.0625,82.5 c 0,-0.515625 0.632812,-0.9375 1.40625,-0.9375 0.773437,0 1.40625,0.421875 1.40625,0.9375 0,0.515625 -0.632813,0.9375 -1.40625,0.9375 -0.773438,0 -1.40625,-0.421875 -1.40625,-0.9375 z m 97.5,-0.400009 c 0,-0.869658 0.80156,-1.474991 1.95312,-1.474991 2.28474,0 1.96179,2.190725 -0.39019,2.646866 -0.92508,0.179412 -1.56293,-0.298838 -1.56293,-1.171875 z m 9.0625,0.712509 c -1.07872,-1.078719 -0.68272,-2.1875 0.78125,-2.1875 0.77344,0 1.40625,0.392533 1.40625,0.872296 0,0.479763 0.94922,1.055123 2.10937,1.278579 1.6115,0.310388 1.4271,0.436418 -0.78124,0.533954 -1.58985,0.07022 -3.17188,-0.153579 -3.51563,-0.497329 z M 52.071286,81.627279 c -0.296654,-0.479996 -0.110614,-1.137706 0.413421,-1.461578 1.11879,-0.691449 2.827793,0.186157 2.827793,1.452127 0,1.140755 -2.537457,1.148154 -3.241214,0.0095 z m 22.188626,-0.5718 C 73.236167,79.896958 73.42756,79.6875 75.509913,79.6875 c 1.481383,0 2.311317,0.442559 2.087743,1.113281 -0.559227,1.677682 -1.984212,1.786421 -3.337744,0.254698 z M 80.625,81.5625 c 0,-0.515625 0.84375,-0.9375 1.875,-0.9375 1.03125,0 1.875,0.421875 1.875,0.9375 0,0.515625 -0.84375,0.9375 -1.875,0.9375 -1.03125,0 -1.875,-0.421875 -1.875,-0.9375 z M 47.109375,80.889113 C 45.259336,80.225485 45.744327,78.75 47.8125,78.75 c 1.03125,0 1.875,0.396977 1.875,0.882172 0,1.200037 -1.160063,1.765615 -2.578125,1.256941 z m 67.910155,0.06792 C 113.79694,79.734439 114.38063,78.75 116.32812,78.75 c 1.09102,0 1.78932,0.491407 1.58203,1.113281 -0.45666,1.370009 -2.02205,1.962318 -2.89062,1.093751 z M 122.5,80.937507 C 122.15625,80.59375 121.875,79.75 121.875,79.0625 c 0,-1.659506 2.47444,-1.608216 3.11635,0.06459 0.75747,1.97395 -1.02935,3.272399 -2.49135,1.810406 z m 8.04643,-0.546882 c 0.59066,-1.773928 3.51607,-2.026125 3.51607,-0.303116 0,0.869658 -0.80156,1.474991 -1.95312,1.474991 -1.14561,0 -1.79181,-0.484515 -1.56295,-1.171875 z m 8.66822,0.227753 c -0.71181,-1.151756 1.86828,-2.275426 3.25574,-1.417923 0.54873,0.339133 0.75498,1.009328 0.45832,1.489324 -0.71554,1.157765 -2.98131,1.114206 -3.71406,-0.0714 z M 149.6875,80.9375 c -1.18855,-1.188554 -0.61773,-2.1875 1.25,-2.1875 1.04167,0 1.875,0.625 1.875,1.40625 0,1.42726 -1.98319,1.923058 -3.125,0.78125 z m 7.10893,-0.546875 c 0.59066,-1.773928 3.51607,-2.026125 3.51607,-0.303116 0,0.869658 -0.80156,1.474991 -1.95312,1.474991 -1.14561,0 -1.79181,-0.484515 -1.56295,-1.171875 z M 68.4375,79.583165 c 0,-0.677524 -1.117024,-0.832281 -3.194396,-0.442563 -1.956523,0.367046 -3.324257,0.209688 -3.529511,-0.406071 C 61.529281,78.181593 60.33004,77.669457 59.048615,77.596453 56.333305,77.441757 52.051232,75 54.495253,75 c 0.811224,0 2.698063,0.376359 4.192975,0.836354 1.494913,0.459996 5.12922,1.367627 8.07624,2.016959 2.94702,0.649332 5.136966,1.538598 4.866547,1.976145 -0.71891,1.163221 -3.193515,0.972372 -3.193515,-0.246293 z m 39.45168,-0.272024 c -0.54885,-0.661325 -0.76621,-1.434114 -0.48301,-1.71731 0.70485,-0.704851 4.15633,0.262756 4.15633,1.165209 0,1.359149 -2.67043,1.760516 -3.67332,0.552101 z m 58.47852,0.313986 c -0.86282,-1.396078 0.13756,-2.155115 1.93253,-1.466315 0.82836,0.317869 1.24353,1.0028 0.92262,1.522066 -0.75992,1.229567 -2.07667,1.203856 -2.85515,-0.05575 z m 57.15761,-0.426506 c 1.92664,-1.457588 3.00324,-1.225913 1.98199,0.426506 -0.33988,0.54993 -1.33134,0.986455 -2.20326,0.970058 -1.39186,-0.02617 -1.36486,-0.196587 0.22127,-1.396564 z M 99.883791,78.814779 c -0.296663,-0.479996 -0.110616,-1.137706 0.413419,-1.461578 1.11878,-0.691449 2.82779,0.186157 2.82779,1.452127 0,1.140755 -2.53746,1.148154 -3.241209,0.0095 z m 75.135739,0.267253 c -1.22259,-1.222593 -0.6389,-2.207032 1.30859,-2.207032 1.09102,0 1.78932,0.491407 1.58203,1.113281 -0.45666,1.370009 -2.02205,1.962318 -2.89062,1.093751 z M 85,78.125 c -1.078719,-1.078719 -0.682726,-2.1875 0.78125,-2.1875 0.773437,0 1.40625,0.632812 1.40625,1.40625 0,1.463976 -1.108781,1.859969 -2.1875,0.78125 z m 7.109375,-0.546875 C 92.324219,76.933594 93.0625,76.40625 93.75,76.40625 c 0.687497,0 1.425778,0.527344 1.640625,1.171875 C 95.622994,78.275241 94.958334,78.75 93.75,78.75 c -1.208333,0 -1.872997,-0.474759 -1.640625,-1.171875 z m 89.980475,0.05859 c 0.57944,-1.738334 2.59765,-2.02665 2.59765,-0.371094 0,0.816406 -0.66797,1.484375 -1.48437,1.484375 -0.81641,0 -1.31739,-0.500977 -1.11328,-1.113281 z M 77.525487,77.212987 C 76.650573,76.338072 77.70785,75 79.274078,75 c 0.743008,0 1.350922,0.632812 1.350922,1.40625 0,1.412091 -1.979054,1.927196 -3.099513,0.806737 z M 188.96696,76.973236 c -0.28528,-0.461596 0.14621,-1.094408 0.95885,-1.40625 2.34048,-0.898124 3.19919,-0.672852 3.19919,0.839264 0,1.509342 -3.29771,1.959015 -4.15804,0.566986 z M 49.180201,75.875127 C 48.840326,75.325197 48.78736,74.65014 49.0625,74.375 c 0.671543,-0.671543 2.5,0.51171 2.5,1.617828 0,1.198099 -1.61851,1.118134 -2.382299,-0.117701 z m 11.2651,-1.200034 C 50.1335,72.095948 48.984102,71.502292 51.185603,69.892516 52.651161,68.820873 52.579732,68.660777 50.390948,68.111427 48.562328,67.652472 48.103027,67.06028 48.474358,65.640303 49.052672,63.42883 46.168358,61.859556 45,63.75 c -0.46393,0.750655 -1.407645,0.945007 -2.483508,0.511461 -3.452142,-1.391128 2.382888,-2.56341 7.401783,-1.48705 5.902982,1.265963 6.331725,1.238388 6.331725,-0.407223 0,-1.036459 -0.704449,-1.241924 -2.8125,-0.820313 -1.813871,0.362774 -2.8125,0.181672 -2.8125,-0.510049 0,-0.654284 -0.849728,-0.85928 -2.17894,-0.525669 -2.738414,0.687298 -5.538871,-2.001669 -3.070956,-2.948697 0.838075,-0.321599 2.158816,-0.05768 2.934979,0.58647 0.776163,0.644157 2.141884,1.253729 3.034936,1.354603 8.026412,0.906618 12.915994,3.975785 6.914054,4.339917 -0.900447,0.05463 -0.566691,0.405262 0.803427,0.84405 2.613822,0.837092 5.926662,1.100342 3.984375,0.316612 -1.822921,-0.735565 -1.413487,-3.313082 0.46875,-2.950927 2.479129,0.477002 2.367051,4.490127 -0.128003,4.583328 -1.089754,0.04071 -1.4514,0.287677 -0.803655,0.548823 0.647743,0.261144 0.910101,0.907817 0.583016,1.437052 -0.736558,1.191776 1.355674,2.5989 3.864267,2.5989 1.55764,0 1.63698,-0.156249 0.46875,-0.923144 -1.22381,-0.803379 -1.229617,-1.036746 -0.04477,-1.798785 1.861539,-1.197247 2.779825,-0.436992 2.191158,1.814075 -0.374286,1.431286 -0.02819,1.874066 1.464843,1.874066 1.352541,0 1.78864,-0.433314 1.415289,-1.40625 -0.597718,-1.557628 1.986484,-2.015173 2.913155,-0.515787 0.844923,1.367113 -3.146043,3.08944 -5.683249,2.452642 C 68.099577,72.302262 67.5,72.53801 67.5,73.605312 c 0,1.776503 3.021393,3.111759 3.537528,1.563354 0.202797,-0.608391 1.001535,-1.106166 1.774972,-1.106166 2.320486,0 0.819792,2.328227 -1.634799,2.536281 -1.249298,0.105891 -6.078878,-0.759768 -10.7324,-1.923688 z M 64.6875,72.65625 c 0,-0.773777 -0.830064,-1.40625 -1.845577,-1.40625 -1.255348,0 -1.672999,0.449729 -1.305947,1.40625 0.296795,0.773437 1.127305,1.40625 1.845576,1.40625 0.718271,0 1.305948,-0.632813 1.305948,-1.40625 z m -5.625,-0.9375 c 0,-0.875 -0.885416,-1.40625 -2.34375,-1.40625 -2.675088,0 -3.169049,1.521844 -0.703125,2.166257 2.824053,0.738003 3.046875,0.682422 3.046875,-0.760007 z M 60.27164,67.5 c 0.356166,-1.361983 0.02876,-1.875 -1.196607,-1.875 -1.711704,0 -3.160717,2.164315 -2.135438,3.189594 1.162042,1.162042 2.859522,0.492333 3.332045,-1.314594 z m -5.360925,-0.9375 c 0,-1.175 -0.625001,-1.875 -1.674108,-1.875 -1.899744,0 -2.286424,2.409175 -0.502232,3.129112 1.978265,0.798247 2.17634,0.684106 2.17634,-1.254112 z m 72.044745,9.252369 c -0.79906,-1.292896 1.03616,-3.076098 2.33786,-2.271604 0.56055,0.346441 1.01918,0.981733 1.01918,1.411761 0,1.247111 -2.69162,1.936518 -3.35704,0.859843 z M 144.375,75.537491 c 0,-0.869658 0.80156,-1.474991 1.95312,-1.474991 2.28474,0 1.96179,2.190725 -0.39019,2.646866 -0.92508,0.179412 -1.56293,-0.298838 -1.56293,-1.171875 z m 8.53974,0.05446 c -0.8358,-1.007081 -0.85304,-1.534178 -0.0661,-2.020546 1.529,-0.944967 3.42586,1.154079 2.17411,2.405833 -0.67798,0.677976 -1.32352,0.559991 -2.10803,-0.385287 z m 45.0426,-0.06474 c 0.17815,-0.860057 0.74578,-1.541456 1.26141,-1.51422 1.39152,0.0735 1.13587,2.170893 -0.32391,2.657489 -0.78855,0.262851 -1.13999,-0.165722 -0.9375,-1.143269 z m -80.11936,-0.18922 c -0.87491,-0.874915 0.18237,-2.212987 1.7486,-2.212987 0.74301,0 1.35092,0.632812 1.35092,1.40625 0,1.412091 -1.97905,1.927196 -3.09952,0.806737 z m 18.30405,-0.482828 c 0.48659,-1.459789 2.58399,-1.71543 2.65749,-0.323909 0.0273,0.515625 -0.65416,1.08326 -1.51422,1.261409 -0.97754,0.202488 -1.40612,-0.148949 -1.14327,-0.9375 z M 162.1875,74.53125 c 0,-0.773438 0.63281,-1.40625 1.40625,-1.40625 0.77344,0 1.40625,0.632812 1.40625,1.40625 0,0.773437 -0.63281,1.40625 -1.40625,1.40625 -0.77344,0 -1.40625,-0.632813 -1.40625,-1.40625 z m 41.01562,0.483689 c 1.16016,-0.490611 2.10938,-1.346604 2.10938,-1.90221 0,-0.646755 1.18049,-0.788729 3.28125,-0.394625 2.29298,0.430167 3.28125,0.271169 3.28125,-0.527901 0,-0.718931 0.78605,-0.946183 2.11717,-0.612094 2.13309,0.535373 5.31442,-0.709018 4.32981,-1.693626 -0.29148,-0.291481 -3.75512,-0.02856 -7.69698,0.584267 -7.61107,1.183268 -8.74432,0.924934 -7.70511,-1.756443 0.61909,-1.597395 0.71165,-1.599407 1.85979,-0.04043 0.66456,0.902344 1.90005,1.640625 2.74554,1.640625 1.80388,0 2.06393,-1.52696 0.3654,-2.145509 -0.64453,-0.234718 0.51563,-0.714798 2.57813,-1.066844 2.0625,-0.352046 4.50544,-1.053203 5.42876,-1.558126 0.92332,-0.504922 2.07476,-0.673302 2.55875,-0.374177 0.48399,0.299125 1.83793,0.01604 3.00874,-0.629078 1.17081,-0.645118 2.80245,-1.070926 3.62585,-0.946239 0.82341,0.124687 2.03137,-0.41704 2.68436,-1.203839 0.65298,-0.786799 1.5879,-1.182923 2.07759,-0.880277 0.48969,0.302647 1.70752,-0.189258 2.70627,-1.093123 1.57945,-1.429371 1.81593,-1.45143 1.81593,-0.169375 0,1.461339 -2.27129,2.495696 -13.125,5.977197 -2.83594,0.909672 -4.46793,1.801361 -3.62664,1.981532 0.84128,0.180171 4.1322,-0.549165 7.31313,-1.620745 5.6114,-1.890345 7.56351,-1.864272 7.56351,0.101027 0,0.522094 -1.12335,0.813603 -2.49633,0.647796 -1.40149,-0.16925 -2.66935,0.212772 -2.89084,0.871044 -0.25831,0.767759 0.19889,0.986044 1.32446,0.63234 1.63904,-0.515061 1.64071,-0.490025 0.0358,0.538505 -1.78031,1.140935 -17.29628,5.074253 -23.62933,5.990067 -2.88073,0.41658 -3.26104,0.33551 -1.64063,-0.349735 z M 224.0625,69.375 c 0,-0.515625 -0.86865,-0.9375 -1.93033,-0.9375 -1.06168,0 -1.6696,0.421875 -1.35092,0.9375 0.31868,0.515625 1.18732,0.9375 1.93033,0.9375 0.74301,0 1.35092,-0.421875 1.35092,-0.9375 z m -8.90625,-0.9375 c 0.31868,-0.515625 -0.26435,-0.9375 -1.2956,-0.9375 -1.03125,0 -2.13572,0.421875 -2.4544,0.9375 -0.31868,0.515625 0.26435,0.9375 1.2956,0.9375 1.03125,0 2.13572,-0.421875 2.4544,-0.9375 z M 42.617701,74.000127 c -0.859397,-1.390534 -0.05119,-1.968091 1.773981,-1.267709 0.844277,0.32398 1.301637,0.966722 1.016355,1.428318 -0.701683,1.135346 -2.036889,1.058494 -2.790336,-0.160609 z M 103.125,73.515625 c 0,-1.655556 2.01821,-1.36724 2.59765,0.371094 C 105.92676,74.499023 105.42578,75 104.60937,75 103.79297,75 103.125,74.332031 103.125,73.515625 Z m 7.5,0.602203 c 0,-1.624182 1.65009,-1.924688 2.82107,-0.513756 C 114.41017,74.765737 114.27066,75 112.61479,75 111.52041,75 110.625,74.603023 110.625,74.117828 Z m 60,-0.524078 c 0,-0.773438 0.63281,-1.40625 1.40625,-1.40625 0.77344,0 1.40625,0.632812 1.40625,1.40625 0,0.773437 -0.63281,1.40625 -1.40625,1.40625 -0.77344,0 -1.40625,-0.632813 -1.40625,-1.40625 z M 87.617701,73.062627 c -0.862823,-1.396078 0.137554,-2.155115 1.932537,-1.466315 0.828357,0.317869 1.243529,1.0028 0.922604,1.522066 -0.759914,1.229567 -2.076661,1.203856 -2.855141,-0.05575 z M 95.625,73.28125 c 0,-1.320932 1.055991,-1.926933 2.435409,-1.397603 C 100.01692,72.63443 99.649612,74.0625 97.5,74.0625 c -1.03125,0 -1.875,-0.351563 -1.875,-0.78125 z m 83.4375,-0.703125 c 0,-1.655556 2.01821,-1.36724 2.59765,0.371094 0.20411,0.612304 -0.29687,1.113281 -1.11328,1.113281 -0.8164,0 -1.48437,-0.667969 -1.48437,-1.484375 z m 8.15048,-0.05264 c -0.87491,-0.874913 0.18237,-2.212985 1.7486,-2.212985 0.74301,0 1.35092,0.632812 1.35092,1.40625 0,1.412091 -1.97905,1.927196 -3.09952,0.806737 z M 36.5625,71.25 c 0,-0.515625 0.421875,-0.9375 0.9375,-0.9375 0.515625,0 0.9375,0.421875 0.9375,0.9375 0,0.515625 -0.421875,0.9375 -0.9375,0.9375 -0.515625,0 -0.9375,-0.421875 -0.9375,-0.9375 z m 43.329531,-0.144841 c 0.486596,-1.459789 2.583987,-1.71543 2.657489,-0.323909 0.02723,0.515625 -0.654163,1.08326 -1.51422,1.261409 -0.977547,0.202488 -1.40612,-0.148949 -1.143269,-0.9375 z m 43.338739,0.06316 c -0.34645,-0.560552 -0.26235,-1.386736 0.18688,-1.835962 1.10876,-1.108764 3.54902,0.505235 2.74088,1.812833 -0.81895,1.325086 -2.11677,1.335339 -2.92776,0.02313 z m 9.60126,0.413718 c -1.32705,-1.327051 -0.57612,-3.144536 1.29921,-3.144536 1.31059,0 1.84501,0.509109 1.64062,1.562938 -0.33463,1.725449 -1.935,2.586427 -2.93983,1.581594 z m 16.875,0 c -1.32705,-1.327051 -0.57612,-3.144536 1.29921,-3.144536 1.31059,0 1.84501,0.509109 1.64062,1.562938 -0.33463,1.725449 -1.935,2.586427 -2.93983,1.581594 z M 195,71.305328 c 0,-1.350901 2.00747,-2.288818 2.68294,-1.253508 0.32907,0.504369 1.23112,1.157924 2.00456,1.452345 0.77344,0.29442 0.0352,0.568615 -1.64063,0.609322 C 196.37109,72.154193 195,71.790523 195,71.305328 Z M 46.621094,70.683593 C 46.245117,70.307618 45.9375,69.353125 45.9375,68.5625 c 0,-1.055244 0.277343,-1.160157 1.042969,-0.394531 0.573633,0.573633 0.88125,1.528125 0.683594,2.121093 -0.197657,0.592969 -0.666993,0.770508 -1.042969,0.394531 z M 114.0625,70.625 c -1.45343,-1.453428 -0.48041,-3.125 1.81905,-3.125 1.84349,0 2.30423,0.364389 1.875,1.482925 -0.31298,0.81561 -0.56905,1.65936 -0.56905,1.875 0,0.631874 -2.44223,0.44984 -3.125,-0.232925 z m 26.79643,-0.546875 c 0.59066,-1.773928 3.51607,-2.026125 3.51607,-0.303116 0,0.869658 -0.80156,1.474991 -1.95312,1.474991 -1.14561,0 -1.79181,-0.484515 -1.56295,-1.171875 z M 157.5,69.84375 c 0,-0.78125 0.83333,-1.40625 1.875,-1.40625 1.04167,0 1.875,0.625 1.875,1.40625 0,0.78125 -0.83333,1.40625 -1.875,1.40625 -1.04167,0 -1.875,-0.625 -1.875,-1.40625 z M 97.951397,69.346925 c -1.021913,-1.653494 1.192866,-3.389132 2.928043,-2.294604 0.79907,0.504036 1.52574,1.338304 1.61483,1.853929 0.23148,1.339741 -3.748604,1.725824 -4.542873,0.440675 z M 105.9375,68.90625 c 0,-0.773438 0.63281,-1.40625 1.40625,-1.40625 0.77344,0 1.40625,0.632812 1.40625,1.40625 0,0.773437 -0.63281,1.40625 -1.40625,1.40625 -0.77344,0 -1.40625,-0.632813 -1.40625,-1.40625 z m 60,0 c 0,-0.78125 0.83333,-1.40625 1.875,-1.40625 1.04167,0 1.875,0.625 1.875,1.40625 0,0.78125 -0.83333,1.40625 -1.875,1.40625 -1.04167,0 -1.875,-0.625 -1.875,-1.40625 z m 9.375,0 c 0,-0.78125 0.83333,-1.40625 1.875,-1.40625 1.04167,0 1.875,0.625 1.875,1.40625 0,0.78125 -0.83333,1.40625 -1.875,1.40625 -1.04167,0 -1.875,-0.625 -1.875,-1.40625 z M 39.497926,68.116867 c -0.574287,-0.691974 -0.795637,-1.506657 -0.491887,-1.810406 0.905864,-0.905864 3.181461,0.354862 3.181461,1.762591 0,1.656855 -1.334499,1.68058 -2.689574,0.04781 z M 183.91,67.830278 c 0.18165,-0.943248 1.10203,-1.863621 2.04528,-2.045275 1.23851,-0.238516 1.62324,0.146202 1.38472,1.384719 -0.18165,0.943248 -1.10203,1.863621 -2.04528,2.045275 -1.23851,0.238516 -1.62324,-0.146202 -1.38472,-1.384719 z M 82.699219,67.324219 c -1.771288,-1.771288 -1.35255,-2.636719 1.275772,-2.636719 1.748142,0 2.32902,0.430401 2.109375,1.562938 -0.392165,2.022096 -1.944443,2.514485 -3.385147,1.073781 z M 90,67.03125 C 90,66.25 90.833333,65.625 91.875,65.625 c 1.041667,0 1.875,0.625 1.875,1.40625 0,0.78125 -0.833333,1.40625 -1.875,1.40625 -1.041667,0 -1.875,-0.625 -1.875,-1.40625 z m 102.1875,0 c 0,-0.773438 0.63281,-1.40625 1.40625,-1.40625 0.77344,0 1.40625,0.632812 1.40625,1.40625 0,0.773437 -0.63281,1.40625 -1.40625,1.40625 -0.77344,0 -1.40625,-0.632813 -1.40625,-1.40625 z M 33.359484,65.959567 c -0.325115,-0.847238 -0.398319,-1.733232 -0.162675,-1.968877 0.745064,-0.745063 2.428191,0.751047 2.428191,2.158388 0,1.83893 -1.536449,1.710406 -2.265516,-0.189511 z m 42.058781,0.521247 C 75.071825,65.920261 75.221106,65.028894 75.75,64.5 c 1.182778,-1.182778 3,-0.183864 3,1.649078 0,1.578394 -2.412784,1.81863 -3.331735,0.331736 z m 123.646575,-0.45008 c -0.7417,-1.932849 1.20228,-3.951111 2.52839,-2.625 1.07363,1.073625 0.26359,4.094266 -1.09795,4.094266 -0.47665,0 -1.12034,-0.66117 -1.43044,-1.469266 z M 68.855765,65.543314 c -0.34644,-0.560553 -0.178281,-1.470798 0.373689,-2.022768 1.169907,-1.169907 4.213336,0.831805 3.361146,2.210679 -0.713565,1.154571 -2.97547,1.040767 -3.734835,-0.187911 z M 206.25,64.21875 c 0,-0.773777 0.83006,-1.40625 1.84558,-1.40625 1.25534,0 1.673,0.449729 1.30595,1.40625 -0.29681,0.773437 -1.12731,1.40625 -1.84558,1.40625 -0.71827,0 -1.30595,-0.632813 -1.30595,-1.40625 z m 27.36328,0.410156 c 0.22558,-0.676758 0.96386,-1.415039 1.64063,-1.640625 0.70312,-0.234375 1.05468,0.117188 0.82031,0.820313 -0.22559,0.676758 -0.96387,1.415039 -1.64063,1.640625 -0.70312,0.234375 -1.05468,-0.117188 -0.82031,-0.820313 z M 104.7904,63.062347 c 2.20504,-0.198043 5.58004,-0.195256 7.5,0.0062 1.91997,0.201448 0.11585,0.363483 -4.00915,0.360078 -4.125,-0.0034 -5.69588,-0.168226 -3.49085,-0.366269 z m 107.26929,0.0502 c -2.04014,-0.817392 1.85365,-3.076912 4.28061,-2.483985 1.16685,0.285072 2.69541,0.04205 3.3968,-0.540051 0.70138,-0.582099 1.97724,-0.788981 2.83524,-0.459737 0.88258,0.33868 2.30016,-0.07121 3.2645,-0.943928 0.95244,-0.861956 2.38479,-1.281507 3.24633,-0.950899 0.89138,0.342054 1.54183,0.127187 1.54183,-0.509323 0,-0.651247 0.72055,-0.872283 1.76398,-0.541114 1.13244,0.359423 1.96944,0.02445 2.33785,-0.935627 0.4238,-1.104409 0.14638,-1.363193 -1.06085,-0.989582 -4.00038,1.238029 -15.28409,3.277561 -20.85348,3.76927 -3.74434,0.330578 -1.36144,-0.311364 6.1806,-1.665027 6.7509,-1.211667 13.60637,-2.867524 15.23438,-3.679683 2.73089,-1.362348 2.9589,-1.355217 2.94567,0.09212 -0.0337,3.677654 -6.34273,6.948872 -15.82908,8.20728 -2.65301,0.351935 -5.05002,1.00615 -5.32669,1.453811 -0.54574,0.883011 -2.02915,0.949159 -3.95769,0.176479 z M 36.25,62.1875 C 35.171281,61.108781 35.567274,60 37.03125,60 c 0.773437,0 1.40625,0.632812 1.40625,1.40625 0,1.463976 -1.108781,1.859969 -2.1875,0.78125 z M 90,61.857428 c -1.455996,-0.477207 -0.21314,-0.570038 3.28125,-0.245083 3.09375,0.287699 5.800781,0.675429 6.015628,0.861622 C 100.05313,63.129373 92.31511,62.616213 90,61.857428 Z M 29.631552,60.392075 c -0.81248,-2.117292 -0.734919,-2.271878 0.837198,-1.668599 0.773438,0.296795 1.40625,1.127305 1.40625,1.845576 0,1.776136 -1.540604,1.654603 -2.243448,-0.176977 z m 82.183168,-1.041754 c 0.91216,-0.237697 2.17778,-0.222065 2.8125,0.03473 0.63471,0.256803 -0.11159,0.451283 -1.65847,0.432177 -1.54687,-0.01911 -2.06619,-0.229217 -1.15403,-0.466915 z m 89.04465,0.0035 c 0.90235,-0.235807 2.37891,-0.235807 3.28125,0 0.90235,0.235807 0.16407,0.42874 -1.64062,0.42874 -1.80469,0 -2.54297,-0.192933 -1.64063,-0.42874 z M 236.25,59.117828 c 0,-0.485194 0.42187,-1.142904 0.9375,-1.461578 0.51562,-0.318674 0.9375,0.0783 0.9375,0.882172 C 238.125,59.342289 237.70312,60 237.1875,60 236.67187,60 236.25,59.603023 236.25,59.117828 Z M 39.69851,57.615817 c -0.30533,-0.795675 -0.320157,-1.681669 -0.03295,-1.968877 0.820979,-0.820979 2.521941,0.571548 2.521941,2.064638 0,1.798927 -1.788334,1.730123 -2.48899,-0.09576 z m 25.750709,0.806264 c 0.676758,-0.270817 1.485351,-0.23751 1.796875,0.07402 0.311523,0.311524 -0.242188,0.533101 -1.230469,0.492394 -1.092134,-0.04498 -1.314281,-0.267132 -0.566406,-0.566407 z m 32.753906,-0.03776 c 1.675781,-0.207962 4.417965,-0.207962 6.093755,0 1.67578,0.207963 0.30468,0.378114 -3.04688,0.378114 -3.351563,0 -4.722656,-0.170151 -3.046875,-0.378114 z M 87.1875,57.159838 C 86.204816,56.505449 87.051949,56.40788 90,56.835905 c 5.251266,0.762427 5.999972,1.293576 1.796875,1.274739 -1.761719,-0.0079 -3.835938,-0.435758 -4.609375,-0.950806 z m 153.28125,0.02766 c 0.31868,-0.515625 0.76545,-0.9375 0.99283,-0.9375 0.22738,0 0.41342,0.421875 0.41342,0.9375 0,0.515625 -0.44678,0.9375 -0.99283,0.9375 -0.54606,0 -0.73209,-0.421875 -0.41342,-0.9375 z M 27.1875,55.78125 c 0,-0.773438 0.165802,-1.40625 0.368448,-1.40625 0.202646,0 0.611281,0.632812 0.908076,1.40625 0.296797,0.773437 0.130995,1.40625 -0.368447,1.40625 -0.499442,0 -0.908077,-0.632813 -0.908077,-1.40625 z m 6.88601,-0.04043 c -0.30533,-0.795674 -0.320157,-1.681668 -0.03295,-1.968876 0.820979,-0.820979 2.521941,0.571548 2.521941,2.064638 0,1.798927 -1.788334,1.730123 -2.48899,-0.09576 z m 12.859927,-0.495793 c -4.350672,-0.98142 -8.358484,-2.258895 -8.90625,-2.838832 -0.731358,-0.774311 -0.373299,-0.85736 1.347813,-0.312609 1.289062,0.408 6.140625,1.68078 10.78125,2.828397 10.300549,2.547303 7.764368,2.801524 -3.222813,0.323046 z m 154.881283,1.292796 c 0.91215,-0.237696 2.17778,-0.222065 2.8125,0.03473 0.63471,0.256803 -0.1116,0.451283 -1.65847,0.432177 -1.54688,-0.01911 -2.06619,-0.229217 -1.15403,-0.466915 z m -96.56745,-0.960553 c 1.42505,-0.215489 3.53443,-0.20973 4.6875,0.0128 1.15306,0.222527 -0.0129,0.398835 -2.59102,0.391797 -2.57813,-0.007 -3.52154,-0.189106 -2.09648,-0.404594 z m 102.64335,0.05184 c 0.64454,-0.260074 1.69922,-0.260074 2.34375,0 0.64454,0.260074 0.11719,0.472862 -1.17187,0.472862 -1.28906,0 -1.81641,-0.212788 -1.17188,-0.472862 z m 30.49063,-1.23385 C 238.45976,53.352868 238.85611,52.5 239.262,52.5 c 1.03666,0 0.92286,2.587597 -0.14276,3.246184 -0.48442,0.299388 -0.81652,-0.308528 -0.73799,-1.350922 z M 29.0625,53.828125 c 0,-1.655556 2.018212,-1.36724 2.597656,0.371094 0.204102,0.612304 -0.296874,1.113281 -1.113281,1.113281 -0.816406,0 -1.484375,-0.667969 -1.484375,-1.484375 z m 60.46875,0.0995 c -6.228453,-1.600973 -4.545919,-1.625252 5.15625,-0.07441 5.98529,0.956722 6.91868,1.274455 3.75,1.276528 -2.320313,0.0015 -6.328125,-0.539439 -8.90625,-1.202124 z M 212.8125,55.06467 c 0.25781,-0.254118 4.05469,-1.172968 8.4375,-2.041891 4.38281,-0.868922 9.77647,-2.185765 11.98589,-2.926319 4.63047,-1.552039 6.6267,-1.744597 5.31099,-0.512304 -1.42991,1.339244 -27.07348,6.800418 -25.73438,5.480514 z M 52.5,53.4375 c -3.150943,-1.009108 0.253014,-1.009108 4.21875,0 2.526295,0.642833 2.573996,0.717438 0.46875,0.73313 -1.289063,0.0096 -3.398438,-0.3203 -4.6875,-0.73313 z m 152.67492,-0.237418 c 0.47235,-0.472356 1.8567,-0.701856 3.07632,-0.509999 1.87659,0.295198 1.74454,0.427237 -0.85882,0.858828 -1.86302,0.308853 -2.7376,0.171274 -2.2175,-0.348829 z m 36.72989,0.05837 c -0.0164,-0.871914 0.42013,-1.863377 0.97006,-2.203253 1.65242,-1.02125 1.8841,0.05535 0.42651,1.981988 -1.19997,1.586123 -1.37038,1.613122 -1.39657,0.221265 z M 40.3125,50.625 c -6.874646,-2.254786 -3.963712,-2.281065 3.75,-0.03385 3.351562,0.9764 5.039062,1.763969 3.75,1.750151 -1.289063,-0.01382 -4.664063,-0.786151 -7.5,-1.716298 z m 19.002217,1.225321 c 0.912157,-0.237697 2.177782,-0.222065 2.8125,0.03473 0.634718,0.256807 -0.111592,0.451287 -1.658467,0.43218 -1.546875,-0.0191 -2.06619,-0.229217 -1.154033,-0.466914 z m 53.888413,0.02879 c 0.64453,-0.260074 1.69921,-0.260074 2.34375,0 0.64453,0.260074 0.11718,0.472861 -1.17188,0.472861 -1.28906,0 -1.81641,-0.212787 -1.17187,-0.472861 z m 73.18359,-0.01953 c 0.67675,-0.270816 1.48535,-0.23751 1.79688,0.07402 0.31152,0.311524 -0.2422,0.533101 -1.23047,0.492394 -1.09214,-0.04498 -1.31428,-0.267132 -0.56641,-0.566407 z m 26.678,-0.0093 c 0.91215,-0.237696 2.17778,-0.222064 2.8125,0.03473 0.63471,0.256802 -0.1116,0.451282 -1.65847,0.432176 -1.54688,-0.01911 -2.06619,-0.229217 -1.15403,-0.466915 z M 45.266712,49.237337 c -4.751746,-1.228136 -9.392371,-2.71581 -10.3125,-3.305942 -1.525238,-0.978224 -1.507399,-1.016533 0.202038,-0.433852 1.03125,0.351513 6.515625,1.829078 12.1875,3.283477 5.671875,1.454399 9.46875,2.65447 8.4375,2.666827 -1.03125,0.01236 -5.762792,-0.982375 -10.514538,-2.21051 z m 55.280168,1.653675 c 1.41796,-0.214805 3.73828,-0.214805 5.15625,0 1.41796,0.214804 0.25781,0.390553 -2.57813,0.390553 -2.83594,0 -3.996094,-0.175749 -2.57812,-0.390553 z m 91.46484,0.03107 c 0.67675,-0.270817 1.48535,-0.23751 1.79688,0.07402 0.31152,0.311524 -0.2422,0.533101 -1.23047,0.492394 -1.09214,-0.04498 -1.31428,-0.267132 -0.56641,-0.566407 z m 10.2539,0.01953 c 0.64454,-0.260074 1.69922,-0.260074 2.34375,0 0.64454,0.260074 0.11719,0.472862 -1.17187,0.472862 -1.28906,0 -1.81641,-0.212788 -1.17188,-0.472862 z m 15.9375,0 c 0.64454,-0.260074 1.69922,-0.260074 2.34375,0 0.64454,0.260074 0.11719,0.472862 -1.17187,0.472862 -1.28906,0 -1.81641,-0.212788 -1.17188,-0.472862 z m -153.749995,-0.9375 c 0.644531,-0.260074 1.699219,-0.260074 2.34375,0 0.644531,0.260074 0.117187,0.472862 -1.171875,0.472862 -1.289063,0 -1.816406,-0.212788 -1.171875,-0.472862 z m 27.1875,-0.04073 c 1.160156,-0.223456 3.058594,-0.223456 4.21875,0 1.160156,0.223456 0.210937,0.406284 -2.109375,0.406284 -2.320313,0 -3.269531,-0.182828 -2.109375,-0.406284 z m 115.312495,0.04073 c 0.64454,-0.260074 1.69922,-0.260074 2.34375,0 0.64454,0.260074 0.11719,0.472862 -1.17187,0.472862 -1.28906,0 -1.81641,-0.212788 -1.17188,-0.472862 z m 15.9375,0 c 0.64454,-0.260074 1.69922,-0.260074 2.34375,0 0.64454,0.260074 0.11719,0.472862 -1.17187,0.472862 -1.28906,0 -1.81641,-0.212788 -1.17188,-0.472862 z M 60.761719,49.047081 c 0.676758,-0.270817 1.485351,-0.23751 1.796875,0.07402 0.311523,0.311524 -0.242188,0.533101 -1.230469,0.492394 -1.092134,-0.04498 -1.314281,-0.267132 -0.566406,-0.566407 z m 25.253906,0.01953 c 0.644531,-0.260074 1.699219,-0.260074 2.34375,0 0.644531,0.260074 0.117187,0.472862 -1.171875,0.472862 -1.289063,0 -1.816406,-0.212788 -1.171875,-0.472862 z m 115.312495,0 c 0.64454,-0.260074 1.69922,-0.260074 2.34375,0 0.64454,0.260074 0.11719,0.472862 -1.17187,0.472862 -1.28906,0 -1.81641,-0.212788 -1.17188,-0.472862 z m 10.7991,-0.02879 c 0.91215,-0.237696 2.17778,-0.222065 2.8125,0.03473 0.63471,0.256803 -0.1116,0.451283 -1.65847,0.432177 -1.54688,-0.01911 -2.06619,-0.229217 -1.15403,-0.466915 z m 19.90403,-1.261927 c 6.19737,-1.995033 7.90174,-2.27203 6.51562,-1.058933 -1.17245,1.026109 -8.12907,2.984217 -10.37439,2.920126 -0.97143,-0.02773 0.76502,-0.865266 3.85877,-1.861193 z m -125.39062,0.312484 c 1.16015,-0.223456 3.05859,-0.223456 4.21875,0 1.16015,0.223456 0.21093,0.406284 -2.10938,0.406284 -2.32031,0 -3.26953,-0.182828 -2.10937,-0.406284 z m 110.62499,0.04073 c 0.64454,-0.260074 1.69922,-0.260074 2.34375,0 0.64454,0.260074 0.11719,0.472862 -1.17187,0.472862 -1.28906,0 -1.81641,-0.212788 -1.17188,-0.472862 z M 52.324219,47.172081 c 0.676758,-0.270817 1.485351,-0.23751 1.796875,0.07402 0.311523,0.311524 -0.242188,0.533101 -1.230469,0.492394 -1.092134,-0.04498 -1.314281,-0.267132 -0.566406,-0.566407 z M 61.875,46.875 c -1.930829,-0.61836 -2.013413,-0.764535 -0.46875,-0.829694 1.03125,-0.0435 2.507812,0.32986 3.28125,0.829694 1.642634,1.061552 0.502197,1.061552 -2.8125,0 z m 28.59375,0.248504 c -2.0625,-0.205592 -4.080595,-0.6973 -4.484657,-1.092685 -0.643347,-0.629534 2.015983,-0.412006 13.859657,1.133691 3.72786,0.486516 -4.441359,0.450783 -9.375,-0.04101 z m 102.48047,0.04857 c 0.67675,-0.270817 1.48535,-0.23751 1.79688,0.07402 0.31152,0.311523 -0.2422,0.5331 -1.23047,0.492393 -1.09214,-0.04498 -1.31428,-0.267132 -0.56641,-0.566406 z m 36.27891,-1.59842 c 4.64579,-1.132944 9.07548,-2.420197 9.84375,-2.860563 1.09318,-0.626591 1.15881,-0.542893 0.30189,0.38498 -1.08565,1.175524 -14.48428,4.775498 -17.18627,4.61764 -0.77344,-0.04519 2.39485,-1.009112 7.04063,-2.142057 z m -30.65391,0.660925 c 0.67675,-0.270817 1.48535,-0.23751 1.79688,0.07402 0.31152,0.311524 -0.2422,0.533101 -1.23047,0.492394 -1.09214,-0.04498 -1.31428,-0.267132 -0.56641,-0.566407 z m 15.8789,0.01953 c 0.64454,-0.260074 1.69922,-0.260074 2.34375,0 0.64454,0.260074 0.11719,0.472862 -1.17187,0.472862 -1.28906,0 -1.81641,-0.212788 -1.17188,-0.472862 z M 43.886719,45.297081 c 0.676758,-0.270817 1.485351,-0.23751 1.796875,0.07402 0.311523,0.311524 -0.242188,0.533101 -1.230469,0.492394 -1.092134,-0.04498 -1.314281,-0.267132 -0.566406,-0.566407 z m 174.628901,0.271441 c 0.21485,-0.202936 4.39844,-1.435719 9.29688,-2.739516 4.89844,-1.303797 9.75,-2.676411 10.78125,-3.050253 1.35084,-0.489699 1.60815,-0.387391 0.92042,0.365977 -0.52503,0.575129 -5.06545,2.113783 -10.08985,3.41923 -8.68768,2.257248 -11.77725,2.824983 -10.9087,2.004562 z M 37.96875,44.309364 c -3.232448,-0.815667 -6.36988,-2.158233 -5.972409,-2.555705 0.20976,-0.20976 2.69405,0.405271 5.520646,1.366735 4.695901,1.597308 4.974371,2.330194 0.451763,1.18897 z m 14.355469,0.05021 c 0.676758,-0.270817 1.485351,-0.23751 1.796875,0.07401 0.311523,0.311524 -0.242188,0.533101 -1.230469,0.492394 -1.092134,-0.04498 -1.314281,-0.267132 -0.566406,-0.566406 z m 156.562501,0 c 0.67675,-0.270817 1.48535,-0.23751 1.79688,0.07401 0.31152,0.311524 -0.2422,0.533101 -1.23047,0.492394 -1.09214,-0.04498 -1.31428,-0.267132 -0.56641,-0.566406 z m 3.0664,-0.641462 c 0.21485,-0.189406 2.07813,-0.601329 4.14063,-0.915382 2.61356,-0.397961 3.18178,-0.313564 1.875,0.27849 -1.79973,0.815389 -6.82111,1.347021 -6.01563,0.636896 z M 38.102164,40.816764 c -5.48825,-1.936685 -8.526719,-3.353017 -7.086539,-3.303272 1.359087,0.04694 16.055848,5.490347 14.921875,5.52678 -0.773438,0.02485 -4.299338,-0.975729 -7.835336,-2.223508 z M 45.46875,39.808141 C 41.34375,38.554749 36.175781,37.050709 33.984375,36.465829 31.792969,35.880948 30,35.057368 30,34.635651 c 0,-0.421718 3.687818,0.479802 8.195152,2.003378 4.507334,1.523575 10.940927,3.360869 14.296875,4.082874 3.553545,0.764517 4.927178,1.323677 3.289223,1.338934 -1.546875,0.01441 -6.1875,-0.999305 -10.3125,-2.252696 z m 175.60547,1.73894 c 0.67675,-0.270817 1.48535,-0.23751 1.79688,0.07402 0.31152,0.311524 -0.2422,0.533101 -1.23047,0.492394 -1.09214,-0.04498 -1.31428,-0.267132 -0.56641,-0.566407 z m 3.45703,-0.860921 c 4.01542,-1.78097 16.40625,-5.50186 16.40625,-4.926692 0,0.764238 -14.30878,5.542445 -16.22027,5.416519 -0.61791,-0.04071 -0.70161,-0.261129 -0.18598,-0.489827 z M 74.223055,118.44845 c 0.942945,-0.85335 1.714445,-2.21285 1.714445,-3.0211 0,-1.07143 -0.395374,-0.90508 -1.45941,0.61405 -0.984696,1.40585 -2.433201,2.08827 -4.453125,2.09795 -2.277719,0.0109 -2.657388,0.23172 -1.587465,0.92315 2.057278,1.32952 3.847945,1.13947 5.785555,-0.61405 z m 32.221745,-1.19858 c -0.75865,-1.22752 -3.3198,-1.32867 -3.3198,-0.13111 0,0.47782 0.73828,1.03298 1.64063,1.23369 2.04589,0.45507 2.46981,0.17672 1.67917,-1.10258 z m 4.58792,-2.85167 c 6.63943,-2.5243 2.1202,-9.63297 -6.82863,-10.74131 -2.75806,-0.3416 -8.346365,-1.67357 -12.418453,-2.95995 -8.827754,-2.788678 -12.293146,-1.467768 -10.490145,3.99856 1.924429,5.83448 22.367498,12.50467 29.737228,9.7027 z m -3.97022,-3.9607 c -0.61875,-0.61875 -1.125,-1.54688 -1.125,-2.0625 0,-0.52084 0.5,-0.4375 1.125,0.1875 1.56163,1.56163 2.67444,1.40719 2.02653,-0.28125 -0.69045,-1.79927 0.9572,-1.827 2.43939,-0.0411 2.2261,2.68228 -1.93407,4.72916 -4.46592,2.19731 z m -23.620429,-4.96324 c -1.60579,-1.93486 -0.08427,-3.55883 2.934177,-3.13175 1.487919,0.21051 2.217502,0.93063 2.217502,2.18874 0,2.37419 -3.441137,3.00409 -5.151679,0.94301 z M 86.25,104.58658 c 0,-0.22738 -0.421875,-0.67415 -0.9375,-0.99283 -0.515625,-0.31868 -0.9375,-0.13264 -0.9375,0.41342 0,0.54605 0.421875,0.99283 0.9375,0.99283 0.515625,0 0.9375,-0.18604 0.9375,-0.41342 z m -8.4375,6.97592 c 0.551908,-1.03125 0.792532,-1.875 0.53472,-1.875 -0.257813,0 -0.920312,0.84375 -1.47222,1.875 -0.551908,1.03125 -0.792532,1.875 -0.53472,1.875 0.257813,0 0.920312,-0.84375 1.47222,-1.875 z M 195.11959,97.813247 c 1.16542,-1.414603 1.02165,-1.496691 -1.52584,-0.871163 -3.88372,0.953625 -5.20758,2.432916 -2.17729,2.432916 1.32905,0 2.99546,-0.702787 3.70313,-1.561753 z M 183.75,42.743476 c 19.57987,-2.550327 37.86245,-5.435944 39.84375,-6.288705 2.44325,-1.051584 -4.22783,-0.304276 -18.7119,2.096148 -24.21384,4.012923 -75.29498,5.335625 -103.1631,2.671319 C 84.066797,39.534639 67.2125,37.472665 62.8125,36.462404 57.000124,35.127854 52.082388,34.09099 45.46875,32.80562 c -6.886955,-1.338491 -20.555449,-5.366743 -24.375,-7.183575 -2.562032,-1.218673 -2.651303,-1.20917 -1.002429,0.106701 6.641026,5.299818 38.896533,13.672293 61.939929,16.077579 26.49875,2.765957 32.81553,3.055229 60.46875,2.769104 20.21241,-0.209135 33.2292,-0.787224 41.25,-1.831953 z m -23.28444,-2.061759 c 11.00038,-0.511905 13.64935,-0.89364 13.25907,-1.910714 C 173.43885,38.026277 173.86071,37.5 174.74345,37.5 c 0.82861,0 1.50655,0.436982 1.50655,0.97107 0,1.132725 16.94298,0.418145 25.78125,-1.08734 3.09375,-0.52698 6.89062,-1.130942 8.4375,-1.34214 6.19603,-0.845955 7.16574,-1.328444 6.55259,-3.26032 -0.3324,-1.047278 -0.15291,-1.84377 0.41548,-1.84377 0.94638,0 1.40432,1.348996 1.07336,3.161888 -0.0821,0.449977 0.60617,0.503256 1.52961,0.1184 0.92343,-0.384857 2.94459,-0.982473 4.49146,-1.328035 3.50343,-0.782646 2.55785,-1.241952 -8.90625,-4.326094 -4.38281,-1.179092 -6.91406,-2.160158 -5.625,-2.180149 2.27296,-0.03525 16.36468,3.464071 20.15625,5.005288 1.29993,0.528404 1.58746,0.459809 0.9375,-0.223647 -0.51562,-0.542194 -4.3125,-2.06106 -8.4375,-3.375257 -8.51777,-2.713704 -6.05992,-3.216274 3.51563,-0.718861 3.48046,0.907746 6.32812,1.5219 6.32812,1.364789 0,-0.779893 -7.84817,-3.520613 -14.36722,-5.017295 -4.0348,-0.926329 -7.62074,-1.986234 -7.96875,-2.355344 -0.34803,-0.369111 0.21097,-0.436818 1.24222,-0.150461 1.03125,0.286358 4.40625,1.022981 7.5,1.636941 3.09375,0.613961 8.761,2.323417 12.5939,3.79879 3.83289,1.475374 7.16763,2.483775 7.4105,2.240894 0.74075,-0.740744 -8.31696,-4.458275 -16.2544,-6.671249 -4.125,-1.150058 -6.86719,-2.12212 -6.09375,-2.160137 2.08587,-0.102529 18.82215,4.607387 21.75032,6.120965 3.011,1.556394 6.81193,1.867301 4.49968,0.368066 -2.25808,-1.464117 -13.12488,-5.402024 -19.0754,-6.912539 -6.12941,-1.555926 -8.31029,-2.791747 -3.35624,-1.901854 5.53489,0.994228 16.04384,4.230806 21.33505,6.570829 5.73142,2.534709 5.78409,2.547816 5.78409,1.439536 0,-1.967465 -17.47945,-8.67815 -28.39772,-10.902409 -1.43905,-0.293163 -2.4179,-0.85431 -2.17521,-1.246993 1.51502,-2.451348 19.27572,0.733593 27.76043,4.978144 5.45587,2.729352 8.4375,3.633592 8.4375,2.558852 0,-0.94498 -3.80583,-2.724635 -13.21687,-6.180385 -5.31948,-1.953321 -9.06071,-2.894494 -23.22188,-5.8418743 -1.221,-0.254128 -2.02464,-0.6574014 -1.78588,-0.8961632 0.90577,-0.9057817 19.4046,3.4434405 28.6391,6.7332845 5.29827,1.887539 9.87568,3.189437 10.172,2.893108 C 257.7497,13.500299 224.47957,6.4278036 191.25,4.2605968 187.38281,4.0083819 178.52344,3.3603051 171.5625,2.820426 149.46457,1.1065468 96.350709,1.1178727 75.9375,2.8408169 71.039062,3.2542617 63.445312,3.8802559 59.0625,4.2319151 42.930472,5.5262839 23.085043,10.308118 17.581631,14.226893 c -4.382939,3.120928 -2.860251,3.439291 3.030401,0.633597 3.086618,-1.470145 6.145212,-2.639715 6.796875,-2.599047 0.651663,0.04067 -0.713595,1.004687 -3.033907,2.142264 -6.683363,3.276645 -8.631803,4.46449 -8.136166,4.960128 0.254057,0.254056 1.847591,-0.254638 3.541188,-1.13043 4.332209,-2.240272 17.709693,-6.993882 19.504888,-6.930947 0.822987,0.02885 -1.667723,1.229161 -5.53491,2.667351 -8.778452,3.264672 -15.9375,6.438931 -15.9375,7.066549 0,1.462066 5.336397,3.044603 7.5,2.224164 3.381008,-1.282078 20.837435,-5.457275 22.5,-5.381509 1.579222,0.07196 -3.276994,1.599937 -14.832403,4.666899 -4.561919,1.210795 -7.454466,2.417219 -6.966215,2.90547 0.488251,0.488251 2.406157,0.28058 4.618955,-0.50014 4.836993,-1.706591 18.799981,-4.567386 20.129495,-4.124215 0.557593,0.185865 -4.202233,1.538718 -10.577388,3.006342 -8.09741,1.864103 -11.026037,2.872763 -9.716194,3.346393 1.03125,0.372892 2.71875,0.326108 3.75,-0.103965 3.222938,-1.344097 17.537752,-4.694295 18.015703,-4.216345 0.250147,0.250148 -1.169803,0.885049 -3.155445,1.410892 -1.985642,0.525843 -5.614164,1.48482 -8.063383,2.131059 -2.449219,0.64624 -4.453125,1.554493 -4.453125,2.018341 0,0.463848 0.738281,0.538304 1.640625,0.165457 1.55552,-0.642737 14.292105,-4.160034 15.1875,-4.194134 2.123939,-0.08089 -2.652153,1.949543 -7.757308,3.297817 -4.53338,1.197268 -5.985047,1.920761 -4.981175,2.482556 0.868369,0.485963 4.174868,0.03618 8.542294,-1.162004 3.919043,-1.075175 7.637135,-1.747322 8.262425,-1.493663 0.671359,0.27235 0.501031,0.491507 -0.415967,0.535214 -1.11259,0.05303 -1.404535,0.6412 -1.029711,2.074526 0.379473,1.451106 0.162267,1.869493 -0.790894,1.523438 -0.722721,-0.262392 -1.196514,-0.987853 -1.052873,-1.612137 0.186391,-0.810077 -0.618867,-0.946274 -2.8125,-0.475691 -4.754676,1.019986 -5.248345,1.739854 -1.667416,2.43142 1.804687,0.348529 6.65625,1.330757 10.78125,2.182728 4.125,0.851971 8.630493,1.332236 10.012207,1.067254 1.381714,-0.26498 2.659364,-0.04031 2.839221,0.499259 0.6656,1.9968 30.629212,4.351614 31.850862,2.503131 0.63608,-0.962477 1.04578,-0.896747 1.97953,0.317584 2.02691,2.635992 23.69862,3.497421 53.31499,2.119218 z m -46.82353,-2.389058 c 0.4866,-1.459789 2.58399,-1.71543 2.65749,-0.323909 0.0272,0.515625 -0.65416,1.08326 -1.51422,1.261409 -0.97754,0.202488 -1.40612,-0.148949 -1.14327,-0.9375 z m 8.69762,0.138219 c -0.32091,-0.519266 0.0943,-1.204197 0.92262,-1.522066 1.79497,-0.6888 2.79535,0.07024 1.93253,1.466315 -0.77848,1.259607 -2.09523,1.285318 -2.85515,0.05575 z m 9.84785,-0.462128 c 0,-0.965586 0.61444,-1.425403 1.64062,-1.227777 1.9761,0.380562 1.8515,2.044389 -0.18485,2.468393 -0.84936,0.176852 -1.45577,-0.339934 -1.45577,-1.240616 z m 17.8125,0 c 0,-0.773438 0.63281,-1.40625 1.40625,-1.40625 0.77344,0 1.40625,0.632812 1.40625,1.40625 0,0.773437 -0.63281,1.40625 -1.40625,1.40625 C 150.63281,39.375 150,38.742187 150,37.96875 Z m 15.9375,-0.07812 c 0,-1.655556 2.01821,-1.367241 2.59765,0.371094 0.20411,0.612301 -0.29687,1.113278 -1.11328,1.113278 -0.8164,0 -1.48437,-0.667969 -1.48437,-1.484375 z m -23.86621,-0.325846 c -0.29666,-0.479996 -0.11062,-1.137706 0.41342,-1.461578 1.11878,-0.69145 2.82779,0.186157 2.82779,1.452127 0,1.140755 -2.53746,1.148154 -3.24121,0.0095 z m 16.5459,-0.135095 c 0.18476,-0.554296 0.73672,-1.007812 1.22656,-1.007812 0.48984,0 1.0418,0.453516 1.22656,1.007812 0.18477,0.554297 -0.36718,1.007813 -1.22656,1.007813 -0.85938,0 -1.41133,-0.453516 -1.22656,-1.007813 z M 77.474513,35.912013 C 76.418715,34.856215 76.831491,33.75 78.28125,33.75 c 0.773437,0 1.40625,0.396977 1.40625,0.882172 0,1.182166 -1.46399,2.028839 -2.212987,1.279841 z M 203.4375,35.625 c 0,-0.515625 0.42187,-0.9375 0.9375,-0.9375 0.51562,0 0.9375,0.421875 0.9375,0.9375 0,0.515625 -0.42188,0.9375 -0.9375,0.9375 -0.51563,0 -0.9375,-0.421875 -0.9375,-0.9375 z M 84.609375,34.951613 C 83.286996,34.477263 82.991663,31.875 84.260208,31.875 c 1.228206,0 3.134491,2.579526 2.26969,3.071275 -0.411756,0.234136 -1.275992,0.236539 -1.920523,0.0053 z M 191.80928,34.833967 c -0.32443,-0.524925 -0.13304,-1.236741 0.4253,-1.581814 1.44139,-0.89083 2.37138,0.32939 1.16811,1.532659 -0.6733,0.673293 -1.19768,0.68947 -1.59341,0.04915 z m 5.24541,-0.21678 c 0.18476,-0.554296 0.73672,-1.007812 1.22656,-1.007812 0.48984,0 1.0418,0.453516 1.22656,1.007812 0.18477,0.554297 -0.36718,1.007813 -1.22656,1.007813 -0.85938,0 -1.41133,-0.453516 -1.22656,-1.007813 z M 92.5,34.0625 c -1.078719,-1.078719 -0.682726,-2.1875 0.78125,-2.1875 0.773437,0 1.40625,0.632812 1.40625,1.40625 0,1.463976 -1.108781,1.859969 -2.1875,0.78125 z m 85.3125,0 c -1.07872,-1.078719 -0.68272,-2.1875 0.78125,-2.1875 0.77344,0 1.40625,0.632812 1.40625,1.40625 0,1.463976 -1.10878,1.859969 -2.1875,0.78125 z m 6.875,-0.78125 c 0,-0.773438 0.63281,-1.40625 1.40625,-1.40625 0.77344,0 1.40625,0.632812 1.40625,1.40625 0,0.773437 -0.63281,1.40625 -1.40625,1.40625 -0.77344,0 -1.40625,-0.632813 -1.40625,-1.40625 z m -84.375,-0.9375 c 0,-0.773438 0.58768,-1.40625 1.30595,-1.40625 0.71827,0 1.54878,0.632812 1.84558,1.40625 0.36705,0.956521 -0.0506,1.40625 -1.30595,1.40625 -1.01552,0 -1.84558,-0.632473 -1.84558,-1.40625 z m 8.67188,0.234375 c 0.21484,-0.644531 0.95312,-1.171875 1.64062,-1.171875 0.6875,0 1.42578,0.527344 1.64063,1.171875 0.23236,0.697116 -0.4323,1.171875 -1.64063,1.171875 -1.20833,0 -1.87299,-0.474759 -1.64062,-1.171875 z m 9.28546,-0.175925 c 0.17815,-0.860057 0.74579,-1.541456 1.26141,-1.51422 1.39152,0.0735 1.13588,2.170893 -0.32391,2.657489 -0.78855,0.262851 -1.13999,-0.165721 -0.9375,-1.143269 z m 9.66036,0.347927 c -0.86282,-1.396078 0.13756,-2.155115 1.93253,-1.466315 0.82836,0.317869 1.24353,1.0028 0.92262,1.522066 -0.75992,1.229567 -2.07667,1.203856 -2.85515,-0.05575 z m 18.93667,0.366739 C 146.52759,32.777589 146.25,31.9375 146.25,31.25 c 0,-1.396593 2.41674,-1.711294 3.2156,-0.418725 0.63801,1.032328 -1.75093,3.133402 -2.59873,2.285591 z m 8.20429,-0.656783 c -0.79426,-2.06982 0.26242,-3.126501 1.69447,-1.694458 0.84553,0.845537 0.84913,1.369619 0.0151,2.203641 -0.83402,0.834022 -1.24059,0.712926 -1.70957,-0.509183 z m 14.83119,0.176636 c 0.57944,-1.738334 2.59765,-2.02665 2.59765,-0.371094 0,0.816406 -0.66797,1.484375 -1.48437,1.484375 -0.81641,0 -1.31739,-0.500977 -1.11328,-1.113281 z m -32.41367,-1.270092 c 0.61402,-1.600107 2.34285,-1.403291 2.92147,0.332592 0.20608,0.618243 -0.48431,1.113281 -1.5526,1.113281 -1.34823,0 -1.75773,-0.432536 -1.36887,-1.445873 z m 24.90335,0.363532 c 0.48659,-1.459789 2.58399,-1.71543 2.65749,-0.323909 0.0273,0.515625 -0.65416,1.08326 -1.51422,1.261409 -0.97754,0.202488 -1.40612,-0.148949 -1.14327,-0.9375 z m 49.19595,0.482828 C 210.83899,31.46399 211.68566,30 212.86783,30 c 0.48519,0 0.88217,0.632812 0.88217,1.40625 0,1.449759 -1.10621,1.862535 -2.16202,0.806738 z M 206.25,30.546875 c 0,-0.816406 0.66797,-1.484375 1.48437,-1.484375 0.81641,0 1.31739,0.500977 1.11328,1.113281 -0.57944,1.738334 -2.59765,2.02665 -2.59765,0.371094 z M 60.214844,28.886719 C 60.794288,27.148385 62.8125,26.860069 62.8125,28.515625 62.8125,29.332031 62.144531,30 61.328125,30 60.511718,30 60.010742,29.499023 60.214844,28.886719 Z M 67.5,28.59375 c 0,-0.773438 0.421875,-1.40625 0.9375,-1.40625 0.515625,0 0.9375,0.632812 0.9375,1.40625 C 69.375,29.367187 68.953125,30 68.4375,30 67.921875,30 67.5,29.367187 67.5,28.59375 Z m 6.545593,0.458301 c -1.094003,-0.676131 -1.136682,-1.085962 -0.209631,-2.013013 1.398142,-1.398142 3.308287,0.0709 2.272131,1.747437 -0.444733,0.719593 -1.17561,0.813704 -2.0625,0.265576 z M 188.4375,28.125 c 0,-1.208333 0.47476,-1.872997 1.17187,-1.640625 0.64454,0.214844 1.17188,0.953125 1.17188,1.640625 0,0.6875 -0.52734,1.425781 -1.17188,1.640625 -0.69711,0.232372 -1.17187,-0.432292 -1.17187,-1.640625 z m 5.625,0.46875 c 0,-0.773438 0.63281,-1.40625 1.40625,-1.40625 0.77344,0 1.40625,0.632812 1.40625,1.40625 0,0.773437 -0.63281,1.40625 -1.40625,1.40625 -0.77344,0 -1.40625,-0.632813 -1.40625,-1.40625 z m 6.5625,0.46875 c 0,-0.515625 0.63281,-0.9375 1.40625,-0.9375 0.77344,0 1.40625,0.421875 1.40625,0.9375 0,0.515625 -0.63281,0.9375 -1.40625,0.9375 -0.77344,0 -1.40625,-0.421875 -1.40625,-0.9375 z m -120,-1.40625 c 0,-0.773438 0.619572,-1.40625 1.376827,-1.40625 0.83868,0 1.165907,0.549646 0.837197,1.40625 -0.296795,0.773437 -0.916367,1.40625 -1.376826,1.40625 -0.460459,0 -0.837198,-0.632813 -0.837198,-1.40625 z m 100.95703,0.800782 C 180.35944,27.234439 180.94313,26.25 182.89062,26.25 c 1.09102,0 1.78932,0.491407 1.58203,1.113281 -0.45666,1.370009 -2.02205,1.962318 -2.89062,1.093751 z M 88.359375,26.953125 C 88.574219,26.308594 89.3125,25.78125 90,25.78125 c 0.6875,0 1.425781,0.527344 1.640625,1.171875 C 91.872997,27.650241 91.208333,28.125 90,28.125 c -1.208333,0 -1.872997,-0.474759 -1.640625,-1.171875 z m 17.240135,0.521388 c -1.12046,-1.120459 -0.60535,-3.099513 0.80674,-3.099513 0.77344,0 1.40625,0.607914 1.40625,1.350922 0,1.566228 -1.33808,2.623505 -2.21299,1.748591 z m 7.48643,-0.0974 c -0.90191,-1.459311 1.11748,-3.548697 2.29334,-2.372838 0.59529,0.595294 0.7989,1.540986 0.45245,2.101539 -0.7403,1.197838 -2.0907,1.331265 -2.74579,0.271299 z m 19.20813,-0.529947 c -1.21383,-1.462591 -0.45044,-2.472166 1.86935,-2.472166 2.45793,0 3.03135,1.637894 0.96128,2.745762 -1.31897,0.705892 -2.07867,0.632463 -2.83062,-0.273596 z m 33.87196,0.650887 c -1.69061,-0.675687 -0.46097,-2.185553 1.77992,-2.185553 1.04831,0 1.73169,0.49833 1.5267,1.113281 -0.44009,1.320274 -1.68003,1.722366 -3.30662,1.072271 z m 7.27147,-0.779303 c 0,-0.965586 0.61444,-1.425403 1.64062,-1.227777 1.9761,0.380562 1.8515,2.044389 -0.18485,2.468393 -0.84936,0.176852 -1.45577,-0.339934 -1.45577,-1.240616 z M 96.275484,26.587987 C 95.400572,25.713072 96.457847,24.375 98.024081,24.375 c 0.743007,0 1.350919,0.632812 1.350919,1.40625 0,1.412091 -1.979053,1.927196 -3.099516,0.806737 z M 122.8125,25.78125 c 0,-0.965586 0.61444,-1.425403 1.64063,-1.227777 1.9761,0.380562 1.85149,2.044389 -0.18486,2.468393 -0.84936,0.176852 -1.45577,-0.339934 -1.45577,-1.240616 z m 19.375,0.78125 c -1.18855,-1.188554 -0.61773,-2.1875 1.25,-2.1875 1.04167,0 1.875,0.625 1.875,1.40625 0,1.42726 -1.98319,1.923058 -3.125,0.78125 z m 7.34375,-0.3125 c -0.32861,-0.531711 0.45902,-0.9375 1.81967,-0.9375 1.31949,0 2.39908,0.421875 2.39908,0.9375 0,0.515625 -0.81885,0.9375 -1.81967,0.9375 -1.00082,0 -2.0804,-0.421875 -2.39908,-0.9375 z m 8.90625,-0.46875 c 0,-0.773438 0.63281,-1.40625 1.40625,-1.40625 0.77344,0 1.40625,0.632812 1.40625,1.40625 0,0.773437 -0.63281,1.40625 -1.40625,1.40625 -0.77344,0 -1.40625,-0.632813 -1.40625,-1.40625 z m 17.8125,-2.34375 -5.15625,-0.631882 4.6875,-0.08331 c 2.57812,-0.04583 6.58594,0.25448 8.90625,0.667347 l 4.21875,0.750666 -3.75,-0.03547 c -2.0625,-0.01951 -6.07031,-0.319815 -8.90625,-0.66735 z M 20.625,22.144133 c 0,-1.250048 19.584225,-8.113337 22.942742,-8.040281 1.045554,0.02274 -2.950555,1.668415 -8.880242,3.657048 -5.929688,1.988632 -11.519531,3.913597 -12.421875,4.2777 C 21.363281,22.402702 20.625,22.450192 20.625,22.144133 Z m 146.50222,-0.293812 c 0.91215,-0.237697 2.17778,-0.222065 2.8125,0.03473 0.63471,0.256803 -0.1116,0.451283 -1.65847,0.432177 -1.54688,-0.01911 -2.06619,-0.229217 -1.15403,-0.466915 z m 8.65403,-1.848738 c -6.03796,-1.062903 -6.15037,-1.122276 -1.40625,-0.742811 2.83594,0.226836 6.94922,0.416097 9.14062,0.420579 2.19141,0.0045 3.98438,0.436725 3.98438,0.96054 0,1.106033 -2.62069,0.963286 -11.71875,-0.638308 z m 2.8125,-1.881269 c -6.73453,-0.835084 -15.56383,-2.400236 -15.25911,-2.704955 0.4632,-0.463206 23.41047,2.267248 23.99879,2.855575 0.50853,0.508527 -4.05877,0.429814 -8.73968,-0.15062 z M 183.75,15.743648 c -2.32031,-0.441669 -8.22656,-1.152513 -13.125,-1.579655 -8.23381,-0.717985 -8.44616,-0.784341 -2.8125,-0.878861 6.2253,-0.104447 19.60385,1.318719 20.46179,2.176658 0.97508,0.975073 -0.42443,1.062262 -4.52429,0.281858 z m 0.76274,-3.105909 c -0.26799,-0.267994 -5.71721,-0.875384 -12.10938,-1.349755 l -11.62211,-0.862495 12.77471,0.399588 c 11.5926,0.362611 22.52944,2.072033 14.33467,2.240499 -1.58985,0.03268 -3.1099,-0.159843 -3.37789,-0.427837 z M 29.0625,11.822677 c 0,-0.508741 11.278321,-4.3375512 12.603911,-4.2788259 1.172368,0.051937 -6.678672,3.1922309 -10.174411,4.0696059 -1.336225,0.335371 -2.4295,0.429521 -2.4295,0.20922 z M 171.09375,9.375 158.90625,8.8203048 172.5,8.7223524 c 7.47656,-0.053874 14.64844,0.2398176 15.9375,0.6526476 2.73018,0.874357 1.8672,0.874357 -17.34375,0 z m 5.625,-2.8778273 c -3.30553,-0.4994489 -1.82832,-0.6141529 5.01052,-0.3890636 5.33392,0.1755569 9.93939,0.5605511 10.23438,0.8555427 0.72366,0.7236579 -9.42301,0.4131797 -15.2449,-0.4664791 z M 163.37227,4.9522676 c 1.42505,-0.2154885 3.53443,-0.2097299 4.6875,0.012797 1.15306,0.2225268 -0.0128,0.3988356 -2.59102,0.3917973 -2.57813,-0.00704 -3.52154,-0.1891058 -2.09648,-0.4045942 z M 250.58414,36.5625 c 0.26968,-1.03125 0.33372,-1.875 0.14232,-1.875 -0.19139,0 -0.79955,0.84375 -1.35146,1.875 -0.55438,1.035865 -0.61807,1.875 -0.14233,1.875 0.47363,0 1.08179,-0.84375 1.35147,-1.875 z M 229.4336,35.058593 c -0.31153,-0.311522 -1.12013,-0.344829 -1.79688,-0.07402 -0.74787,0.299274 -0.52573,0.521421 0.56641,0.566406 0.98827,0.04071 1.54199,-0.18087 1.23047,-0.492393 z m 7.7539,-2.385484 c 0.89987,-0.527202 0.3935,-0.604882 -1.40625,-0.215727 -1.54688,0.334479 -3.44531,0.978883 -4.21875,1.432009 -0.89987,0.527201 -0.3935,0.604882 1.40625,0.215726 1.54687,-0.334478 3.44531,-0.978882 4.21875,-1.432008 z M 235.78125,30 c -0.31868,-0.515625 -1.08186,-0.93104 -1.69596,-0.923144 -0.67088,0.0086 -0.55525,0.377088 0.28971,0.923144 1.80105,1.16393 2.12559,1.16393 1.40625,0 z m 16.91873,-4.758267 c 0.34726,-0.561881 -0.65391,-0.356944 -2.22484,0.455416 -1.57093,0.812359 -3.14037,1.936738 -3.48762,2.498618 -0.34726,0.561881 0.65391,0.356944 2.22484,-0.455416 1.57093,-0.812359 3.14037,-1.936738 3.48762,-2.498618 z M 16.564942,23.014616 c -0.943968,-0.715413 -2.338335,-2.07309 -3.098593,-3.017059 -1.287756,-1.598936 -1.313851,-1.574801 -0.381571,0.352918 0.550394,1.138073 1.733823,2.496338 2.629844,3.018366 2.353733,1.371303 2.852792,1.163406 0.85032,-0.354225 z m 234.183138,0.476555 c 0.97409,-1.57612 -18.7345,-9.436071 -23.6211,-9.420287 -1.56246,0.0051 0.98425,1.24264 6.39779,3.109041 4.94644,1.705361 10.43081,3.98695 12.1875,5.070197 3.71737,2.292287 4.29772,2.43531 5.03581,1.241049 z m 15.5738,-1.077564 c 6.61204,-1.648247 7.79879,-9.996846 1.62721,-11.447241 -2.25934,-0.530973 -4.04585,-0.455716 -5.15625,0.217209 -1.43484,0.869543 -1.31171,0.942381 0.79172,0.468338 8.26823,-1.8633902 9.7132,7.830402 1.47762,9.91287 -5.23084,1.322683 -8.90539,2.987366 -4.90593,2.222535 1.54687,-0.295815 4.32141,-0.913985 6.16563,-1.373711 z m 0.42345,-3.685664 c 2.88664,-2.395696 1.71773,-4.965633 -1.98523,-4.364724 -4.21497,0.683994 -6.0101,2.139076 -6.0101,4.871594 0,2.337816 4.94546,2.024294 7.99533,-0.50687 z m -9.87033,0.546135 c 0,-0.227382 -0.42188,-0.674154 -0.9375,-0.992828 C 255.42187,17.962576 255,18.148616 255,18.694672 c 0,0.546055 0.42187,0.992828 0.9375,0.992828 0.51562,0 0.9375,-0.186039 0.9375,-0.413422 z M 7.7259235,15.209155 C 3.5820473,11.746703 3.6589834,8.7715668 7.9386388,6.9834126 12.740649,4.9770042 14.586295,5.2922763 17.823129,8.671875 L 20.741295,11.71875 18.573772,8.213782 C 15.35351,3.0064919 9.9294047,2.6673741 4.453125,7.330952 1.6170964,9.7461028 3.2595674,14.134625 7.96875,16.72436 c 3.076724,1.691991 2.996508,1.191451 -0.2428265,-1.515205 z M 16.848227,12.1875 C 16.707105,7.7533921 8.4916797,6.3242303 7.670004,10.590849 c -0.5994588,3.112739 3.46266,5.324455 6.552079,3.567433 1.452584,-0.826118 2.634349,-1.712969 2.626144,-1.970782 z m 206.528993,1.260059 c -0.63472,-0.256803 -1.90035,-0.272435 -2.8125,-0.03473 -0.91216,0.237697 -0.39285,0.447809 1.15403,0.466914 1.54687,0.01911 2.29318,-0.175373 1.65847,-0.432176 z" id="path4177" inkscape:connector-curvature="0"/>
</svg>